<?xml version="1.0" encoding="utf-8" standalone="no"?>
<!DOCTYPE svg PUBLIC "-//W3C//DTD SVG 1.1//EN"
  "http://www.w3.org/Graphics/SVG/1.1/DTD/svg11.dtd">
<!-- Created with matplotlib (https://matplotlib.org/) -->
<svg height="345.6pt" version="1.1" viewBox="0 0 460.8 345.6" width="460.8pt" xmlns="http://www.w3.org/2000/svg" xmlns:xlink="http://www.w3.org/1999/xlink">
 <defs>
  <style type="text/css">
*{stroke-linecap:butt;stroke-linejoin:round;}
  </style>
 </defs>
 <g id="figure_1">
  <g id="patch_1">
   <path d="M 0 345.6 
L 460.8 345.6 
L 460.8 0 
L 0 0 
z
" style="fill:#ffffff;"/>
  </g>
  <g id="axes_1">
   <g id="patch_2">
    <path d="M 57.6 307.584 
L 414.72 307.584 
L 414.72 41.472 
L 57.6 41.472 
z
" style="fill:#ffffff;"/>
   </g>
   <g id="matplotlib.axis_1">
    <g id="xtick_1">
     <g id="line2d_1">
      <defs>
       <path d="M 0 0 
L 0 3.5 
" id="m3ab0cafe07" style="stroke:#000000;stroke-width:0.8;"/>
      </defs>
      <g>
       <use style="stroke:#000000;stroke-width:0.8;" x="73.832727" xlink:href="#m3ab0cafe07" y="307.584"/>
      </g>
     </g>
     <g id="text_1">
      <!-- 0 -->
      <defs>
       <path d="M 31.78125 66.40625 
Q 24.171875 66.40625 20.328125 58.90625 
Q 16.5 51.421875 16.5 36.375 
Q 16.5 21.390625 20.328125 13.890625 
Q 24.171875 6.390625 31.78125 6.390625 
Q 39.453125 6.390625 43.28125 13.890625 
Q 47.125 21.390625 47.125 36.375 
Q 47.125 51.421875 43.28125 58.90625 
Q 39.453125 66.40625 31.78125 66.40625 
z
M 31.78125 74.21875 
Q 44.046875 74.21875 50.515625 64.515625 
Q 56.984375 54.828125 56.984375 36.375 
Q 56.984375 17.96875 50.515625 8.265625 
Q 44.046875 -1.421875 31.78125 -1.421875 
Q 19.53125 -1.421875 13.0625 8.265625 
Q 6.59375 17.96875 6.59375 36.375 
Q 6.59375 54.828125 13.0625 64.515625 
Q 19.53125 74.21875 31.78125 74.21875 
z
" id="DejaVuSans-48"/>
      </defs>
      <g transform="translate(70.651477 322.182437)scale(0.1 -0.1)">
       <use xlink:href="#DejaVuSans-48"/>
      </g>
     </g>
    </g>
    <g id="xtick_2">
     <g id="line2d_2">
      <g>
       <use style="stroke:#000000;stroke-width:0.8;" x="138.828632" xlink:href="#m3ab0cafe07" y="307.584"/>
      </g>
     </g>
     <g id="text_2">
      <!-- 200 -->
      <defs>
       <path d="M 19.1875 8.296875 
L 53.609375 8.296875 
L 53.609375 0 
L 7.328125 0 
L 7.328125 8.296875 
Q 12.9375 14.109375 22.625 23.890625 
Q 32.328125 33.6875 34.8125 36.53125 
Q 39.546875 41.84375 41.421875 45.53125 
Q 43.3125 49.21875 43.3125 52.78125 
Q 43.3125 58.59375 39.234375 62.25 
Q 35.15625 65.921875 28.609375 65.921875 
Q 23.96875 65.921875 18.8125 64.3125 
Q 13.671875 62.703125 7.8125 59.421875 
L 7.8125 69.390625 
Q 13.765625 71.78125 18.9375 73 
Q 24.125 74.21875 28.421875 74.21875 
Q 39.75 74.21875 46.484375 68.546875 
Q 53.21875 62.890625 53.21875 53.421875 
Q 53.21875 48.921875 51.53125 44.890625 
Q 49.859375 40.875 45.40625 35.40625 
Q 44.1875 33.984375 37.640625 27.21875 
Q 31.109375 20.453125 19.1875 8.296875 
z
" id="DejaVuSans-50"/>
      </defs>
      <g transform="translate(129.284882 322.182437)scale(0.1 -0.1)">
       <use xlink:href="#DejaVuSans-50"/>
       <use x="63.623047" xlink:href="#DejaVuSans-48"/>
       <use x="127.246094" xlink:href="#DejaVuSans-48"/>
      </g>
     </g>
    </g>
    <g id="xtick_3">
     <g id="line2d_3">
      <g>
       <use style="stroke:#000000;stroke-width:0.8;" x="203.824537" xlink:href="#m3ab0cafe07" y="307.584"/>
      </g>
     </g>
     <g id="text_3">
      <!-- 400 -->
      <defs>
       <path d="M 37.796875 64.3125 
L 12.890625 25.390625 
L 37.796875 25.390625 
z
M 35.203125 72.90625 
L 47.609375 72.90625 
L 47.609375 25.390625 
L 58.015625 25.390625 
L 58.015625 17.1875 
L 47.609375 17.1875 
L 47.609375 0 
L 37.796875 0 
L 37.796875 17.1875 
L 4.890625 17.1875 
L 4.890625 26.703125 
z
" id="DejaVuSans-52"/>
      </defs>
      <g transform="translate(194.280787 322.182437)scale(0.1 -0.1)">
       <use xlink:href="#DejaVuSans-52"/>
       <use x="63.623047" xlink:href="#DejaVuSans-48"/>
       <use x="127.246094" xlink:href="#DejaVuSans-48"/>
      </g>
     </g>
    </g>
    <g id="xtick_4">
     <g id="line2d_4">
      <g>
       <use style="stroke:#000000;stroke-width:0.8;" x="268.820442" xlink:href="#m3ab0cafe07" y="307.584"/>
      </g>
     </g>
     <g id="text_4">
      <!-- 600 -->
      <defs>
       <path d="M 33.015625 40.375 
Q 26.375 40.375 22.484375 35.828125 
Q 18.609375 31.296875 18.609375 23.390625 
Q 18.609375 15.53125 22.484375 10.953125 
Q 26.375 6.390625 33.015625 6.390625 
Q 39.65625 6.390625 43.53125 10.953125 
Q 47.40625 15.53125 47.40625 23.390625 
Q 47.40625 31.296875 43.53125 35.828125 
Q 39.65625 40.375 33.015625 40.375 
z
M 52.59375 71.296875 
L 52.59375 62.3125 
Q 48.875 64.0625 45.09375 64.984375 
Q 41.3125 65.921875 37.59375 65.921875 
Q 27.828125 65.921875 22.671875 59.328125 
Q 17.53125 52.734375 16.796875 39.40625 
Q 19.671875 43.65625 24.015625 45.921875 
Q 28.375 48.1875 33.59375 48.1875 
Q 44.578125 48.1875 50.953125 41.515625 
Q 57.328125 34.859375 57.328125 23.390625 
Q 57.328125 12.15625 50.6875 5.359375 
Q 44.046875 -1.421875 33.015625 -1.421875 
Q 20.359375 -1.421875 13.671875 8.265625 
Q 6.984375 17.96875 6.984375 36.375 
Q 6.984375 53.65625 15.1875 63.9375 
Q 23.390625 74.21875 37.203125 74.21875 
Q 40.921875 74.21875 44.703125 73.484375 
Q 48.484375 72.75 52.59375 71.296875 
z
" id="DejaVuSans-54"/>
      </defs>
      <g transform="translate(259.276692 322.182437)scale(0.1 -0.1)">
       <use xlink:href="#DejaVuSans-54"/>
       <use x="63.623047" xlink:href="#DejaVuSans-48"/>
       <use x="127.246094" xlink:href="#DejaVuSans-48"/>
      </g>
     </g>
    </g>
    <g id="xtick_5">
     <g id="line2d_5">
      <g>
       <use style="stroke:#000000;stroke-width:0.8;" x="333.816347" xlink:href="#m3ab0cafe07" y="307.584"/>
      </g>
     </g>
     <g id="text_5">
      <!-- 800 -->
      <defs>
       <path d="M 31.78125 34.625 
Q 24.75 34.625 20.71875 30.859375 
Q 16.703125 27.09375 16.703125 20.515625 
Q 16.703125 13.921875 20.71875 10.15625 
Q 24.75 6.390625 31.78125 6.390625 
Q 38.8125 6.390625 42.859375 10.171875 
Q 46.921875 13.96875 46.921875 20.515625 
Q 46.921875 27.09375 42.890625 30.859375 
Q 38.875 34.625 31.78125 34.625 
z
M 21.921875 38.8125 
Q 15.578125 40.375 12.03125 44.71875 
Q 8.5 49.078125 8.5 55.328125 
Q 8.5 64.0625 14.71875 69.140625 
Q 20.953125 74.21875 31.78125 74.21875 
Q 42.671875 74.21875 48.875 69.140625 
Q 55.078125 64.0625 55.078125 55.328125 
Q 55.078125 49.078125 51.53125 44.71875 
Q 48 40.375 41.703125 38.8125 
Q 48.828125 37.15625 52.796875 32.3125 
Q 56.78125 27.484375 56.78125 20.515625 
Q 56.78125 9.90625 50.3125 4.234375 
Q 43.84375 -1.421875 31.78125 -1.421875 
Q 19.734375 -1.421875 13.25 4.234375 
Q 6.78125 9.90625 6.78125 20.515625 
Q 6.78125 27.484375 10.78125 32.3125 
Q 14.796875 37.15625 21.921875 38.8125 
z
M 18.3125 54.390625 
Q 18.3125 48.734375 21.84375 45.5625 
Q 25.390625 42.390625 31.78125 42.390625 
Q 38.140625 42.390625 41.71875 45.5625 
Q 45.3125 48.734375 45.3125 54.390625 
Q 45.3125 60.0625 41.71875 63.234375 
Q 38.140625 66.40625 31.78125 66.40625 
Q 25.390625 66.40625 21.84375 63.234375 
Q 18.3125 60.0625 18.3125 54.390625 
z
" id="DejaVuSans-56"/>
      </defs>
      <g transform="translate(324.272597 322.182437)scale(0.1 -0.1)">
       <use xlink:href="#DejaVuSans-56"/>
       <use x="63.623047" xlink:href="#DejaVuSans-48"/>
       <use x="127.246094" xlink:href="#DejaVuSans-48"/>
      </g>
     </g>
    </g>
    <g id="xtick_6">
     <g id="line2d_6">
      <g>
       <use style="stroke:#000000;stroke-width:0.8;" x="398.812252" xlink:href="#m3ab0cafe07" y="307.584"/>
      </g>
     </g>
     <g id="text_6">
      <!-- 1000 -->
      <defs>
       <path d="M 12.40625 8.296875 
L 28.515625 8.296875 
L 28.515625 63.921875 
L 10.984375 60.40625 
L 10.984375 69.390625 
L 28.421875 72.90625 
L 38.28125 72.90625 
L 38.28125 8.296875 
L 54.390625 8.296875 
L 54.390625 0 
L 12.40625 0 
z
" id="DejaVuSans-49"/>
      </defs>
      <g transform="translate(386.087252 322.182437)scale(0.1 -0.1)">
       <use xlink:href="#DejaVuSans-49"/>
       <use x="63.623047" xlink:href="#DejaVuSans-48"/>
       <use x="127.246094" xlink:href="#DejaVuSans-48"/>
       <use x="190.869141" xlink:href="#DejaVuSans-48"/>
      </g>
     </g>
    </g>
    <g id="text_7">
     <!-- epoch -->
     <defs>
      <path d="M 56.203125 29.59375 
L 56.203125 25.203125 
L 14.890625 25.203125 
Q 15.484375 15.921875 20.484375 11.0625 
Q 25.484375 6.203125 34.421875 6.203125 
Q 39.59375 6.203125 44.453125 7.46875 
Q 49.3125 8.734375 54.109375 11.28125 
L 54.109375 2.78125 
Q 49.265625 0.734375 44.1875 -0.34375 
Q 39.109375 -1.421875 33.890625 -1.421875 
Q 20.796875 -1.421875 13.15625 6.1875 
Q 5.515625 13.8125 5.515625 26.8125 
Q 5.515625 40.234375 12.765625 48.109375 
Q 20.015625 56 32.328125 56 
Q 43.359375 56 49.78125 48.890625 
Q 56.203125 41.796875 56.203125 29.59375 
z
M 47.21875 32.234375 
Q 47.125 39.59375 43.09375 43.984375 
Q 39.0625 48.390625 32.421875 48.390625 
Q 24.90625 48.390625 20.390625 44.140625 
Q 15.875 39.890625 15.1875 32.171875 
z
" id="DejaVuSans-101"/>
      <path d="M 18.109375 8.203125 
L 18.109375 -20.796875 
L 9.078125 -20.796875 
L 9.078125 54.6875 
L 18.109375 54.6875 
L 18.109375 46.390625 
Q 20.953125 51.265625 25.265625 53.625 
Q 29.59375 56 35.59375 56 
Q 45.5625 56 51.78125 48.09375 
Q 58.015625 40.1875 58.015625 27.296875 
Q 58.015625 14.40625 51.78125 6.484375 
Q 45.5625 -1.421875 35.59375 -1.421875 
Q 29.59375 -1.421875 25.265625 0.953125 
Q 20.953125 3.328125 18.109375 8.203125 
z
M 48.6875 27.296875 
Q 48.6875 37.203125 44.609375 42.84375 
Q 40.53125 48.484375 33.40625 48.484375 
Q 26.265625 48.484375 22.1875 42.84375 
Q 18.109375 37.203125 18.109375 27.296875 
Q 18.109375 17.390625 22.1875 11.75 
Q 26.265625 6.109375 33.40625 6.109375 
Q 40.53125 6.109375 44.609375 11.75 
Q 48.6875 17.390625 48.6875 27.296875 
z
" id="DejaVuSans-112"/>
      <path d="M 30.609375 48.390625 
Q 23.390625 48.390625 19.1875 42.75 
Q 14.984375 37.109375 14.984375 27.296875 
Q 14.984375 17.484375 19.15625 11.84375 
Q 23.34375 6.203125 30.609375 6.203125 
Q 37.796875 6.203125 41.984375 11.859375 
Q 46.1875 17.53125 46.1875 27.296875 
Q 46.1875 37.015625 41.984375 42.703125 
Q 37.796875 48.390625 30.609375 48.390625 
z
M 30.609375 56 
Q 42.328125 56 49.015625 48.375 
Q 55.71875 40.765625 55.71875 27.296875 
Q 55.71875 13.875 49.015625 6.21875 
Q 42.328125 -1.421875 30.609375 -1.421875 
Q 18.84375 -1.421875 12.171875 6.21875 
Q 5.515625 13.875 5.515625 27.296875 
Q 5.515625 40.765625 12.171875 48.375 
Q 18.84375 56 30.609375 56 
z
" id="DejaVuSans-111"/>
      <path d="M 48.78125 52.59375 
L 48.78125 44.1875 
Q 44.96875 46.296875 41.140625 47.34375 
Q 37.3125 48.390625 33.40625 48.390625 
Q 24.65625 48.390625 19.8125 42.84375 
Q 14.984375 37.3125 14.984375 27.296875 
Q 14.984375 17.28125 19.8125 11.734375 
Q 24.65625 6.203125 33.40625 6.203125 
Q 37.3125 6.203125 41.140625 7.25 
Q 44.96875 8.296875 48.78125 10.40625 
L 48.78125 2.09375 
Q 45.015625 0.34375 40.984375 -0.53125 
Q 36.96875 -1.421875 32.421875 -1.421875 
Q 20.0625 -1.421875 12.78125 6.34375 
Q 5.515625 14.109375 5.515625 27.296875 
Q 5.515625 40.671875 12.859375 48.328125 
Q 20.21875 56 33.015625 56 
Q 37.15625 56 41.109375 55.140625 
Q 45.0625 54.296875 48.78125 52.59375 
z
" id="DejaVuSans-99"/>
      <path d="M 54.890625 33.015625 
L 54.890625 0 
L 45.90625 0 
L 45.90625 32.71875 
Q 45.90625 40.484375 42.875 44.328125 
Q 39.84375 48.1875 33.796875 48.1875 
Q 26.515625 48.1875 22.3125 43.546875 
Q 18.109375 38.921875 18.109375 30.90625 
L 18.109375 0 
L 9.078125 0 
L 9.078125 75.984375 
L 18.109375 75.984375 
L 18.109375 46.1875 
Q 21.34375 51.125 25.703125 53.5625 
Q 30.078125 56 35.796875 56 
Q 45.21875 56 50.046875 50.171875 
Q 54.890625 44.34375 54.890625 33.015625 
z
" id="DejaVuSans-104"/>
     </defs>
     <g transform="translate(220.931875 335.860562)scale(0.1 -0.1)">
      <use xlink:href="#DejaVuSans-101"/>
      <use x="61.523438" xlink:href="#DejaVuSans-112"/>
      <use x="125" xlink:href="#DejaVuSans-111"/>
      <use x="186.181641" xlink:href="#DejaVuSans-99"/>
      <use x="241.162109" xlink:href="#DejaVuSans-104"/>
     </g>
    </g>
   </g>
   <g id="matplotlib.axis_2">
    <g id="ytick_1">
     <g id="line2d_7">
      <defs>
       <path d="M 0 0 
L -2 0 
" id="me8752f4048" style="stroke:#000000;stroke-width:0.6;"/>
      </defs>
      <g>
       <use style="stroke:#000000;stroke-width:0.6;" x="57.6" xlink:href="#me8752f4048" y="290.693415"/>
      </g>
     </g>
     <g id="text_8">
      <!-- $\mathdefault{1.95\times10^{0}}$ -->
      <defs>
       <path d="M 10.6875 12.40625 
L 21 12.40625 
L 21 0 
L 10.6875 0 
z
" id="DejaVuSans-46"/>
       <path d="M 10.984375 1.515625 
L 10.984375 10.5 
Q 14.703125 8.734375 18.5 7.8125 
Q 22.3125 6.890625 25.984375 6.890625 
Q 35.75 6.890625 40.890625 13.453125 
Q 46.046875 20.015625 46.78125 33.40625 
Q 43.953125 29.203125 39.59375 26.953125 
Q 35.25 24.703125 29.984375 24.703125 
Q 19.046875 24.703125 12.671875 31.3125 
Q 6.296875 37.9375 6.296875 49.421875 
Q 6.296875 60.640625 12.9375 67.421875 
Q 19.578125 74.21875 30.609375 74.21875 
Q 43.265625 74.21875 49.921875 64.515625 
Q 56.59375 54.828125 56.59375 36.375 
Q 56.59375 19.140625 48.40625 8.859375 
Q 40.234375 -1.421875 26.421875 -1.421875 
Q 22.703125 -1.421875 18.890625 -0.6875 
Q 15.09375 0.046875 10.984375 1.515625 
z
M 30.609375 32.421875 
Q 37.25 32.421875 41.125 36.953125 
Q 45.015625 41.5 45.015625 49.421875 
Q 45.015625 57.28125 41.125 61.84375 
Q 37.25 66.40625 30.609375 66.40625 
Q 23.96875 66.40625 20.09375 61.84375 
Q 16.21875 57.28125 16.21875 49.421875 
Q 16.21875 41.5 20.09375 36.953125 
Q 23.96875 32.421875 30.609375 32.421875 
z
" id="DejaVuSans-57"/>
       <path d="M 10.796875 72.90625 
L 49.515625 72.90625 
L 49.515625 64.59375 
L 19.828125 64.59375 
L 19.828125 46.734375 
Q 21.96875 47.46875 24.109375 47.828125 
Q 26.265625 48.1875 28.421875 48.1875 
Q 40.625 48.1875 47.75 41.5 
Q 54.890625 34.8125 54.890625 23.390625 
Q 54.890625 11.625 47.5625 5.09375 
Q 40.234375 -1.421875 26.90625 -1.421875 
Q 22.3125 -1.421875 17.546875 -0.640625 
Q 12.796875 0.140625 7.71875 1.703125 
L 7.71875 11.625 
Q 12.109375 9.234375 16.796875 8.0625 
Q 21.484375 6.890625 26.703125 6.890625 
Q 35.15625 6.890625 40.078125 11.328125 
Q 45.015625 15.765625 45.015625 23.390625 
Q 45.015625 31 40.078125 35.4375 
Q 35.15625 39.890625 26.703125 39.890625 
Q 22.75 39.890625 18.8125 39.015625 
Q 14.890625 38.140625 10.796875 36.28125 
z
" id="DejaVuSans-53"/>
       <path d="M 70.125 53.71875 
L 47.796875 31.296875 
L 70.125 8.984375 
L 64.3125 3.078125 
L 41.890625 25.484375 
L 19.484375 3.078125 
L 13.71875 8.984375 
L 35.984375 31.296875 
L 13.71875 53.71875 
L 19.484375 59.625 
L 41.890625 37.203125 
L 64.3125 59.625 
z
" id="DejaVuSans-215"/>
      </defs>
      <g transform="translate(0.1 294.492634)scale(0.1 -0.1)">
       <use transform="translate(0 0.765625)" xlink:href="#DejaVuSans-49"/>
       <use transform="translate(63.623047 0.765625)" xlink:href="#DejaVuSans-46"/>
       <use transform="translate(95.410156 0.765625)" xlink:href="#DejaVuSans-57"/>
       <use transform="translate(159.033203 0.765625)" xlink:href="#DejaVuSans-53"/>
       <use transform="translate(242.138672 0.765625)" xlink:href="#DejaVuSans-215"/>
       <use transform="translate(345.410156 0.765625)" xlink:href="#DejaVuSans-49"/>
       <use transform="translate(409.033203 0.765625)" xlink:href="#DejaVuSans-48"/>
       <use transform="translate(473.613281 39.046875)scale(0.7)" xlink:href="#DejaVuSans-48"/>
      </g>
     </g>
    </g>
    <g id="ytick_2">
     <g id="line2d_8">
      <g>
       <use style="stroke:#000000;stroke-width:0.6;" x="57.6" xlink:href="#me8752f4048" y="252.400011"/>
      </g>
     </g>
     <g id="text_9">
      <!-- $\mathdefault{2\times10^{0}}$ -->
      <g transform="translate(16 256.199229)scale(0.1 -0.1)">
       <use transform="translate(0 0.765625)" xlink:href="#DejaVuSans-50"/>
       <use transform="translate(83.105469 0.765625)" xlink:href="#DejaVuSans-215"/>
       <use transform="translate(186.376953 0.765625)" xlink:href="#DejaVuSans-49"/>
       <use transform="translate(250 0.765625)" xlink:href="#DejaVuSans-48"/>
       <use transform="translate(314.580078 39.046875)scale(0.7)" xlink:href="#DejaVuSans-48"/>
      </g>
     </g>
    </g>
    <g id="ytick_3">
     <g id="line2d_9">
      <g>
       <use style="stroke:#000000;stroke-width:0.6;" x="57.6" xlink:href="#me8752f4048" y="215.052219"/>
      </g>
     </g>
     <g id="text_10">
      <!-- $\mathdefault{2.05\times10^{0}}$ -->
      <g transform="translate(0.1 218.851438)scale(0.1 -0.1)">
       <use transform="translate(0 0.765625)" xlink:href="#DejaVuSans-50"/>
       <use transform="translate(63.623047 0.765625)" xlink:href="#DejaVuSans-46"/>
       <use transform="translate(95.410156 0.765625)" xlink:href="#DejaVuSans-48"/>
       <use transform="translate(159.033203 0.765625)" xlink:href="#DejaVuSans-53"/>
       <use transform="translate(242.138672 0.765625)" xlink:href="#DejaVuSans-215"/>
       <use transform="translate(345.410156 0.765625)" xlink:href="#DejaVuSans-49"/>
       <use transform="translate(409.033203 0.765625)" xlink:href="#DejaVuSans-48"/>
       <use transform="translate(473.613281 39.046875)scale(0.7)" xlink:href="#DejaVuSans-48"/>
      </g>
     </g>
    </g>
    <g id="ytick_4">
     <g id="line2d_10">
      <g>
       <use style="stroke:#000000;stroke-width:0.6;" x="57.6" xlink:href="#me8752f4048" y="178.604463"/>
      </g>
     </g>
     <g id="text_11">
      <!-- $\mathdefault{2.1\times10^{0}}$ -->
      <g transform="translate(6.4 182.403681)scale(0.1 -0.1)">
       <use transform="translate(0 0.765625)" xlink:href="#DejaVuSans-50"/>
       <use transform="translate(63.623047 0.765625)" xlink:href="#DejaVuSans-46"/>
       <use transform="translate(95.410156 0.765625)" xlink:href="#DejaVuSans-49"/>
       <use transform="translate(178.515625 0.765625)" xlink:href="#DejaVuSans-215"/>
       <use transform="translate(281.787109 0.765625)" xlink:href="#DejaVuSans-49"/>
       <use transform="translate(345.410156 0.765625)" xlink:href="#DejaVuSans-48"/>
       <use transform="translate(409.990234 39.046875)scale(0.7)" xlink:href="#DejaVuSans-48"/>
      </g>
     </g>
    </g>
    <g id="ytick_5">
     <g id="line2d_11">
      <g>
       <use style="stroke:#000000;stroke-width:0.6;" x="57.6" xlink:href="#me8752f4048" y="143.014381"/>
      </g>
     </g>
     <g id="text_12">
      <!-- $\mathdefault{2.15\times10^{0}}$ -->
      <g transform="translate(0.1 146.813599)scale(0.1 -0.1)">
       <use transform="translate(0 0.765625)" xlink:href="#DejaVuSans-50"/>
       <use transform="translate(63.623047 0.765625)" xlink:href="#DejaVuSans-46"/>
       <use transform="translate(95.410156 0.765625)" xlink:href="#DejaVuSans-49"/>
       <use transform="translate(159.033203 0.765625)" xlink:href="#DejaVuSans-53"/>
       <use transform="translate(242.138672 0.765625)" xlink:href="#DejaVuSans-215"/>
       <use transform="translate(345.410156 0.765625)" xlink:href="#DejaVuSans-49"/>
       <use transform="translate(409.033203 0.765625)" xlink:href="#DejaVuSans-48"/>
       <use transform="translate(473.613281 39.046875)scale(0.7)" xlink:href="#DejaVuSans-48"/>
      </g>
     </g>
    </g>
    <g id="ytick_6">
     <g id="line2d_12">
      <g>
       <use style="stroke:#000000;stroke-width:0.6;" x="57.6" xlink:href="#me8752f4048" y="108.242534"/>
      </g>
     </g>
     <g id="text_13">
      <!-- $\mathdefault{2.2\times10^{0}}$ -->
      <g transform="translate(6.4 112.041753)scale(0.1 -0.1)">
       <use transform="translate(0 0.765625)" xlink:href="#DejaVuSans-50"/>
       <use transform="translate(63.623047 0.765625)" xlink:href="#DejaVuSans-46"/>
       <use transform="translate(95.332031 0.765625)" xlink:href="#DejaVuSans-50"/>
       <use transform="translate(178.4375 0.765625)" xlink:href="#DejaVuSans-215"/>
       <use transform="translate(281.708984 0.765625)" xlink:href="#DejaVuSans-49"/>
       <use transform="translate(345.332031 0.765625)" xlink:href="#DejaVuSans-48"/>
       <use transform="translate(409.912109 39.046875)scale(0.7)" xlink:href="#DejaVuSans-48"/>
      </g>
     </g>
    </g>
    <g id="ytick_7">
     <g id="line2d_13">
      <g>
       <use style="stroke:#000000;stroke-width:0.6;" x="57.6" xlink:href="#me8752f4048" y="74.252144"/>
      </g>
     </g>
     <g id="text_14">
      <!-- $\mathdefault{2.25\times10^{0}}$ -->
      <g transform="translate(0.1 78.051363)scale(0.1 -0.1)">
       <use transform="translate(0 0.765625)" xlink:href="#DejaVuSans-50"/>
       <use transform="translate(63.623047 0.765625)" xlink:href="#DejaVuSans-46"/>
       <use transform="translate(95.332031 0.765625)" xlink:href="#DejaVuSans-50"/>
       <use transform="translate(158.955078 0.765625)" xlink:href="#DejaVuSans-53"/>
       <use transform="translate(242.060547 0.765625)" xlink:href="#DejaVuSans-215"/>
       <use transform="translate(345.332031 0.765625)" xlink:href="#DejaVuSans-49"/>
       <use transform="translate(408.955078 0.765625)" xlink:href="#DejaVuSans-48"/>
       <use transform="translate(473.535156 39.046875)scale(0.7)" xlink:href="#DejaVuSans-48"/>
      </g>
     </g>
    </g>
    <g id="text_15">
     <!-- loss -->
     <defs>
      <path d="M 9.421875 75.984375 
L 18.40625 75.984375 
L 18.40625 0 
L 9.421875 0 
z
" id="DejaVuSans-108"/>
      <path d="M 44.28125 53.078125 
L 44.28125 44.578125 
Q 40.484375 46.53125 36.375 47.5 
Q 32.28125 48.484375 27.875 48.484375 
Q 21.1875 48.484375 17.84375 46.4375 
Q 14.5 44.390625 14.5 40.28125 
Q 14.5 37.15625 16.890625 35.375 
Q 19.28125 33.59375 26.515625 31.984375 
L 29.59375 31.296875 
Q 39.15625 29.25 43.1875 25.515625 
Q 47.21875 21.78125 47.21875 15.09375 
Q 47.21875 7.46875 41.1875 3.015625 
Q 35.15625 -1.421875 24.609375 -1.421875 
Q 20.21875 -1.421875 15.453125 -0.5625 
Q 10.6875 0.296875 5.421875 2 
L 5.421875 11.28125 
Q 10.40625 8.6875 15.234375 7.390625 
Q 20.0625 6.109375 24.8125 6.109375 
Q 31.15625 6.109375 34.5625 8.28125 
Q 37.984375 10.453125 37.984375 14.40625 
Q 37.984375 18.0625 35.515625 20.015625 
Q 33.0625 21.96875 24.703125 23.78125 
L 21.578125 24.515625 
Q 13.234375 26.265625 9.515625 29.90625 
Q 5.8125 33.546875 5.8125 39.890625 
Q 5.8125 47.609375 11.28125 51.796875 
Q 16.75 56 26.8125 56 
Q 31.78125 56 36.171875 55.265625 
Q 40.578125 54.546875 44.28125 53.078125 
z
" id="DejaVuSans-115"/>
     </defs>
     <g transform="translate(-5.979687 184.185812)rotate(-90)scale(0.1 -0.1)">
      <use xlink:href="#DejaVuSans-108"/>
      <use x="27.783203" xlink:href="#DejaVuSans-111"/>
      <use x="88.964844" xlink:href="#DejaVuSans-115"/>
      <use x="141.064453" xlink:href="#DejaVuSans-115"/>
     </g>
    </g>
   </g>
   <g id="line2d_14">
    <path clip-path="url(#p428632352d)" d="M 73.832727 53.568 
L 74.482686 90.932179 
L 75.132645 113.037929 
L 76.107584 136.660688 
L 77.082523 153.742904 
L 78.057461 166.207904 
L 78.70742 172.57461 
L 79.682359 179.637461 
L 80.332318 183.100521 
L 80.982277 185.786894 
L 81.957215 188.353694 
L 82.607174 189.390418 
L 83.257133 190.287978 
L 83.907093 190.820084 
L 84.882031 191.04834 
L 85.207011 190.910497 
L 85.53199 191.005503 
L 86.181949 190.731682 
L 87.156888 189.533424 
L 87.806847 188.513266 
L 88.781785 186.677798 
L 89.106765 186.400458 
L 89.431744 185.580144 
L 89.756724 185.251129 
L 90.406683 184.098905 
L 90.731663 184.038345 
L 91.056642 183.705844 
L 91.381622 183.18912 
L 92.35656 182.5038 
L 92.68154 182.748938 
L 93.331499 182.789217 
L 93.656478 183.301221 
L 93.981458 183.519636 
L 94.956396 184.940076 
L 95.606355 186.198559 
L 96.906274 189.035051 
L 97.556233 190.920108 
L 97.881212 191.645971 
L 98.531171 193.447499 
L 99.831089 196.962425 
L 100.156069 198.399464 
L 100.481048 199.136121 
L 101.780966 203.541466 
L 103.405864 208.345752 
L 103.730844 208.895657 
L 104.055823 209.890986 
L 104.380803 209.991174 
L 104.705782 210.397744 
L 105.030762 211.416083 
L 105.355741 211.758951 
L 106.980639 215.091681 
L 107.955577 217.711599 
L 108.605536 218.606775 
L 108.930516 219.556862 
L 109.255495 219.859163 
L 110.555414 221.730419 
L 110.880393 222.029119 
L 111.530352 223.354211 
L 111.855332 223.614771 
L 112.180311 224.149807 
L 112.505291 224.325355 
L 115.755086 228.439665 
L 116.080066 228.737336 
L 117.055004 230.11361 
L 117.704963 230.87728 
L 118.029943 230.952676 
L 120.629779 234.050121 
L 120.954758 233.934623 
L 121.604717 234.34121 
L 122.254676 234.836923 
L 122.579656 235.322266 
L 123.229615 235.876724 
L 123.879574 236.600138 
L 124.204554 236.556812 
L 124.529533 236.743415 
L 125.179492 237.653537 
L 125.504472 237.73861 
L 126.154431 237.587908 
L 126.80439 238.078736 
L 128.104308 239.584768 
L 128.754267 240.342113 
L 129.079247 240.493767 
L 129.404226 240.955176 
L 129.729206 241.190165 
L 130.379165 242.007406 
L 131.029124 243.18509 
L 131.354103 243.436214 
L 132.004062 244.447403 
L 132.329042 244.975064 
L 132.654021 245.120844 
L 132.979001 245.953704 
L 133.953939 247.062457 
L 134.603898 247.349246 
L 134.928878 247.734314 
L 135.903817 248.180103 
L 136.228796 248.57087 
L 136.553776 248.579042 
L 137.203735 249.712973 
L 137.853694 249.8308 
L 138.178673 250.575562 
L 138.828632 251.001285 
L 139.153612 251.566629 
L 139.478591 251.843796 
L 139.803571 252.349695 
L 140.12855 252.441201 
L 140.45353 252.90338 
L 140.778509 252.716918 
L 141.428468 253.60561 
L 141.753448 253.72068 
L 142.728387 254.880183 
L 143.053366 255.059151 
L 143.378346 255.081398 
L 144.028305 255.84637 
L 144.353284 256.073122 
L 144.678264 256.01403 
L 145.003243 256.723378 
L 145.653202 257.462004 
L 145.978182 258.074255 
L 146.303161 258.228288 
L 146.628141 258.210422 
L 146.95312 258.715407 
L 147.603079 258.777209 
L 147.928059 259.037824 
L 148.253038 259.082757 
L 149.552957 260.038847 
L 149.877936 260.530114 
L 150.202916 260.64072 
L 150.527895 260.98492 
L 150.852875 261.0034 
L 151.177854 261.27524 
L 151.502834 261.128952 
L 151.827813 261.811699 
L 152.477772 262.460842 
L 153.77769 263.435473 
L 154.10267 263.807425 
L 154.427649 263.854579 
L 154.752629 264.066361 
L 155.077609 263.977579 
L 156.052547 264.589761 
L 156.377527 265.149756 
L 156.702506 265.333186 
L 157.027486 265.304009 
L 158.652383 265.814181 
L 159.627322 266.940095 
L 159.952301 266.982813 
L 160.92724 267.471276 
L 161.252219 268.020854 
L 161.577199 268.224715 
L 162.227158 268.230322 
L 162.552138 268.058501 
L 163.202097 268.873907 
L 163.527076 268.81293 
L 164.177035 269.278887 
L 164.502015 269.215272 
L 164.826994 269.606749 
L 165.151974 269.572979 
L 165.801933 270.030243 
L 166.126912 270.136973 
L 166.451892 270.638052 
L 166.776871 270.573499 
L 167.101851 270.771824 
L 167.75181 271.430733 
L 168.07679 271.554568 
L 168.726749 271.974426 
L 169.701687 272.403059 
L 170.676626 272.410768 
L 171.001605 272.683569 
L 171.326585 272.609124 
L 171.651564 272.936358 
L 171.976544 272.783017 
L 172.301523 273.048676 
L 172.626503 273.083512 
L 172.951482 273.45544 
L 173.276462 273.42252 
L 173.926421 273.522689 
L 174.57638 274.3651 
L 174.90136 274.449515 
L 175.226339 274.379976 
L 175.876298 274.604319 
L 176.201278 274.522217 
L 176.851237 274.9198 
L 177.501196 275.009178 
L 179.451073 275.605637 
L 179.776052 275.597038 
L 180.101032 275.899868 
L 180.426011 275.800947 
L 181.075971 276.258009 
L 181.72593 276.240705 
L 182.050909 276.600718 
L 182.700868 276.847947 
L 183.350827 277.318176 
L 183.675807 277.102785 
L 184.000786 277.485368 
L 184.325766 277.40364 
L 184.975725 277.86853 
L 185.300704 277.755166 
L 185.625684 278.019372 
L 186.925602 278.482104 
L 187.250581 278.758622 
L 187.900541 278.592234 
L 188.22552 278.981533 
L 188.5505 279.138855 
L 188.875479 279.022158 
L 189.200459 279.34488 
L 189.525438 279.194185 
L 189.850418 279.307242 
L 190.175397 279.723991 
L 190.500377 279.700917 
L 191.475315 279.995288 
L 191.800295 279.78065 
L 192.125274 280.004375 
L 194.075152 280.351737 
L 194.400131 280.330775 
L 194.725111 280.536227 
L 195.05009 280.18511 
L 195.37507 280.6316 
L 196.350008 280.566365 
L 196.674988 280.68185 
L 196.999967 280.49049 
L 197.974906 280.851773 
L 198.299885 280.750008 
L 198.624865 280.827666 
L 198.949844 280.685703 
L 199.274824 280.87876 
L 199.599803 280.837216 
L 199.924783 281.126517 
L 200.249762 281.171271 
L 200.574742 281.472332 
L 200.899722 281.501426 
L 201.224701 281.32464 
L 202.19964 281.331325 
L 202.849599 281.630318 
L 203.499558 281.321093 
L 203.824537 281.692905 
L 204.474496 281.834188 
L 205.124455 281.878998 
L 205.449435 282.05469 
L 205.774414 281.898722 
L 206.099394 282.295433 
L 206.749353 281.947218 
L 207.074333 282.131141 
L 207.399312 281.907644 
L 207.724292 282.266739 
L 208.69923 282.189031 
L 209.02421 282.46441 
L 209.349189 282.575791 
L 209.674169 282.287911 
L 210.324128 282.671248 
L 210.974087 282.528185 
L 211.299066 282.729945 
L 212.274005 282.511539 
L 212.598984 282.764138 
L 213.248943 282.833571 
L 213.573923 283.143562 
L 213.898903 283.004875 
L 215.198821 283.469063 
L 215.5238 283.28223 
L 216.173759 283.541954 
L 216.498739 283.748816 
L 216.823718 283.80478 
L 217.473677 283.626635 
L 218.123636 284.007682 
L 218.773595 283.700959 
L 219.423554 284.295276 
L 220.723473 284.423116 
L 221.048452 284.665626 
L 221.373432 284.365643 
L 221.698411 284.804798 
L 222.023391 284.847197 
L 222.34837 284.636158 
L 222.67335 284.819897 
L 222.998329 284.749251 
L 223.648288 285.020304 
L 223.973268 284.875417 
L 224.623227 284.977674 
L 224.948206 284.694614 
L 225.598165 284.965844 
L 226.898084 285.07923 
L 227.223063 284.969209 
L 227.548043 285.300491 
L 229.17294 285.300794 
L 229.822899 285.528842 
L 230.472858 285.403333 
L 230.797838 285.495525 
L 231.122817 285.361613 
L 231.447797 285.585678 
L 232.097756 285.53567 
L 232.422735 285.786674 
L 233.072695 285.614909 
L 233.397674 285.861395 
L 233.722654 285.79384 
L 234.047633 285.587364 
L 234.372613 285.830315 
L 234.697592 285.531882 
L 235.347551 285.921653 
L 235.672531 285.571167 
L 235.99751 285.856338 
L 236.647469 285.765766 
L 236.972449 286.119147 
L 237.297428 286.189873 
L 237.947387 286.131403 
L 238.272367 286.464235 
L 238.597346 286.098291 
L 239.247305 286.491752 
L 239.897265 286.174296 
L 240.222244 286.472724 
L 240.547224 286.23294 
L 240.872203 286.241183 
L 241.197183 286.447783 
L 242.172121 286.215276 
L 242.497101 286.301936 
L 242.82208 286.601943 
L 243.14706 286.458165 
L 243.472039 286.447075 
L 243.797019 286.628213 
L 244.121998 286.465829 
L 244.771957 286.611001 
L 245.096937 286.518704 
L 245.421916 286.901914 
L 246.071876 286.790685 
L 246.396855 286.968686 
L 246.721835 286.693197 
L 247.046814 286.795269 
L 247.371794 286.625514 
L 247.696773 286.875234 
L 248.021753 286.671629 
L 248.671712 286.929037 
L 248.996691 286.718115 
L 249.321671 286.769992 
L 249.64665 286.584176 
L 249.97163 286.743651 
L 250.296609 286.751732 
L 250.621589 286.949017 
L 251.271548 287.004781 
L 251.596527 287.264768 
L 251.921507 287.090092 
L 252.246486 287.095196 
L 252.571466 287.460237 
L 252.896446 287.274109 
L 253.221425 287.463404 
L 253.546405 287.792212 
L 253.871384 287.285412 
L 254.521343 287.644359 
L 254.846323 287.746481 
L 255.171302 288.060201 
L 255.496282 288.091049 
L 255.821261 287.597543 
L 256.146241 288.017263 
L 257.121179 287.989796 
L 257.446159 288.114568 
L 257.771138 288.377169 
L 258.421097 288.116907 
L 258.746077 288.127131 
L 259.071057 288.473642 
L 259.396036 288.353286 
L 259.721016 288.535095 
L 260.045995 288.539503 
L 260.370975 288.252255 
L 260.695954 288.529363 
L 261.670893 288.292815 
L 261.995872 288.583354 
L 262.320852 288.509929 
L 262.645831 288.7333 
L 262.970811 288.435369 
L 263.62077 288.969379 
L 264.595708 288.725643 
L 265.245667 288.493413 
L 268.170483 287.486054 
L 268.495463 287.86497 
L 269.145422 287.598209 
L 269.470401 288.061112 
L 269.795381 288.036682 
L 270.12036 288.53632 
L 270.770319 288.427455 
L 271.095299 288.709307 
L 271.420278 288.600012 
L 272.395217 289.005702 
L 272.720197 289.040263 
L 273.695135 288.658358 
L 274.020115 288.696448 
L 274.345094 288.472014 
L 274.670074 288.849763 
L 274.995053 288.586294 
L 275.969992 289.217397 
L 276.294971 289.051679 
L 276.94493 289.394806 
L 277.26991 289.245454 
L 277.594889 289.627716 
L 277.919869 289.263383 
L 278.244848 289.554902 
L 278.894808 289.520608 
L 279.219787 289.346126 
L 279.544767 289.320799 
L 279.869746 289.606938 
L 280.194726 289.42161 
L 280.519705 289.785686 
L 281.169664 289.788184 
L 281.494644 289.989742 
L 283.119541 290.311445 
L 283.7695 290.517696 
L 284.09448 290.204986 
L 284.419459 290.415868 
L 285.394398 289.808933 
L 285.719378 290.056563 
L 286.044357 289.780031 
L 286.369337 289.861286 
L 287.344275 289.699091 
L 288.319214 290.132412 
L 288.644193 289.788473 
L 289.294152 289.91457 
L 289.619132 289.787665 
L 290.59407 289.981445 
L 290.91905 289.777138 
L 291.569009 289.855867 
L 292.868927 289.537016 
L 293.518886 288.938664 
L 294.168845 289.08197 
L 294.493825 288.889807 
L 295.143784 288.976433 
L 295.793743 289.172753 
L 296.118722 288.976655 
L 296.768681 289.093294 
L 297.093661 289.010453 
L 297.74362 289.179099 
L 298.0686 289.035241 
L 298.393579 289.061811 
L 298.718559 289.209023 
L 300.018477 289.10126 
L 300.668436 288.809142 
L 300.993415 289.075868 
L 301.318395 289.020827 
L 301.968354 288.594294 
L 303.268272 288.612384 
L 303.593251 288.706577 
L 303.918231 288.616719 
L 304.24321 288.798167 
L 304.56819 288.585055 
L 305.543129 288.643234 
L 306.193088 288.44943 
L 306.518067 288.523598 
L 307.168026 287.972675 
L 307.493006 288.05455 
L 307.817985 287.898634 
L 308.142965 288.403501 
L 308.467944 288.148439 
L 308.792924 288.172871 
L 309.117903 288.333875 
L 309.442883 288.192285 
L 309.767862 288.196687 
L 310.092842 288.357921 
L 310.417821 288.226498 
L 310.742801 288.231966 
L 311.067781 287.905934 
L 311.39276 288.297836 
L 311.71774 288.134763 
L 312.042719 288.203279 
L 314.317576 287.392392 
L 314.642555 287.830979 
L 315.617494 288.179908 
L 315.942473 288.451542 
L 316.917412 288.726947 
L 317.242391 288.573949 
L 317.567371 288.868804 
L 317.892351 288.717081 
L 318.21733 288.698449 
L 318.54231 289.010218 
L 318.867289 288.944079 
L 319.517248 289.278574 
L 319.842228 289.115668 
L 320.167207 289.201834 
L 320.492187 289.413037 
L 320.817166 289.273647 
L 321.792105 289.740145 
L 322.117084 289.238407 
L 322.442064 289.531295 
L 323.741982 289.816823 
L 324.066962 289.619533 
L 324.716921 289.837354 
L 325.0419 289.800788 
L 325.36688 289.966337 
L 326.016839 290.005257 
L 326.341818 289.768561 
L 326.666798 289.823564 
L 326.991777 289.630899 
L 327.316757 290.051524 
L 327.641736 289.988452 
L 327.966716 290.130111 
L 328.291695 289.874808 
L 328.941654 289.899392 
L 329.266634 289.940583 
L 329.591613 289.752964 
L 329.916593 289.880812 
L 330.241572 289.46914 
L 330.566552 289.671466 
L 330.891532 289.554032 
L 331.216511 289.942974 
L 331.541491 289.684869 
L 332.516429 290.168608 
L 333.166388 290.391154 
L 333.816347 290.467353 
L 334.141327 290.69675 
L 334.466306 290.443691 
L 334.791286 290.673151 
L 335.766224 290.9541 
L 336.416183 291.074614 
L 336.741163 291.15499 
L 337.066143 291.042026 
L 337.391122 291.189683 
L 337.716102 291.464344 
L 338.366061 291.23534 
L 338.69104 291.299494 
L 339.340999 291.199697 
L 339.665979 290.903685 
L 339.990958 290.422788 
L 340.640917 290.729548 
L 340.965897 290.66548 
L 341.290876 290.966152 
L 341.940835 290.907319 
L 342.590794 291.041963 
L 342.915774 291.028163 
L 343.240753 291.245765 
L 343.565733 291.206875 
L 343.890713 290.868582 
L 344.540672 291.319428 
L 344.865651 291.252689 
L 345.84059 291.404378 
L 346.490549 291.599085 
L 346.815528 291.918746 
L 347.140508 291.714881 
L 347.465487 291.868159 
L 350.065324 292.11286 
L 350.390303 292.30894 
L 350.715283 292.311446 
L 351.040262 292.190203 
L 351.690221 292.380702 
L 352.34018 292.290653 
L 352.990139 292.483503 
L 353.315119 292.467839 
L 353.640098 292.712156 
L 353.965078 292.604249 
L 354.940016 292.846333 
L 355.589975 292.459935 
L 355.914955 292.785148 
L 357.214873 292.826194 
L 357.539853 292.536478 
L 357.864832 292.716085 
L 358.189812 292.676515 
L 358.514791 292.813077 
L 358.839771 292.734387 
L 359.48973 292.875529 
L 359.814709 292.638677 
L 360.139689 292.841602 
L 360.789648 292.770145 
L 361.114627 292.891032 
L 361.764586 292.733513 
L 362.414545 292.944479 
L 362.739525 292.911061 
L 363.064505 293.031158 
L 363.389484 292.917087 
L 363.714464 293.152505 
L 364.364423 292.992889 
L 365.98932 293.089504 
L 366.3143 293.25449 
L 366.639279 293.293443 
L 366.964259 292.977347 
L 367.289238 293.195263 
L 367.614218 293.205794 
L 368.264177 293.030466 
L 368.914136 293.047898 
L 369.564095 293.085758 
L 370.214054 292.847873 
L 370.539034 293.07861 
L 371.838952 293.190015 
L 372.163931 293.115392 
L 373.463849 293.386407 
L 373.788829 293.295786 
L 374.113808 293.564278 
L 374.438788 292.995901 
L 374.763767 293.319036 
L 375.413726 293.236587 
L 375.738706 293.498188 
L 376.063686 293.105237 
L 376.388665 293.463098 
L 377.363604 293.639522 
L 377.688583 293.876021 
L 378.338542 293.766658 
L 378.663522 293.718915 
L 378.988501 293.91991 
L 379.63846 293.74573 
L 380.288419 293.916586 
L 380.613399 293.747416 
L 380.938378 293.837259 
L 381.263358 294.166653 
L 381.588337 293.990748 
L 381.913317 294.107954 
L 382.238296 293.980778 
L 382.563276 294.247431 
L 382.888256 293.98228 
L 383.213235 294.204036 
L 383.538215 294.263189 
L 384.188174 294.059991 
L 384.513153 294.36977 
L 384.838133 294.250594 
L 385.163112 294.289986 
L 385.488092 294.443151 
L 385.813071 294.400409 
L 386.138051 294.553513 
L 386.46303 294.453518 
L 386.78801 294.6296 
L 387.112989 294.561471 
L 387.437969 294.205221 
L 387.762948 294.556834 
L 388.412907 294.579426 
L 388.737887 294.471485 
L 389.387846 294.644073 
L 389.712826 294.402058 
L 390.037805 294.666058 
L 390.362785 294.679627 
L 391.012744 294.41542 
L 391.337723 294.453026 
L 391.662703 294.719278 
L 391.987682 294.829299 
L 392.637641 294.516247 
L 392.962621 294.607297 
L 393.2876 294.929704 
L 393.61258 294.779692 
L 393.937559 295.119274 
L 394.587518 294.776362 
L 395.562457 295.18324 
L 395.887437 295.276327 
L 396.212416 295.166367 
L 396.537396 295.383306 
L 396.862375 295.186628 
L 397.512334 295.378128 
L 398.487273 295.488 
L 398.487273 295.488 
" style="fill:none;stroke:#1f77b4;stroke-linecap:square;stroke-width:1.5;"/>
   </g>
   <g id="patch_3">
    <path d="M 57.6 307.584 
L 57.6 41.472 
" style="fill:none;stroke:#000000;stroke-linecap:square;stroke-linejoin:miter;stroke-width:0.8;"/>
   </g>
   <g id="patch_4">
    <path d="M 414.72 307.584 
L 414.72 41.472 
" style="fill:none;stroke:#000000;stroke-linecap:square;stroke-linejoin:miter;stroke-width:0.8;"/>
   </g>
   <g id="patch_5">
    <path d="M 57.6 307.584 
L 414.72 307.584 
" style="fill:none;stroke:#000000;stroke-linecap:square;stroke-linejoin:miter;stroke-width:0.8;"/>
   </g>
   <g id="patch_6">
    <path d="M 57.6 41.472 
L 414.72 41.472 
" style="fill:none;stroke:#000000;stroke-linecap:square;stroke-linejoin:miter;stroke-width:0.8;"/>
   </g>
   <g id="text_16">
    <!-- Train loss -->
    <defs>
     <path d="M -0.296875 72.90625 
L 61.375 72.90625 
L 61.375 64.59375 
L 35.5 64.59375 
L 35.5 0 
L 25.59375 0 
L 25.59375 64.59375 
L -0.296875 64.59375 
z
" id="DejaVuSans-84"/>
     <path d="M 41.109375 46.296875 
Q 39.59375 47.171875 37.8125 47.578125 
Q 36.03125 48 33.890625 48 
Q 26.265625 48 22.1875 43.046875 
Q 18.109375 38.09375 18.109375 28.8125 
L 18.109375 0 
L 9.078125 0 
L 9.078125 54.6875 
L 18.109375 54.6875 
L 18.109375 46.1875 
Q 20.953125 51.171875 25.484375 53.578125 
Q 30.03125 56 36.53125 56 
Q 37.453125 56 38.578125 55.875 
Q 39.703125 55.765625 41.0625 55.515625 
z
" id="DejaVuSans-114"/>
     <path d="M 34.28125 27.484375 
Q 23.390625 27.484375 19.1875 25 
Q 14.984375 22.515625 14.984375 16.5 
Q 14.984375 11.71875 18.140625 8.90625 
Q 21.296875 6.109375 26.703125 6.109375 
Q 34.1875 6.109375 38.703125 11.40625 
Q 43.21875 16.703125 43.21875 25.484375 
L 43.21875 27.484375 
z
M 52.203125 31.203125 
L 52.203125 0 
L 43.21875 0 
L 43.21875 8.296875 
Q 40.140625 3.328125 35.546875 0.953125 
Q 30.953125 -1.421875 24.3125 -1.421875 
Q 15.921875 -1.421875 10.953125 3.296875 
Q 6 8.015625 6 15.921875 
Q 6 25.140625 12.171875 29.828125 
Q 18.359375 34.515625 30.609375 34.515625 
L 43.21875 34.515625 
L 43.21875 35.40625 
Q 43.21875 41.609375 39.140625 45 
Q 35.0625 48.390625 27.6875 48.390625 
Q 23 48.390625 18.546875 47.265625 
Q 14.109375 46.140625 10.015625 43.890625 
L 10.015625 52.203125 
Q 14.9375 54.109375 19.578125 55.046875 
Q 24.21875 56 28.609375 56 
Q 40.484375 56 46.34375 49.84375 
Q 52.203125 43.703125 52.203125 31.203125 
z
" id="DejaVuSans-97"/>
     <path d="M 9.421875 54.6875 
L 18.40625 54.6875 
L 18.40625 0 
L 9.421875 0 
z
M 9.421875 75.984375 
L 18.40625 75.984375 
L 18.40625 64.59375 
L 9.421875 64.59375 
z
" id="DejaVuSans-105"/>
     <path d="M 54.890625 33.015625 
L 54.890625 0 
L 45.90625 0 
L 45.90625 32.71875 
Q 45.90625 40.484375 42.875 44.328125 
Q 39.84375 48.1875 33.796875 48.1875 
Q 26.515625 48.1875 22.3125 43.546875 
Q 18.109375 38.921875 18.109375 30.90625 
L 18.109375 0 
L 9.078125 0 
L 9.078125 54.6875 
L 18.109375 54.6875 
L 18.109375 46.1875 
Q 21.34375 51.125 25.703125 53.5625 
Q 30.078125 56 35.796875 56 
Q 45.21875 56 50.046875 50.171875 
Q 54.890625 44.34375 54.890625 33.015625 
z
" id="DejaVuSans-110"/>
     <path id="DejaVuSans-32"/>
    </defs>
    <g transform="translate(207.399375 35.472)scale(0.12 -0.12)">
     <use xlink:href="#DejaVuSans-84"/>
     <use x="60.865234" xlink:href="#DejaVuSans-114"/>
     <use x="101.978516" xlink:href="#DejaVuSans-97"/>
     <use x="163.257812" xlink:href="#DejaVuSans-105"/>
     <use x="191.041016" xlink:href="#DejaVuSans-110"/>
     <use x="254.419922" xlink:href="#DejaVuSans-32"/>
     <use x="286.207031" xlink:href="#DejaVuSans-108"/>
     <use x="313.990234" xlink:href="#DejaVuSans-111"/>
     <use x="375.171875" xlink:href="#DejaVuSans-115"/>
     <use x="427.271484" xlink:href="#DejaVuSans-115"/>
    </g>
   </g>
  </g>
 </g>
 <defs>
  <clipPath id="p428632352d">
   <rect height="266.112" width="357.12" x="57.6" y="41.472"/>
  </clipPath>
 </defs>
</svg>
