<?xml version="1.0" encoding="utf-8" standalone="no"?>
<!DOCTYPE svg PUBLIC "-//W3C//DTD SVG 1.1//EN"
  "http://www.w3.org/Graphics/SVG/1.1/DTD/svg11.dtd">
<!-- Created with matplotlib (https://matplotlib.org/) -->
<svg height="345.6pt" version="1.1" viewBox="0 0 460.8 345.6" width="460.8pt" xmlns="http://www.w3.org/2000/svg" xmlns:xlink="http://www.w3.org/1999/xlink">
 <defs>
  <style type="text/css">
*{stroke-linecap:butt;stroke-linejoin:round;}
  </style>
 </defs>
 <g id="figure_1">
  <g id="patch_1">
   <path d="M 0 345.6 
L 460.8 345.6 
L 460.8 0 
L 0 0 
z
" style="fill:#ffffff;"/>
  </g>
  <g id="axes_1">
   <g id="patch_2">
    <path d="M 57.6 307.584 
L 414.72 307.584 
L 414.72 41.472 
L 57.6 41.472 
z
" style="fill:#ffffff;"/>
   </g>
   <g id="matplotlib.axis_1">
    <g id="xtick_1">
     <g id="line2d_1">
      <defs>
       <path d="M 0 0 
L 0 3.5 
" id="ma8526a92b3" style="stroke:#000000;stroke-width:0.8;"/>
      </defs>
      <g>
       <use style="stroke:#000000;stroke-width:0.8;" x="73.832727" xlink:href="#ma8526a92b3" y="307.584"/>
      </g>
     </g>
     <g id="text_1">
      <!-- 0 -->
      <defs>
       <path d="M 31.78125 66.40625 
Q 24.171875 66.40625 20.328125 58.90625 
Q 16.5 51.421875 16.5 36.375 
Q 16.5 21.390625 20.328125 13.890625 
Q 24.171875 6.390625 31.78125 6.390625 
Q 39.453125 6.390625 43.28125 13.890625 
Q 47.125 21.390625 47.125 36.375 
Q 47.125 51.421875 43.28125 58.90625 
Q 39.453125 66.40625 31.78125 66.40625 
z
M 31.78125 74.21875 
Q 44.046875 74.21875 50.515625 64.515625 
Q 56.984375 54.828125 56.984375 36.375 
Q 56.984375 17.96875 50.515625 8.265625 
Q 44.046875 -1.421875 31.78125 -1.421875 
Q 19.53125 -1.421875 13.0625 8.265625 
Q 6.59375 17.96875 6.59375 36.375 
Q 6.59375 54.828125 13.0625 64.515625 
Q 19.53125 74.21875 31.78125 74.21875 
z
" id="DejaVuSans-48"/>
      </defs>
      <g transform="translate(70.651477 322.182437)scale(0.1 -0.1)">
       <use xlink:href="#DejaVuSans-48"/>
      </g>
     </g>
    </g>
    <g id="xtick_2">
     <g id="line2d_2">
      <g>
       <use style="stroke:#000000;stroke-width:0.8;" x="138.828632" xlink:href="#ma8526a92b3" y="307.584"/>
      </g>
     </g>
     <g id="text_2">
      <!-- 200 -->
      <defs>
       <path d="M 19.1875 8.296875 
L 53.609375 8.296875 
L 53.609375 0 
L 7.328125 0 
L 7.328125 8.296875 
Q 12.9375 14.109375 22.625 23.890625 
Q 32.328125 33.6875 34.8125 36.53125 
Q 39.546875 41.84375 41.421875 45.53125 
Q 43.3125 49.21875 43.3125 52.78125 
Q 43.3125 58.59375 39.234375 62.25 
Q 35.15625 65.921875 28.609375 65.921875 
Q 23.96875 65.921875 18.8125 64.3125 
Q 13.671875 62.703125 7.8125 59.421875 
L 7.8125 69.390625 
Q 13.765625 71.78125 18.9375 73 
Q 24.125 74.21875 28.421875 74.21875 
Q 39.75 74.21875 46.484375 68.546875 
Q 53.21875 62.890625 53.21875 53.421875 
Q 53.21875 48.921875 51.53125 44.890625 
Q 49.859375 40.875 45.40625 35.40625 
Q 44.1875 33.984375 37.640625 27.21875 
Q 31.109375 20.453125 19.1875 8.296875 
z
" id="DejaVuSans-50"/>
      </defs>
      <g transform="translate(129.284882 322.182437)scale(0.1 -0.1)">
       <use xlink:href="#DejaVuSans-50"/>
       <use x="63.623047" xlink:href="#DejaVuSans-48"/>
       <use x="127.246094" xlink:href="#DejaVuSans-48"/>
      </g>
     </g>
    </g>
    <g id="xtick_3">
     <g id="line2d_3">
      <g>
       <use style="stroke:#000000;stroke-width:0.8;" x="203.824537" xlink:href="#ma8526a92b3" y="307.584"/>
      </g>
     </g>
     <g id="text_3">
      <!-- 400 -->
      <defs>
       <path d="M 37.796875 64.3125 
L 12.890625 25.390625 
L 37.796875 25.390625 
z
M 35.203125 72.90625 
L 47.609375 72.90625 
L 47.609375 25.390625 
L 58.015625 25.390625 
L 58.015625 17.1875 
L 47.609375 17.1875 
L 47.609375 0 
L 37.796875 0 
L 37.796875 17.1875 
L 4.890625 17.1875 
L 4.890625 26.703125 
z
" id="DejaVuSans-52"/>
      </defs>
      <g transform="translate(194.280787 322.182437)scale(0.1 -0.1)">
       <use xlink:href="#DejaVuSans-52"/>
       <use x="63.623047" xlink:href="#DejaVuSans-48"/>
       <use x="127.246094" xlink:href="#DejaVuSans-48"/>
      </g>
     </g>
    </g>
    <g id="xtick_4">
     <g id="line2d_4">
      <g>
       <use style="stroke:#000000;stroke-width:0.8;" x="268.820442" xlink:href="#ma8526a92b3" y="307.584"/>
      </g>
     </g>
     <g id="text_4">
      <!-- 600 -->
      <defs>
       <path d="M 33.015625 40.375 
Q 26.375 40.375 22.484375 35.828125 
Q 18.609375 31.296875 18.609375 23.390625 
Q 18.609375 15.53125 22.484375 10.953125 
Q 26.375 6.390625 33.015625 6.390625 
Q 39.65625 6.390625 43.53125 10.953125 
Q 47.40625 15.53125 47.40625 23.390625 
Q 47.40625 31.296875 43.53125 35.828125 
Q 39.65625 40.375 33.015625 40.375 
z
M 52.59375 71.296875 
L 52.59375 62.3125 
Q 48.875 64.0625 45.09375 64.984375 
Q 41.3125 65.921875 37.59375 65.921875 
Q 27.828125 65.921875 22.671875 59.328125 
Q 17.53125 52.734375 16.796875 39.40625 
Q 19.671875 43.65625 24.015625 45.921875 
Q 28.375 48.1875 33.59375 48.1875 
Q 44.578125 48.1875 50.953125 41.515625 
Q 57.328125 34.859375 57.328125 23.390625 
Q 57.328125 12.15625 50.6875 5.359375 
Q 44.046875 -1.421875 33.015625 -1.421875 
Q 20.359375 -1.421875 13.671875 8.265625 
Q 6.984375 17.96875 6.984375 36.375 
Q 6.984375 53.65625 15.1875 63.9375 
Q 23.390625 74.21875 37.203125 74.21875 
Q 40.921875 74.21875 44.703125 73.484375 
Q 48.484375 72.75 52.59375 71.296875 
z
" id="DejaVuSans-54"/>
      </defs>
      <g transform="translate(259.276692 322.182437)scale(0.1 -0.1)">
       <use xlink:href="#DejaVuSans-54"/>
       <use x="63.623047" xlink:href="#DejaVuSans-48"/>
       <use x="127.246094" xlink:href="#DejaVuSans-48"/>
      </g>
     </g>
    </g>
    <g id="xtick_5">
     <g id="line2d_5">
      <g>
       <use style="stroke:#000000;stroke-width:0.8;" x="333.816347" xlink:href="#ma8526a92b3" y="307.584"/>
      </g>
     </g>
     <g id="text_5">
      <!-- 800 -->
      <defs>
       <path d="M 31.78125 34.625 
Q 24.75 34.625 20.71875 30.859375 
Q 16.703125 27.09375 16.703125 20.515625 
Q 16.703125 13.921875 20.71875 10.15625 
Q 24.75 6.390625 31.78125 6.390625 
Q 38.8125 6.390625 42.859375 10.171875 
Q 46.921875 13.96875 46.921875 20.515625 
Q 46.921875 27.09375 42.890625 30.859375 
Q 38.875 34.625 31.78125 34.625 
z
M 21.921875 38.8125 
Q 15.578125 40.375 12.03125 44.71875 
Q 8.5 49.078125 8.5 55.328125 
Q 8.5 64.0625 14.71875 69.140625 
Q 20.953125 74.21875 31.78125 74.21875 
Q 42.671875 74.21875 48.875 69.140625 
Q 55.078125 64.0625 55.078125 55.328125 
Q 55.078125 49.078125 51.53125 44.71875 
Q 48 40.375 41.703125 38.8125 
Q 48.828125 37.15625 52.796875 32.3125 
Q 56.78125 27.484375 56.78125 20.515625 
Q 56.78125 9.90625 50.3125 4.234375 
Q 43.84375 -1.421875 31.78125 -1.421875 
Q 19.734375 -1.421875 13.25 4.234375 
Q 6.78125 9.90625 6.78125 20.515625 
Q 6.78125 27.484375 10.78125 32.3125 
Q 14.796875 37.15625 21.921875 38.8125 
z
M 18.3125 54.390625 
Q 18.3125 48.734375 21.84375 45.5625 
Q 25.390625 42.390625 31.78125 42.390625 
Q 38.140625 42.390625 41.71875 45.5625 
Q 45.3125 48.734375 45.3125 54.390625 
Q 45.3125 60.0625 41.71875 63.234375 
Q 38.140625 66.40625 31.78125 66.40625 
Q 25.390625 66.40625 21.84375 63.234375 
Q 18.3125 60.0625 18.3125 54.390625 
z
" id="DejaVuSans-56"/>
      </defs>
      <g transform="translate(324.272597 322.182437)scale(0.1 -0.1)">
       <use xlink:href="#DejaVuSans-56"/>
       <use x="63.623047" xlink:href="#DejaVuSans-48"/>
       <use x="127.246094" xlink:href="#DejaVuSans-48"/>
      </g>
     </g>
    </g>
    <g id="xtick_6">
     <g id="line2d_6">
      <g>
       <use style="stroke:#000000;stroke-width:0.8;" x="398.812252" xlink:href="#ma8526a92b3" y="307.584"/>
      </g>
     </g>
     <g id="text_6">
      <!-- 1000 -->
      <defs>
       <path d="M 12.40625 8.296875 
L 28.515625 8.296875 
L 28.515625 63.921875 
L 10.984375 60.40625 
L 10.984375 69.390625 
L 28.421875 72.90625 
L 38.28125 72.90625 
L 38.28125 8.296875 
L 54.390625 8.296875 
L 54.390625 0 
L 12.40625 0 
z
" id="DejaVuSans-49"/>
      </defs>
      <g transform="translate(386.087252 322.182437)scale(0.1 -0.1)">
       <use xlink:href="#DejaVuSans-49"/>
       <use x="63.623047" xlink:href="#DejaVuSans-48"/>
       <use x="127.246094" xlink:href="#DejaVuSans-48"/>
       <use x="190.869141" xlink:href="#DejaVuSans-48"/>
      </g>
     </g>
    </g>
    <g id="text_7">
     <!-- epoch -->
     <defs>
      <path d="M 56.203125 29.59375 
L 56.203125 25.203125 
L 14.890625 25.203125 
Q 15.484375 15.921875 20.484375 11.0625 
Q 25.484375 6.203125 34.421875 6.203125 
Q 39.59375 6.203125 44.453125 7.46875 
Q 49.3125 8.734375 54.109375 11.28125 
L 54.109375 2.78125 
Q 49.265625 0.734375 44.1875 -0.34375 
Q 39.109375 -1.421875 33.890625 -1.421875 
Q 20.796875 -1.421875 13.15625 6.1875 
Q 5.515625 13.8125 5.515625 26.8125 
Q 5.515625 40.234375 12.765625 48.109375 
Q 20.015625 56 32.328125 56 
Q 43.359375 56 49.78125 48.890625 
Q 56.203125 41.796875 56.203125 29.59375 
z
M 47.21875 32.234375 
Q 47.125 39.59375 43.09375 43.984375 
Q 39.0625 48.390625 32.421875 48.390625 
Q 24.90625 48.390625 20.390625 44.140625 
Q 15.875 39.890625 15.1875 32.171875 
z
" id="DejaVuSans-101"/>
      <path d="M 18.109375 8.203125 
L 18.109375 -20.796875 
L 9.078125 -20.796875 
L 9.078125 54.6875 
L 18.109375 54.6875 
L 18.109375 46.390625 
Q 20.953125 51.265625 25.265625 53.625 
Q 29.59375 56 35.59375 56 
Q 45.5625 56 51.78125 48.09375 
Q 58.015625 40.1875 58.015625 27.296875 
Q 58.015625 14.40625 51.78125 6.484375 
Q 45.5625 -1.421875 35.59375 -1.421875 
Q 29.59375 -1.421875 25.265625 0.953125 
Q 20.953125 3.328125 18.109375 8.203125 
z
M 48.6875 27.296875 
Q 48.6875 37.203125 44.609375 42.84375 
Q 40.53125 48.484375 33.40625 48.484375 
Q 26.265625 48.484375 22.1875 42.84375 
Q 18.109375 37.203125 18.109375 27.296875 
Q 18.109375 17.390625 22.1875 11.75 
Q 26.265625 6.109375 33.40625 6.109375 
Q 40.53125 6.109375 44.609375 11.75 
Q 48.6875 17.390625 48.6875 27.296875 
z
" id="DejaVuSans-112"/>
      <path d="M 30.609375 48.390625 
Q 23.390625 48.390625 19.1875 42.75 
Q 14.984375 37.109375 14.984375 27.296875 
Q 14.984375 17.484375 19.15625 11.84375 
Q 23.34375 6.203125 30.609375 6.203125 
Q 37.796875 6.203125 41.984375 11.859375 
Q 46.1875 17.53125 46.1875 27.296875 
Q 46.1875 37.015625 41.984375 42.703125 
Q 37.796875 48.390625 30.609375 48.390625 
z
M 30.609375 56 
Q 42.328125 56 49.015625 48.375 
Q 55.71875 40.765625 55.71875 27.296875 
Q 55.71875 13.875 49.015625 6.21875 
Q 42.328125 -1.421875 30.609375 -1.421875 
Q 18.84375 -1.421875 12.171875 6.21875 
Q 5.515625 13.875 5.515625 27.296875 
Q 5.515625 40.765625 12.171875 48.375 
Q 18.84375 56 30.609375 56 
z
" id="DejaVuSans-111"/>
      <path d="M 48.78125 52.59375 
L 48.78125 44.1875 
Q 44.96875 46.296875 41.140625 47.34375 
Q 37.3125 48.390625 33.40625 48.390625 
Q 24.65625 48.390625 19.8125 42.84375 
Q 14.984375 37.3125 14.984375 27.296875 
Q 14.984375 17.28125 19.8125 11.734375 
Q 24.65625 6.203125 33.40625 6.203125 
Q 37.3125 6.203125 41.140625 7.25 
Q 44.96875 8.296875 48.78125 10.40625 
L 48.78125 2.09375 
Q 45.015625 0.34375 40.984375 -0.53125 
Q 36.96875 -1.421875 32.421875 -1.421875 
Q 20.0625 -1.421875 12.78125 6.34375 
Q 5.515625 14.109375 5.515625 27.296875 
Q 5.515625 40.671875 12.859375 48.328125 
Q 20.21875 56 33.015625 56 
Q 37.15625 56 41.109375 55.140625 
Q 45.0625 54.296875 48.78125 52.59375 
z
" id="DejaVuSans-99"/>
      <path d="M 54.890625 33.015625 
L 54.890625 0 
L 45.90625 0 
L 45.90625 32.71875 
Q 45.90625 40.484375 42.875 44.328125 
Q 39.84375 48.1875 33.796875 48.1875 
Q 26.515625 48.1875 22.3125 43.546875 
Q 18.109375 38.921875 18.109375 30.90625 
L 18.109375 0 
L 9.078125 0 
L 9.078125 75.984375 
L 18.109375 75.984375 
L 18.109375 46.1875 
Q 21.34375 51.125 25.703125 53.5625 
Q 30.078125 56 35.796875 56 
Q 45.21875 56 50.046875 50.171875 
Q 54.890625 44.34375 54.890625 33.015625 
z
" id="DejaVuSans-104"/>
     </defs>
     <g transform="translate(220.931875 335.860562)scale(0.1 -0.1)">
      <use xlink:href="#DejaVuSans-101"/>
      <use x="61.523438" xlink:href="#DejaVuSans-112"/>
      <use x="125" xlink:href="#DejaVuSans-111"/>
      <use x="186.181641" xlink:href="#DejaVuSans-99"/>
      <use x="241.162109" xlink:href="#DejaVuSans-104"/>
     </g>
    </g>
   </g>
   <g id="matplotlib.axis_2">
    <g id="ytick_1">
     <g id="line2d_7">
      <defs>
       <path d="M 0 0 
L -2 0 
" id="mfb3293ad9f" style="stroke:#000000;stroke-width:0.6;"/>
      </defs>
      <g>
       <use style="stroke:#000000;stroke-width:0.6;" x="57.6" xlink:href="#mfb3293ad9f" y="295.586565"/>
      </g>
     </g>
     <g id="text_8">
      <!-- $\mathdefault{1.7\times10^{0}}$ -->
      <defs>
       <path d="M 10.6875 12.40625 
L 21 12.40625 
L 21 0 
L 10.6875 0 
z
" id="DejaVuSans-46"/>
       <path d="M 8.203125 72.90625 
L 55.078125 72.90625 
L 55.078125 68.703125 
L 28.609375 0 
L 18.3125 0 
L 43.21875 64.59375 
L 8.203125 64.59375 
z
" id="DejaVuSans-55"/>
       <path d="M 70.125 53.71875 
L 47.796875 31.296875 
L 70.125 8.984375 
L 64.3125 3.078125 
L 41.890625 25.484375 
L 19.484375 3.078125 
L 13.71875 8.984375 
L 35.984375 31.296875 
L 13.71875 53.71875 
L 19.484375 59.625 
L 41.890625 37.203125 
L 64.3125 59.625 
z
" id="DejaVuSans-215"/>
      </defs>
      <g transform="translate(6.4 299.385783)scale(0.1 -0.1)">
       <use transform="translate(0 0.765625)" xlink:href="#DejaVuSans-49"/>
       <use transform="translate(63.623047 0.765625)" xlink:href="#DejaVuSans-46"/>
       <use transform="translate(95.300781 0.765625)" xlink:href="#DejaVuSans-55"/>
       <use transform="translate(178.40625 0.765625)" xlink:href="#DejaVuSans-215"/>
       <use transform="translate(281.677734 0.765625)" xlink:href="#DejaVuSans-49"/>
       <use transform="translate(345.300781 0.765625)" xlink:href="#DejaVuSans-48"/>
       <use transform="translate(409.880859 39.046875)scale(0.7)" xlink:href="#DejaVuSans-48"/>
      </g>
     </g>
    </g>
    <g id="ytick_2">
     <g id="line2d_8">
      <g>
       <use style="stroke:#000000;stroke-width:0.6;" x="57.6" xlink:href="#mfb3293ad9f" y="249.993882"/>
      </g>
     </g>
     <g id="text_9">
      <!-- $\mathdefault{1.8\times10^{0}}$ -->
      <g transform="translate(6.4 253.793101)scale(0.1 -0.1)">
       <use transform="translate(0 0.765625)" xlink:href="#DejaVuSans-49"/>
       <use transform="translate(63.623047 0.765625)" xlink:href="#DejaVuSans-46"/>
       <use transform="translate(95.378906 0.765625)" xlink:href="#DejaVuSans-56"/>
       <use transform="translate(178.484375 0.765625)" xlink:href="#DejaVuSans-215"/>
       <use transform="translate(281.755859 0.765625)" xlink:href="#DejaVuSans-49"/>
       <use transform="translate(345.378906 0.765625)" xlink:href="#DejaVuSans-48"/>
       <use transform="translate(409.958984 39.046875)scale(0.7)" xlink:href="#DejaVuSans-48"/>
      </g>
     </g>
    </g>
    <g id="ytick_3">
     <g id="line2d_9">
      <g>
       <use style="stroke:#000000;stroke-width:0.6;" x="57.6" xlink:href="#mfb3293ad9f" y="206.866905"/>
      </g>
     </g>
     <g id="text_10">
      <!-- $\mathdefault{1.9\times10^{0}}$ -->
      <defs>
       <path d="M 10.984375 1.515625 
L 10.984375 10.5 
Q 14.703125 8.734375 18.5 7.8125 
Q 22.3125 6.890625 25.984375 6.890625 
Q 35.75 6.890625 40.890625 13.453125 
Q 46.046875 20.015625 46.78125 33.40625 
Q 43.953125 29.203125 39.59375 26.953125 
Q 35.25 24.703125 29.984375 24.703125 
Q 19.046875 24.703125 12.671875 31.3125 
Q 6.296875 37.9375 6.296875 49.421875 
Q 6.296875 60.640625 12.9375 67.421875 
Q 19.578125 74.21875 30.609375 74.21875 
Q 43.265625 74.21875 49.921875 64.515625 
Q 56.59375 54.828125 56.59375 36.375 
Q 56.59375 19.140625 48.40625 8.859375 
Q 40.234375 -1.421875 26.421875 -1.421875 
Q 22.703125 -1.421875 18.890625 -0.6875 
Q 15.09375 0.046875 10.984375 1.515625 
z
M 30.609375 32.421875 
Q 37.25 32.421875 41.125 36.953125 
Q 45.015625 41.5 45.015625 49.421875 
Q 45.015625 57.28125 41.125 61.84375 
Q 37.25 66.40625 30.609375 66.40625 
Q 23.96875 66.40625 20.09375 61.84375 
Q 16.21875 57.28125 16.21875 49.421875 
Q 16.21875 41.5 20.09375 36.953125 
Q 23.96875 32.421875 30.609375 32.421875 
z
" id="DejaVuSans-57"/>
      </defs>
      <g transform="translate(6.4 210.666124)scale(0.1 -0.1)">
       <use transform="translate(0 0.765625)" xlink:href="#DejaVuSans-49"/>
       <use transform="translate(63.623047 0.765625)" xlink:href="#DejaVuSans-46"/>
       <use transform="translate(95.410156 0.765625)" xlink:href="#DejaVuSans-57"/>
       <use transform="translate(178.515625 0.765625)" xlink:href="#DejaVuSans-215"/>
       <use transform="translate(281.787109 0.765625)" xlink:href="#DejaVuSans-49"/>
       <use transform="translate(345.410156 0.765625)" xlink:href="#DejaVuSans-48"/>
       <use transform="translate(409.990234 39.046875)scale(0.7)" xlink:href="#DejaVuSans-48"/>
      </g>
     </g>
    </g>
    <g id="ytick_4">
     <g id="line2d_10">
      <g>
       <use style="stroke:#000000;stroke-width:0.6;" x="57.6" xlink:href="#mfb3293ad9f" y="165.952563"/>
      </g>
     </g>
     <g id="text_11">
      <!-- $\mathdefault{2\times10^{0}}$ -->
      <g transform="translate(16 169.751782)scale(0.1 -0.1)">
       <use transform="translate(0 0.765625)" xlink:href="#DejaVuSans-50"/>
       <use transform="translate(83.105469 0.765625)" xlink:href="#DejaVuSans-215"/>
       <use transform="translate(186.376953 0.765625)" xlink:href="#DejaVuSans-49"/>
       <use transform="translate(250 0.765625)" xlink:href="#DejaVuSans-48"/>
       <use transform="translate(314.580078 39.046875)scale(0.7)" xlink:href="#DejaVuSans-48"/>
      </g>
     </g>
    </g>
    <g id="ytick_5">
     <g id="line2d_11">
      <g>
       <use style="stroke:#000000;stroke-width:0.6;" x="57.6" xlink:href="#mfb3293ad9f" y="127.034856"/>
      </g>
     </g>
     <g id="text_12">
      <!-- $\mathdefault{2.1\times10^{0}}$ -->
      <g transform="translate(6.4 130.834074)scale(0.1 -0.1)">
       <use transform="translate(0 0.765625)" xlink:href="#DejaVuSans-50"/>
       <use transform="translate(63.623047 0.765625)" xlink:href="#DejaVuSans-46"/>
       <use transform="translate(95.410156 0.765625)" xlink:href="#DejaVuSans-49"/>
       <use transform="translate(178.515625 0.765625)" xlink:href="#DejaVuSans-215"/>
       <use transform="translate(281.787109 0.765625)" xlink:href="#DejaVuSans-49"/>
       <use transform="translate(345.410156 0.765625)" xlink:href="#DejaVuSans-48"/>
       <use transform="translate(409.990234 39.046875)scale(0.7)" xlink:href="#DejaVuSans-48"/>
      </g>
     </g>
    </g>
    <g id="ytick_6">
     <g id="line2d_12">
      <g>
       <use style="stroke:#000000;stroke-width:0.6;" x="57.6" xlink:href="#mfb3293ad9f" y="89.927943"/>
      </g>
     </g>
     <g id="text_13">
      <!-- $\mathdefault{2.2\times10^{0}}$ -->
      <g transform="translate(6.4 93.727161)scale(0.1 -0.1)">
       <use transform="translate(0 0.765625)" xlink:href="#DejaVuSans-50"/>
       <use transform="translate(63.623047 0.765625)" xlink:href="#DejaVuSans-46"/>
       <use transform="translate(95.332031 0.765625)" xlink:href="#DejaVuSans-50"/>
       <use transform="translate(178.4375 0.765625)" xlink:href="#DejaVuSans-215"/>
       <use transform="translate(281.708984 0.765625)" xlink:href="#DejaVuSans-49"/>
       <use transform="translate(345.332031 0.765625)" xlink:href="#DejaVuSans-48"/>
       <use transform="translate(409.912109 39.046875)scale(0.7)" xlink:href="#DejaVuSans-48"/>
      </g>
     </g>
    </g>
    <g id="ytick_7">
     <g id="line2d_13">
      <g>
       <use style="stroke:#000000;stroke-width:0.6;" x="57.6" xlink:href="#mfb3293ad9f" y="54.470782"/>
      </g>
     </g>
     <g id="text_14">
      <!-- $\mathdefault{2.3\times10^{0}}$ -->
      <defs>
       <path d="M 40.578125 39.3125 
Q 47.65625 37.796875 51.625 33 
Q 55.609375 28.21875 55.609375 21.1875 
Q 55.609375 10.40625 48.1875 4.484375 
Q 40.765625 -1.421875 27.09375 -1.421875 
Q 22.515625 -1.421875 17.65625 -0.515625 
Q 12.796875 0.390625 7.625 2.203125 
L 7.625 11.71875 
Q 11.71875 9.328125 16.59375 8.109375 
Q 21.484375 6.890625 26.8125 6.890625 
Q 36.078125 6.890625 40.9375 10.546875 
Q 45.796875 14.203125 45.796875 21.1875 
Q 45.796875 27.640625 41.28125 31.265625 
Q 36.765625 34.90625 28.71875 34.90625 
L 20.21875 34.90625 
L 20.21875 43.015625 
L 29.109375 43.015625 
Q 36.375 43.015625 40.234375 45.921875 
Q 44.09375 48.828125 44.09375 54.296875 
Q 44.09375 59.90625 40.109375 62.90625 
Q 36.140625 65.921875 28.71875 65.921875 
Q 24.65625 65.921875 20.015625 65.03125 
Q 15.375 64.15625 9.8125 62.3125 
L 9.8125 71.09375 
Q 15.4375 72.65625 20.34375 73.4375 
Q 25.25 74.21875 29.59375 74.21875 
Q 40.828125 74.21875 47.359375 69.109375 
Q 53.90625 64.015625 53.90625 55.328125 
Q 53.90625 49.265625 50.4375 45.09375 
Q 46.96875 40.921875 40.578125 39.3125 
z
" id="DejaVuSans-51"/>
      </defs>
      <g transform="translate(6.4 58.27)scale(0.1 -0.1)">
       <use transform="translate(0 0.765625)" xlink:href="#DejaVuSans-50"/>
       <use transform="translate(63.623047 0.765625)" xlink:href="#DejaVuSans-46"/>
       <use transform="translate(95.410156 0.765625)" xlink:href="#DejaVuSans-51"/>
       <use transform="translate(178.515625 0.765625)" xlink:href="#DejaVuSans-215"/>
       <use transform="translate(281.787109 0.765625)" xlink:href="#DejaVuSans-49"/>
       <use transform="translate(345.410156 0.765625)" xlink:href="#DejaVuSans-48"/>
       <use transform="translate(409.990234 39.046875)scale(0.7)" xlink:href="#DejaVuSans-48"/>
      </g>
     </g>
    </g>
    <g id="text_15">
     <!-- loss -->
     <defs>
      <path d="M 9.421875 75.984375 
L 18.40625 75.984375 
L 18.40625 0 
L 9.421875 0 
z
" id="DejaVuSans-108"/>
      <path d="M 44.28125 53.078125 
L 44.28125 44.578125 
Q 40.484375 46.53125 36.375 47.5 
Q 32.28125 48.484375 27.875 48.484375 
Q 21.1875 48.484375 17.84375 46.4375 
Q 14.5 44.390625 14.5 40.28125 
Q 14.5 37.15625 16.890625 35.375 
Q 19.28125 33.59375 26.515625 31.984375 
L 29.59375 31.296875 
Q 39.15625 29.25 43.1875 25.515625 
Q 47.21875 21.78125 47.21875 15.09375 
Q 47.21875 7.46875 41.1875 3.015625 
Q 35.15625 -1.421875 24.609375 -1.421875 
Q 20.21875 -1.421875 15.453125 -0.5625 
Q 10.6875 0.296875 5.421875 2 
L 5.421875 11.28125 
Q 10.40625 8.6875 15.234375 7.390625 
Q 20.0625 6.109375 24.8125 6.109375 
Q 31.15625 6.109375 34.5625 8.28125 
Q 37.984375 10.453125 37.984375 14.40625 
Q 37.984375 18.0625 35.515625 20.015625 
Q 33.0625 21.96875 24.703125 23.78125 
L 21.578125 24.515625 
Q 13.234375 26.265625 9.515625 29.90625 
Q 5.8125 33.546875 5.8125 39.890625 
Q 5.8125 47.609375 11.28125 51.796875 
Q 16.75 56 26.8125 56 
Q 31.78125 56 36.171875 55.265625 
Q 40.578125 54.546875 44.28125 53.078125 
z
" id="DejaVuSans-115"/>
     </defs>
     <g transform="translate(0.320312 184.185812)rotate(-90)scale(0.1 -0.1)">
      <use xlink:href="#DejaVuSans-108"/>
      <use x="27.783203" xlink:href="#DejaVuSans-111"/>
      <use x="88.964844" xlink:href="#DejaVuSans-115"/>
      <use x="141.064453" xlink:href="#DejaVuSans-115"/>
     </g>
    </g>
   </g>
   <g id="line2d_14">
    <path clip-path="url(#p0fd3b0f562)" d="M 73.832727 53.568 
L 76.107584 53.720937 
L 79.357379 53.988982 
L 80.007338 54.146628 
L 88.131826 55.368105 
L 92.35656 56.454002 
L 95.606355 57.624391 
L 97.881212 58.642895 
L 101.131007 60.517227 
L 102.755905 61.676849 
L 104.705782 63.290183 
L 106.655659 65.216603 
L 108.605536 67.455465 
L 110.880393 70.546387 
L 113.480229 74.70534 
L 116.730025 80.730535 
L 122.579656 91.730343 
L 124.529533 94.988917 
L 128.429287 100.887765 
L 130.379165 103.684611 
L 132.004062 105.903746 
L 135.903817 111.625096 
L 138.828632 116.546381 
L 143.703325 126.337299 
L 145.653202 130.59403 
L 146.628141 132.794105 
L 150.202916 140.864739 
L 151.177854 143.017495 
L 156.702506 155.199957 
L 160.92724 164.503236 
L 162.877117 168.71106 
L 163.852056 170.95996 
L 164.826994 172.974572 
L 168.726749 181.080223 
L 169.701687 183.025912 
L 176.526257 195.702234 
L 177.826175 197.755705 
L 180.101032 201.403668 
L 180.750991 202.389681 
L 181.40095 203.280706 
L 182.050909 204.151327 
L 182.375889 204.44612 
L 183.350827 206.061362 
L 186.275643 209.920973 
L 186.925602 210.646476 
L 187.900541 212.057609 
L 188.22552 212.179808 
L 188.875479 213.070868 
L 189.200459 213.308005 
L 189.850418 214.152214 
L 190.500377 214.779602 
L 190.825356 215.39312 
L 191.475315 215.857053 
L 192.125274 216.733784 
L 193.425192 218.07216 
L 194.075152 218.626906 
L 194.400131 219.109687 
L 194.725111 219.277667 
L 195.05009 219.861223 
L 195.37507 219.872584 
L 196.025029 220.744114 
L 197.324947 221.787682 
L 197.974906 222.532006 
L 198.299885 222.650566 
L 198.624865 223.126414 
L 198.949844 223.338637 
L 199.274824 223.695157 
L 199.599803 223.764932 
L 200.249762 224.504001 
L 200.899722 224.951145 
L 201.224701 225.470189 
L 202.19964 225.99552 
L 202.524619 226.4016 
L 203.174578 226.837532 
L 203.499558 227.314117 
L 203.824537 227.433117 
L 204.474496 228.147401 
L 204.799476 228.255046 
L 205.449435 228.829435 
L 206.424373 229.508265 
L 208.049271 230.81962 
L 208.374251 230.903176 
L 208.69923 231.401306 
L 209.349189 231.574167 
L 209.674169 231.920022 
L 209.999148 232.056736 
L 210.324128 232.482283 
L 210.974087 232.911815 
L 211.299066 232.847168 
L 211.949025 233.480088 
L 213.898903 234.857334 
L 214.223882 234.944679 
L 214.548862 235.223635 
L 214.873841 235.649951 
L 215.198821 235.549186 
L 215.5238 235.974466 
L 216.173759 236.330392 
L 216.498739 236.233908 
L 216.823718 236.457748 
L 217.148698 237.136086 
L 217.473677 237.190917 
L 217.798657 237.544542 
L 218.123636 237.534221 
L 218.448616 237.870198 
L 219.098575 238.321724 
L 219.423554 238.563338 
L 219.748534 238.548993 
L 220.073514 238.993001 
L 220.398493 238.961597 
L 220.723473 239.455607 
L 221.048452 239.222942 
L 221.698411 239.868164 
L 222.023391 239.855649 
L 222.67335 240.49457 
L 222.998329 240.635239 
L 223.323309 240.942583 
L 223.648288 240.883533 
L 224.948206 241.851778 
L 225.598165 241.756498 
L 225.923145 242.337305 
L 226.248124 242.557772 
L 226.573104 242.617801 
L 228.522981 243.789054 
L 228.847961 243.724702 
L 229.17294 244.024805 
L 229.49792 244.026737 
L 229.822899 244.31314 
L 230.147879 244.405618 
L 230.472858 244.913212 
L 231.772776 245.437762 
L 232.097756 245.817684 
L 232.422735 245.794739 
L 233.072695 246.182776 
L 233.397674 246.084259 
L 233.722654 246.52813 
L 234.697592 247.076771 
L 235.022572 247.039373 
L 235.347551 247.507394 
L 235.672531 247.470776 
L 235.99751 247.809485 
L 236.32249 247.692923 
L 236.647469 247.849556 
L 236.972449 248.196995 
L 237.297428 248.000531 
L 237.622408 248.550075 
L 238.922326 248.716515 
L 239.247305 249.163402 
L 240.222244 249.803238 
L 240.547224 249.635268 
L 241.197183 250.119779 
L 241.522162 250.372317 
L 241.847142 250.377747 
L 242.172121 250.633161 
L 243.14706 250.765069 
L 243.472039 251.275317 
L 243.797019 251.096036 
L 244.771957 252.081063 
L 245.096937 251.935125 
L 246.071876 252.445664 
L 246.396855 252.40867 
L 247.046814 253.059895 
L 247.371794 252.93479 
L 247.696773 253.11363 
L 248.346732 253.157999 
L 248.671712 253.799427 
L 248.996691 253.486141 
L 249.97163 254.260149 
L 250.296609 254.232636 
L 250.621589 254.609669 
L 251.596527 254.629419 
L 251.921507 255.275329 
L 252.246486 255.170412 
L 252.896446 255.26033 
L 253.221425 255.511032 
L 253.546405 255.409694 
L 253.871384 255.866325 
L 254.196364 255.721032 
L 254.521343 256.184721 
L 254.846323 256.105574 
L 255.171302 256.499165 
L 256.47122 256.524926 
L 257.121179 257.060875 
L 257.446159 257.235107 
L 257.771138 257.607072 
L 258.421097 257.592129 
L 259.396036 257.888502 
L 259.721016 258.344144 
L 260.370975 258.26113 
L 261.020934 258.434997 
L 261.345913 258.852442 
L 261.670893 258.569023 
L 262.320852 259.13157 
L 262.645831 259.217505 
L 262.970811 259.495438 
L 263.29579 259.558142 
L 263.945749 259.91038 
L 264.270729 259.455745 
L 264.595708 260.019568 
L 264.920688 259.974989 
L 265.570647 260.305476 
L 265.895627 260.480712 
L 266.545586 260.410901 
L 266.870565 260.682174 
L 267.195545 260.660909 
L 267.520524 261.113317 
L 267.845504 261.282113 
L 268.170483 261.306036 
L 268.820442 261.054775 
L 269.145422 261.117491 
L 269.470401 261.489073 
L 270.12036 261.711561 
L 270.44534 262.123258 
L 271.745258 262.554676 
L 272.070238 262.414898 
L 272.395217 262.778622 
L 272.720197 262.815892 
L 273.045176 263.053216 
L 274.345094 263.23869 
L 274.670074 263.486158 
L 274.995053 263.416289 
L 275.320033 263.780836 
L 275.645012 263.834018 
L 275.969992 264.005166 
L 276.619951 264.071463 
L 276.94493 264.417157 
L 277.594889 264.495313 
L 277.919869 264.39037 
L 278.244848 264.524213 
L 278.569828 264.437761 
L 278.894808 264.962317 
L 279.544767 265.267043 
L 279.869746 265.162635 
L 280.194726 265.360824 
L 280.519705 265.02339 
L 280.844685 265.549926 
L 281.169664 265.690478 
L 281.819623 265.751401 
L 282.144603 266.14341 
L 282.469582 265.993312 
L 282.794562 266.070139 
L 283.119541 265.926036 
L 283.444521 266.696544 
L 283.7695 266.492793 
L 284.09448 266.819513 
L 284.419459 266.896088 
L 284.744439 266.517942 
L 285.069419 266.877837 
L 285.394398 267.007977 
L 285.719378 267.323487 
L 286.044357 267.335518 
L 286.369337 267.092071 
L 286.694316 267.602557 
L 287.019296 267.879295 
L 287.344275 267.648749 
L 287.669255 267.94639 
L 287.994234 267.708033 
L 288.969173 268.328654 
L 289.619132 268.136555 
L 289.944111 268.497952 
L 290.269091 268.232662 
L 290.91905 268.988473 
L 291.569009 269.147912 
L 291.893989 268.862241 
L 292.218968 269.073036 
L 292.543948 268.878227 
L 293.193907 269.700434 
L 293.518886 269.583234 
L 293.843866 269.682513 
L 294.493825 269.486571 
L 295.143784 270.162732 
L 295.793743 270.481312 
L 296.118722 270.310685 
L 296.443702 270.332463 
L 296.768681 270.673695 
L 297.093661 270.805306 
L 297.41864 270.018268 
L 297.74362 271.062613 
L 298.0686 270.547828 
L 298.393579 271.188765 
L 298.718559 270.822501 
L 299.043538 271.408868 
L 299.693497 271.354727 
L 300.018477 271.669365 
L 300.343456 271.756471 
L 300.993415 271.53798 
L 301.318395 272.054981 
L 301.643374 271.934838 
L 301.968354 272.01449 
L 302.293333 272.261284 
L 303.268272 272.54434 
L 303.593251 272.094397 
L 303.918231 272.037767 
L 304.24321 272.385364 
L 304.56819 272.457234 
L 304.89317 272.250541 
L 305.543129 273.429761 
L 306.193088 273.49172 
L 306.518067 273.303981 
L 306.843047 273.679046 
L 307.168026 273.412274 
L 307.493006 273.902512 
L 307.817985 273.952575 
L 308.142965 273.845476 
L 308.467944 273.930954 
L 308.792924 274.226084 
L 309.117903 274.36824 
L 309.442883 273.660903 
L 309.767862 274.373775 
L 310.092842 274.493268 
L 310.417821 274.362595 
L 310.742801 274.557205 
L 311.39276 274.042644 
L 311.71774 274.500738 
L 312.042719 274.728264 
L 312.367699 274.762704 
L 312.692678 275.410292 
L 313.017658 275.229441 
L 313.342637 275.419986 
L 313.667617 275.289394 
L 313.992596 275.684693 
L 314.317576 274.913968 
L 314.642555 275.776041 
L 314.967535 275.52258 
L 315.292514 275.779351 
L 315.617494 275.701682 
L 315.942473 275.910866 
L 316.267453 275.500061 
L 316.592432 275.842817 
L 316.917412 275.893858 
L 317.242391 276.369341 
L 317.567371 276.313567 
L 318.21733 276.393727 
L 318.54231 276.306735 
L 318.867289 276.969855 
L 319.192269 277.103546 
L 319.842228 276.517421 
L 320.167207 276.609721 
L 320.492187 277.305227 
L 321.142146 277.247661 
L 321.467125 277.416154 
L 321.792105 277.413206 
L 322.117084 277.215772 
L 322.442064 277.389997 
L 323.092023 277.991823 
L 323.741982 277.880213 
L 324.066962 278.236144 
L 324.391941 278.009796 
L 324.716921 278.473026 
L 325.36688 278.720408 
L 325.691859 277.966536 
L 326.016839 278.146975 
L 326.341818 278.573926 
L 326.666798 278.7657 
L 326.991777 279.093795 
L 327.316757 278.65511 
L 327.641736 279.392919 
L 327.966716 279.128782 
L 328.291695 279.200264 
L 328.616675 279.571588 
L 328.941654 279.254047 
L 329.591613 279.765825 
L 329.916593 279.635198 
L 330.241572 279.964075 
L 331.541491 279.886021 
L 331.86647 279.600537 
L 332.516429 280.478258 
L 332.841409 280.634872 
L 333.816347 280.578028 
L 334.466306 280.823704 
L 334.791286 281.339412 
L 335.116265 281.349853 
L 335.441245 281.036718 
L 335.766224 281.2067 
L 336.741163 281.115808 
L 337.066143 281.590083 
L 337.391122 281.668942 
L 337.716102 281.44334 
L 338.041081 281.983067 
L 338.69104 282.239832 
L 339.01602 282.097815 
L 339.340999 282.232652 
L 339.665979 282.547557 
L 339.990958 282.655993 
L 340.315938 282.30702 
L 340.965897 282.403872 
L 341.290876 282.657964 
L 341.615856 282.46035 
L 341.940835 282.895577 
L 342.265815 283.069355 
L 342.590794 282.655562 
L 342.915774 283.288468 
L 343.240753 282.89624 
L 343.565733 283.367284 
L 343.890713 283.559429 
L 344.215692 283.528044 
L 344.865651 283.123751 
L 346.165569 284.049512 
L 346.490549 283.890961 
L 346.815528 284.078514 
L 347.140508 284.044298 
L 347.465487 284.459506 
L 348.440426 283.853738 
L 349.090385 285.007161 
L 349.415364 284.675147 
L 349.740344 284.891647 
L 350.065324 284.616252 
L 350.715283 285.077573 
L 351.690221 284.873839 
L 352.015201 285.068979 
L 352.34018 285.543605 
L 352.66516 285.653804 
L 352.990139 285.355875 
L 353.315119 285.587501 
L 353.640098 285.255854 
L 353.965078 285.888659 
L 354.290057 286.143926 
L 354.615037 285.945823 
L 354.940016 286.345962 
L 355.264996 286.022578 
L 355.914955 286.124864 
L 356.239934 286.562539 
L 356.564914 286.437962 
L 356.889894 286.770195 
L 357.214873 286.855504 
L 357.539853 286.050246 
L 357.864832 286.394603 
L 358.189812 286.234079 
L 358.514791 286.759074 
L 358.839771 287.014004 
L 359.16475 287.099019 
L 359.48973 286.981968 
L 360.139689 287.623845 
L 360.464668 287.215475 
L 360.789648 287.661465 
L 361.114627 287.431756 
L 361.439607 287.440759 
L 361.764586 287.827642 
L 362.089566 287.824483 
L 362.414545 287.960921 
L 362.739525 287.230083 
L 363.064505 287.792904 
L 363.389484 287.494369 
L 363.714464 288.1 
L 364.039443 288.422106 
L 364.364423 288.29469 
L 364.689402 288.475734 
L 365.014382 288.439229 
L 365.339361 288.062598 
L 365.664341 288.38754 
L 365.98932 288.940107 
L 366.639279 288.624336 
L 366.964259 289.200997 
L 367.289238 288.891146 
L 367.614218 289.042461 
L 367.939197 288.878413 
L 368.264177 288.489861 
L 368.589156 289.456697 
L 369.239115 289.339405 
L 369.564095 289.313115 
L 369.889075 289.497204 
L 370.214054 289.082529 
L 370.539034 289.664109 
L 371.188993 290.001436 
L 371.513972 289.658131 
L 371.838952 290.456127 
L 372.163931 289.94042 
L 372.488911 290.152524 
L 372.81389 290.115616 
L 373.13887 289.587989 
L 373.463849 290.228982 
L 373.788829 290.154738 
L 374.113808 290.672823 
L 374.438788 290.5675 
L 374.763767 290.656458 
L 375.088747 291.003429 
L 375.413726 290.840375 
L 375.738706 290.869574 
L 376.063686 290.77031 
L 376.388665 290.861565 
L 376.713645 290.616914 
L 377.038624 291.045653 
L 377.363604 290.794397 
L 377.688583 290.778402 
L 378.013563 291.296167 
L 378.338542 291.593778 
L 378.663522 291.451818 
L 378.988501 291.718506 
L 379.313481 291.63388 
L 379.63846 291.982551 
L 379.96344 291.341903 
L 380.288419 291.881719 
L 380.613399 291.394912 
L 380.938378 291.348387 
L 381.913317 292.172569 
L 382.238296 291.845908 
L 382.888256 292.720289 
L 383.538215 292.145367 
L 383.863194 292.683639 
L 384.188174 292.185936 
L 384.513153 292.964653 
L 384.838133 292.458562 
L 385.163112 292.582162 
L 385.488092 292.416115 
L 385.813071 292.952817 
L 386.138051 293.263224 
L 386.46303 292.713419 
L 386.78801 293.121936 
L 387.112989 292.607578 
L 387.437969 292.718225 
L 387.762948 293.20799 
L 388.087928 292.88387 
L 388.412907 293.244684 
L 388.737887 293.022342 
L 389.062867 293.776345 
L 389.387846 293.768438 
L 389.712826 293.433734 
L 390.037805 292.474458 
L 390.362785 293.289898 
L 390.687764 293.745199 
L 391.012744 293.57941 
L 391.337723 293.824366 
L 391.662703 293.817773 
L 391.987682 294.154756 
L 392.312662 293.962045 
L 392.637641 294.328181 
L 392.962621 294.250535 
L 393.2876 294.604037 
L 393.61258 294.617793 
L 394.262539 294.170768 
L 394.587518 294.783957 
L 394.912498 293.787353 
L 395.237477 295.160672 
L 395.562457 295.294936 
L 395.887437 294.974213 
L 396.212416 294.937691 
L 396.537396 295.371308 
L 396.862375 294.591648 
L 397.187355 294.585095 
L 397.512334 295.232661 
L 397.837314 295.10778 
L 398.162293 295.407742 
L 398.487273 295.488 
L 398.487273 295.488 
" style="fill:none;stroke:#1f77b4;stroke-linecap:square;stroke-width:1.5;"/>
   </g>
   <g id="patch_3">
    <path d="M 57.6 307.584 
L 57.6 41.472 
" style="fill:none;stroke:#000000;stroke-linecap:square;stroke-linejoin:miter;stroke-width:0.8;"/>
   </g>
   <g id="patch_4">
    <path d="M 414.72 307.584 
L 414.72 41.472 
" style="fill:none;stroke:#000000;stroke-linecap:square;stroke-linejoin:miter;stroke-width:0.8;"/>
   </g>
   <g id="patch_5">
    <path d="M 57.6 307.584 
L 414.72 307.584 
" style="fill:none;stroke:#000000;stroke-linecap:square;stroke-linejoin:miter;stroke-width:0.8;"/>
   </g>
   <g id="patch_6">
    <path d="M 57.6 41.472 
L 414.72 41.472 
" style="fill:none;stroke:#000000;stroke-linecap:square;stroke-linejoin:miter;stroke-width:0.8;"/>
   </g>
   <g id="text_16">
    <!-- Train loss -->
    <defs>
     <path d="M -0.296875 72.90625 
L 61.375 72.90625 
L 61.375 64.59375 
L 35.5 64.59375 
L 35.5 0 
L 25.59375 0 
L 25.59375 64.59375 
L -0.296875 64.59375 
z
" id="DejaVuSans-84"/>
     <path d="M 41.109375 46.296875 
Q 39.59375 47.171875 37.8125 47.578125 
Q 36.03125 48 33.890625 48 
Q 26.265625 48 22.1875 43.046875 
Q 18.109375 38.09375 18.109375 28.8125 
L 18.109375 0 
L 9.078125 0 
L 9.078125 54.6875 
L 18.109375 54.6875 
L 18.109375 46.1875 
Q 20.953125 51.171875 25.484375 53.578125 
Q 30.03125 56 36.53125 56 
Q 37.453125 56 38.578125 55.875 
Q 39.703125 55.765625 41.0625 55.515625 
z
" id="DejaVuSans-114"/>
     <path d="M 34.28125 27.484375 
Q 23.390625 27.484375 19.1875 25 
Q 14.984375 22.515625 14.984375 16.5 
Q 14.984375 11.71875 18.140625 8.90625 
Q 21.296875 6.109375 26.703125 6.109375 
Q 34.1875 6.109375 38.703125 11.40625 
Q 43.21875 16.703125 43.21875 25.484375 
L 43.21875 27.484375 
z
M 52.203125 31.203125 
L 52.203125 0 
L 43.21875 0 
L 43.21875 8.296875 
Q 40.140625 3.328125 35.546875 0.953125 
Q 30.953125 -1.421875 24.3125 -1.421875 
Q 15.921875 -1.421875 10.953125 3.296875 
Q 6 8.015625 6 15.921875 
Q 6 25.140625 12.171875 29.828125 
Q 18.359375 34.515625 30.609375 34.515625 
L 43.21875 34.515625 
L 43.21875 35.40625 
Q 43.21875 41.609375 39.140625 45 
Q 35.0625 48.390625 27.6875 48.390625 
Q 23 48.390625 18.546875 47.265625 
Q 14.109375 46.140625 10.015625 43.890625 
L 10.015625 52.203125 
Q 14.9375 54.109375 19.578125 55.046875 
Q 24.21875 56 28.609375 56 
Q 40.484375 56 46.34375 49.84375 
Q 52.203125 43.703125 52.203125 31.203125 
z
" id="DejaVuSans-97"/>
     <path d="M 9.421875 54.6875 
L 18.40625 54.6875 
L 18.40625 0 
L 9.421875 0 
z
M 9.421875 75.984375 
L 18.40625 75.984375 
L 18.40625 64.59375 
L 9.421875 64.59375 
z
" id="DejaVuSans-105"/>
     <path d="M 54.890625 33.015625 
L 54.890625 0 
L 45.90625 0 
L 45.90625 32.71875 
Q 45.90625 40.484375 42.875 44.328125 
Q 39.84375 48.1875 33.796875 48.1875 
Q 26.515625 48.1875 22.3125 43.546875 
Q 18.109375 38.921875 18.109375 30.90625 
L 18.109375 0 
L 9.078125 0 
L 9.078125 54.6875 
L 18.109375 54.6875 
L 18.109375 46.1875 
Q 21.34375 51.125 25.703125 53.5625 
Q 30.078125 56 35.796875 56 
Q 45.21875 56 50.046875 50.171875 
Q 54.890625 44.34375 54.890625 33.015625 
z
" id="DejaVuSans-110"/>
     <path id="DejaVuSans-32"/>
    </defs>
    <g transform="translate(207.399375 35.472)scale(0.12 -0.12)">
     <use xlink:href="#DejaVuSans-84"/>
     <use x="60.865234" xlink:href="#DejaVuSans-114"/>
     <use x="101.978516" xlink:href="#DejaVuSans-97"/>
     <use x="163.257812" xlink:href="#DejaVuSans-105"/>
     <use x="191.041016" xlink:href="#DejaVuSans-110"/>
     <use x="254.419922" xlink:href="#DejaVuSans-32"/>
     <use x="286.207031" xlink:href="#DejaVuSans-108"/>
     <use x="313.990234" xlink:href="#DejaVuSans-111"/>
     <use x="375.171875" xlink:href="#DejaVuSans-115"/>
     <use x="427.271484" xlink:href="#DejaVuSans-115"/>
    </g>
   </g>
  </g>
 </g>
 <defs>
  <clipPath id="p0fd3b0f562">
   <rect height="266.112" width="357.12" x="57.6" y="41.472"/>
  </clipPath>
 </defs>
</svg>
