<?xml version="1.0" encoding="utf-8" standalone="no"?>
<!DOCTYPE svg PUBLIC "-//W3C//DTD SVG 1.1//EN"
  "http://www.w3.org/Graphics/SVG/1.1/DTD/svg11.dtd">
<!-- Created with matplotlib (https://matplotlib.org/) -->
<svg height="345.6pt" version="1.1" viewBox="0 0 460.8 345.6" width="460.8pt" xmlns="http://www.w3.org/2000/svg" xmlns:xlink="http://www.w3.org/1999/xlink">
 <defs>
  <style type="text/css">
*{stroke-linecap:butt;stroke-linejoin:round;}
  </style>
 </defs>
 <g id="figure_1">
  <g id="patch_1">
   <path d="M 0 345.6 
L 460.8 345.6 
L 460.8 0 
L 0 0 
z
" style="fill:#ffffff;"/>
  </g>
  <g id="axes_1">
   <g id="patch_2">
    <path d="M 57.6 307.584 
L 414.72 307.584 
L 414.72 41.472 
L 57.6 41.472 
z
" style="fill:#ffffff;"/>
   </g>
   <g id="matplotlib.axis_1">
    <g id="xtick_1">
     <g id="line2d_1">
      <defs>
       <path d="M 0 0 
L 0 3.5 
" id="m37f89dd00a" style="stroke:#000000;stroke-width:0.8;"/>
      </defs>
      <g>
       <use style="stroke:#000000;stroke-width:0.8;" x="73.832727" xlink:href="#m37f89dd00a" y="307.584"/>
      </g>
     </g>
     <g id="text_1">
      <!-- 0 -->
      <defs>
       <path d="M 31.78125 66.40625 
Q 24.171875 66.40625 20.328125 58.90625 
Q 16.5 51.421875 16.5 36.375 
Q 16.5 21.390625 20.328125 13.890625 
Q 24.171875 6.390625 31.78125 6.390625 
Q 39.453125 6.390625 43.28125 13.890625 
Q 47.125 21.390625 47.125 36.375 
Q 47.125 51.421875 43.28125 58.90625 
Q 39.453125 66.40625 31.78125 66.40625 
z
M 31.78125 74.21875 
Q 44.046875 74.21875 50.515625 64.515625 
Q 56.984375 54.828125 56.984375 36.375 
Q 56.984375 17.96875 50.515625 8.265625 
Q 44.046875 -1.421875 31.78125 -1.421875 
Q 19.53125 -1.421875 13.0625 8.265625 
Q 6.59375 17.96875 6.59375 36.375 
Q 6.59375 54.828125 13.0625 64.515625 
Q 19.53125 74.21875 31.78125 74.21875 
z
" id="DejaVuSans-48"/>
      </defs>
      <g transform="translate(70.651477 322.182437)scale(0.1 -0.1)">
       <use xlink:href="#DejaVuSans-48"/>
      </g>
     </g>
    </g>
    <g id="xtick_2">
     <g id="line2d_2">
      <g>
       <use style="stroke:#000000;stroke-width:0.8;" x="138.828632" xlink:href="#m37f89dd00a" y="307.584"/>
      </g>
     </g>
     <g id="text_2">
      <!-- 200 -->
      <defs>
       <path d="M 19.1875 8.296875 
L 53.609375 8.296875 
L 53.609375 0 
L 7.328125 0 
L 7.328125 8.296875 
Q 12.9375 14.109375 22.625 23.890625 
Q 32.328125 33.6875 34.8125 36.53125 
Q 39.546875 41.84375 41.421875 45.53125 
Q 43.3125 49.21875 43.3125 52.78125 
Q 43.3125 58.59375 39.234375 62.25 
Q 35.15625 65.921875 28.609375 65.921875 
Q 23.96875 65.921875 18.8125 64.3125 
Q 13.671875 62.703125 7.8125 59.421875 
L 7.8125 69.390625 
Q 13.765625 71.78125 18.9375 73 
Q 24.125 74.21875 28.421875 74.21875 
Q 39.75 74.21875 46.484375 68.546875 
Q 53.21875 62.890625 53.21875 53.421875 
Q 53.21875 48.921875 51.53125 44.890625 
Q 49.859375 40.875 45.40625 35.40625 
Q 44.1875 33.984375 37.640625 27.21875 
Q 31.109375 20.453125 19.1875 8.296875 
z
" id="DejaVuSans-50"/>
      </defs>
      <g transform="translate(129.284882 322.182437)scale(0.1 -0.1)">
       <use xlink:href="#DejaVuSans-50"/>
       <use x="63.623047" xlink:href="#DejaVuSans-48"/>
       <use x="127.246094" xlink:href="#DejaVuSans-48"/>
      </g>
     </g>
    </g>
    <g id="xtick_3">
     <g id="line2d_3">
      <g>
       <use style="stroke:#000000;stroke-width:0.8;" x="203.824537" xlink:href="#m37f89dd00a" y="307.584"/>
      </g>
     </g>
     <g id="text_3">
      <!-- 400 -->
      <defs>
       <path d="M 37.796875 64.3125 
L 12.890625 25.390625 
L 37.796875 25.390625 
z
M 35.203125 72.90625 
L 47.609375 72.90625 
L 47.609375 25.390625 
L 58.015625 25.390625 
L 58.015625 17.1875 
L 47.609375 17.1875 
L 47.609375 0 
L 37.796875 0 
L 37.796875 17.1875 
L 4.890625 17.1875 
L 4.890625 26.703125 
z
" id="DejaVuSans-52"/>
      </defs>
      <g transform="translate(194.280787 322.182437)scale(0.1 -0.1)">
       <use xlink:href="#DejaVuSans-52"/>
       <use x="63.623047" xlink:href="#DejaVuSans-48"/>
       <use x="127.246094" xlink:href="#DejaVuSans-48"/>
      </g>
     </g>
    </g>
    <g id="xtick_4">
     <g id="line2d_4">
      <g>
       <use style="stroke:#000000;stroke-width:0.8;" x="268.820442" xlink:href="#m37f89dd00a" y="307.584"/>
      </g>
     </g>
     <g id="text_4">
      <!-- 600 -->
      <defs>
       <path d="M 33.015625 40.375 
Q 26.375 40.375 22.484375 35.828125 
Q 18.609375 31.296875 18.609375 23.390625 
Q 18.609375 15.53125 22.484375 10.953125 
Q 26.375 6.390625 33.015625 6.390625 
Q 39.65625 6.390625 43.53125 10.953125 
Q 47.40625 15.53125 47.40625 23.390625 
Q 47.40625 31.296875 43.53125 35.828125 
Q 39.65625 40.375 33.015625 40.375 
z
M 52.59375 71.296875 
L 52.59375 62.3125 
Q 48.875 64.0625 45.09375 64.984375 
Q 41.3125 65.921875 37.59375 65.921875 
Q 27.828125 65.921875 22.671875 59.328125 
Q 17.53125 52.734375 16.796875 39.40625 
Q 19.671875 43.65625 24.015625 45.921875 
Q 28.375 48.1875 33.59375 48.1875 
Q 44.578125 48.1875 50.953125 41.515625 
Q 57.328125 34.859375 57.328125 23.390625 
Q 57.328125 12.15625 50.6875 5.359375 
Q 44.046875 -1.421875 33.015625 -1.421875 
Q 20.359375 -1.421875 13.671875 8.265625 
Q 6.984375 17.96875 6.984375 36.375 
Q 6.984375 53.65625 15.1875 63.9375 
Q 23.390625 74.21875 37.203125 74.21875 
Q 40.921875 74.21875 44.703125 73.484375 
Q 48.484375 72.75 52.59375 71.296875 
z
" id="DejaVuSans-54"/>
      </defs>
      <g transform="translate(259.276692 322.182437)scale(0.1 -0.1)">
       <use xlink:href="#DejaVuSans-54"/>
       <use x="63.623047" xlink:href="#DejaVuSans-48"/>
       <use x="127.246094" xlink:href="#DejaVuSans-48"/>
      </g>
     </g>
    </g>
    <g id="xtick_5">
     <g id="line2d_5">
      <g>
       <use style="stroke:#000000;stroke-width:0.8;" x="333.816347" xlink:href="#m37f89dd00a" y="307.584"/>
      </g>
     </g>
     <g id="text_5">
      <!-- 800 -->
      <defs>
       <path d="M 31.78125 34.625 
Q 24.75 34.625 20.71875 30.859375 
Q 16.703125 27.09375 16.703125 20.515625 
Q 16.703125 13.921875 20.71875 10.15625 
Q 24.75 6.390625 31.78125 6.390625 
Q 38.8125 6.390625 42.859375 10.171875 
Q 46.921875 13.96875 46.921875 20.515625 
Q 46.921875 27.09375 42.890625 30.859375 
Q 38.875 34.625 31.78125 34.625 
z
M 21.921875 38.8125 
Q 15.578125 40.375 12.03125 44.71875 
Q 8.5 49.078125 8.5 55.328125 
Q 8.5 64.0625 14.71875 69.140625 
Q 20.953125 74.21875 31.78125 74.21875 
Q 42.671875 74.21875 48.875 69.140625 
Q 55.078125 64.0625 55.078125 55.328125 
Q 55.078125 49.078125 51.53125 44.71875 
Q 48 40.375 41.703125 38.8125 
Q 48.828125 37.15625 52.796875 32.3125 
Q 56.78125 27.484375 56.78125 20.515625 
Q 56.78125 9.90625 50.3125 4.234375 
Q 43.84375 -1.421875 31.78125 -1.421875 
Q 19.734375 -1.421875 13.25 4.234375 
Q 6.78125 9.90625 6.78125 20.515625 
Q 6.78125 27.484375 10.78125 32.3125 
Q 14.796875 37.15625 21.921875 38.8125 
z
M 18.3125 54.390625 
Q 18.3125 48.734375 21.84375 45.5625 
Q 25.390625 42.390625 31.78125 42.390625 
Q 38.140625 42.390625 41.71875 45.5625 
Q 45.3125 48.734375 45.3125 54.390625 
Q 45.3125 60.0625 41.71875 63.234375 
Q 38.140625 66.40625 31.78125 66.40625 
Q 25.390625 66.40625 21.84375 63.234375 
Q 18.3125 60.0625 18.3125 54.390625 
z
" id="DejaVuSans-56"/>
      </defs>
      <g transform="translate(324.272597 322.182437)scale(0.1 -0.1)">
       <use xlink:href="#DejaVuSans-56"/>
       <use x="63.623047" xlink:href="#DejaVuSans-48"/>
       <use x="127.246094" xlink:href="#DejaVuSans-48"/>
      </g>
     </g>
    </g>
    <g id="xtick_6">
     <g id="line2d_6">
      <g>
       <use style="stroke:#000000;stroke-width:0.8;" x="398.812252" xlink:href="#m37f89dd00a" y="307.584"/>
      </g>
     </g>
     <g id="text_6">
      <!-- 1000 -->
      <defs>
       <path d="M 12.40625 8.296875 
L 28.515625 8.296875 
L 28.515625 63.921875 
L 10.984375 60.40625 
L 10.984375 69.390625 
L 28.421875 72.90625 
L 38.28125 72.90625 
L 38.28125 8.296875 
L 54.390625 8.296875 
L 54.390625 0 
L 12.40625 0 
z
" id="DejaVuSans-49"/>
      </defs>
      <g transform="translate(386.087252 322.182437)scale(0.1 -0.1)">
       <use xlink:href="#DejaVuSans-49"/>
       <use x="63.623047" xlink:href="#DejaVuSans-48"/>
       <use x="127.246094" xlink:href="#DejaVuSans-48"/>
       <use x="190.869141" xlink:href="#DejaVuSans-48"/>
      </g>
     </g>
    </g>
    <g id="text_7">
     <!-- epoch -->
     <defs>
      <path d="M 56.203125 29.59375 
L 56.203125 25.203125 
L 14.890625 25.203125 
Q 15.484375 15.921875 20.484375 11.0625 
Q 25.484375 6.203125 34.421875 6.203125 
Q 39.59375 6.203125 44.453125 7.46875 
Q 49.3125 8.734375 54.109375 11.28125 
L 54.109375 2.78125 
Q 49.265625 0.734375 44.1875 -0.34375 
Q 39.109375 -1.421875 33.890625 -1.421875 
Q 20.796875 -1.421875 13.15625 6.1875 
Q 5.515625 13.8125 5.515625 26.8125 
Q 5.515625 40.234375 12.765625 48.109375 
Q 20.015625 56 32.328125 56 
Q 43.359375 56 49.78125 48.890625 
Q 56.203125 41.796875 56.203125 29.59375 
z
M 47.21875 32.234375 
Q 47.125 39.59375 43.09375 43.984375 
Q 39.0625 48.390625 32.421875 48.390625 
Q 24.90625 48.390625 20.390625 44.140625 
Q 15.875 39.890625 15.1875 32.171875 
z
" id="DejaVuSans-101"/>
      <path d="M 18.109375 8.203125 
L 18.109375 -20.796875 
L 9.078125 -20.796875 
L 9.078125 54.6875 
L 18.109375 54.6875 
L 18.109375 46.390625 
Q 20.953125 51.265625 25.265625 53.625 
Q 29.59375 56 35.59375 56 
Q 45.5625 56 51.78125 48.09375 
Q 58.015625 40.1875 58.015625 27.296875 
Q 58.015625 14.40625 51.78125 6.484375 
Q 45.5625 -1.421875 35.59375 -1.421875 
Q 29.59375 -1.421875 25.265625 0.953125 
Q 20.953125 3.328125 18.109375 8.203125 
z
M 48.6875 27.296875 
Q 48.6875 37.203125 44.609375 42.84375 
Q 40.53125 48.484375 33.40625 48.484375 
Q 26.265625 48.484375 22.1875 42.84375 
Q 18.109375 37.203125 18.109375 27.296875 
Q 18.109375 17.390625 22.1875 11.75 
Q 26.265625 6.109375 33.40625 6.109375 
Q 40.53125 6.109375 44.609375 11.75 
Q 48.6875 17.390625 48.6875 27.296875 
z
" id="DejaVuSans-112"/>
      <path d="M 30.609375 48.390625 
Q 23.390625 48.390625 19.1875 42.75 
Q 14.984375 37.109375 14.984375 27.296875 
Q 14.984375 17.484375 19.15625 11.84375 
Q 23.34375 6.203125 30.609375 6.203125 
Q 37.796875 6.203125 41.984375 11.859375 
Q 46.1875 17.53125 46.1875 27.296875 
Q 46.1875 37.015625 41.984375 42.703125 
Q 37.796875 48.390625 30.609375 48.390625 
z
M 30.609375 56 
Q 42.328125 56 49.015625 48.375 
Q 55.71875 40.765625 55.71875 27.296875 
Q 55.71875 13.875 49.015625 6.21875 
Q 42.328125 -1.421875 30.609375 -1.421875 
Q 18.84375 -1.421875 12.171875 6.21875 
Q 5.515625 13.875 5.515625 27.296875 
Q 5.515625 40.765625 12.171875 48.375 
Q 18.84375 56 30.609375 56 
z
" id="DejaVuSans-111"/>
      <path d="M 48.78125 52.59375 
L 48.78125 44.1875 
Q 44.96875 46.296875 41.140625 47.34375 
Q 37.3125 48.390625 33.40625 48.390625 
Q 24.65625 48.390625 19.8125 42.84375 
Q 14.984375 37.3125 14.984375 27.296875 
Q 14.984375 17.28125 19.8125 11.734375 
Q 24.65625 6.203125 33.40625 6.203125 
Q 37.3125 6.203125 41.140625 7.25 
Q 44.96875 8.296875 48.78125 10.40625 
L 48.78125 2.09375 
Q 45.015625 0.34375 40.984375 -0.53125 
Q 36.96875 -1.421875 32.421875 -1.421875 
Q 20.0625 -1.421875 12.78125 6.34375 
Q 5.515625 14.109375 5.515625 27.296875 
Q 5.515625 40.671875 12.859375 48.328125 
Q 20.21875 56 33.015625 56 
Q 37.15625 56 41.109375 55.140625 
Q 45.0625 54.296875 48.78125 52.59375 
z
" id="DejaVuSans-99"/>
      <path d="M 54.890625 33.015625 
L 54.890625 0 
L 45.90625 0 
L 45.90625 32.71875 
Q 45.90625 40.484375 42.875 44.328125 
Q 39.84375 48.1875 33.796875 48.1875 
Q 26.515625 48.1875 22.3125 43.546875 
Q 18.109375 38.921875 18.109375 30.90625 
L 18.109375 0 
L 9.078125 0 
L 9.078125 75.984375 
L 18.109375 75.984375 
L 18.109375 46.1875 
Q 21.34375 51.125 25.703125 53.5625 
Q 30.078125 56 35.796875 56 
Q 45.21875 56 50.046875 50.171875 
Q 54.890625 44.34375 54.890625 33.015625 
z
" id="DejaVuSans-104"/>
     </defs>
     <g transform="translate(220.931875 335.860562)scale(0.1 -0.1)">
      <use xlink:href="#DejaVuSans-101"/>
      <use x="61.523438" xlink:href="#DejaVuSans-112"/>
      <use x="125" xlink:href="#DejaVuSans-111"/>
      <use x="186.181641" xlink:href="#DejaVuSans-99"/>
      <use x="241.162109" xlink:href="#DejaVuSans-104"/>
     </g>
    </g>
   </g>
   <g id="matplotlib.axis_2">
    <g id="ytick_1">
     <g id="line2d_7">
      <defs>
       <path d="M 0 0 
L -2 0 
" id="m1a1c94bea1" style="stroke:#000000;stroke-width:0.6;"/>
      </defs>
      <g>
       <use style="stroke:#000000;stroke-width:0.6;" x="57.6" xlink:href="#m1a1c94bea1" y="272.56383"/>
      </g>
     </g>
     <g id="text_8">
      <!-- $\mathdefault{1.7\times10^{0}}$ -->
      <defs>
       <path d="M 10.6875 12.40625 
L 21 12.40625 
L 21 0 
L 10.6875 0 
z
" id="DejaVuSans-46"/>
       <path d="M 8.203125 72.90625 
L 55.078125 72.90625 
L 55.078125 68.703125 
L 28.609375 0 
L 18.3125 0 
L 43.21875 64.59375 
L 8.203125 64.59375 
z
" id="DejaVuSans-55"/>
       <path d="M 70.125 53.71875 
L 47.796875 31.296875 
L 70.125 8.984375 
L 64.3125 3.078125 
L 41.890625 25.484375 
L 19.484375 3.078125 
L 13.71875 8.984375 
L 35.984375 31.296875 
L 13.71875 53.71875 
L 19.484375 59.625 
L 41.890625 37.203125 
L 64.3125 59.625 
z
" id="DejaVuSans-215"/>
      </defs>
      <g transform="translate(6.4 276.363049)scale(0.1 -0.1)">
       <use transform="translate(0 0.765625)" xlink:href="#DejaVuSans-49"/>
       <use transform="translate(63.623047 0.765625)" xlink:href="#DejaVuSans-46"/>
       <use transform="translate(95.300781 0.765625)" xlink:href="#DejaVuSans-55"/>
       <use transform="translate(178.40625 0.765625)" xlink:href="#DejaVuSans-215"/>
       <use transform="translate(281.677734 0.765625)" xlink:href="#DejaVuSans-49"/>
       <use transform="translate(345.300781 0.765625)" xlink:href="#DejaVuSans-48"/>
       <use transform="translate(409.880859 39.046875)scale(0.7)" xlink:href="#DejaVuSans-48"/>
      </g>
     </g>
    </g>
    <g id="ytick_2">
     <g id="line2d_8">
      <g>
       <use style="stroke:#000000;stroke-width:0.6;" x="57.6" xlink:href="#m1a1c94bea1" y="231.313591"/>
      </g>
     </g>
     <g id="text_9">
      <!-- $\mathdefault{1.8\times10^{0}}$ -->
      <g transform="translate(6.4 235.11281)scale(0.1 -0.1)">
       <use transform="translate(0 0.765625)" xlink:href="#DejaVuSans-49"/>
       <use transform="translate(63.623047 0.765625)" xlink:href="#DejaVuSans-46"/>
       <use transform="translate(95.378906 0.765625)" xlink:href="#DejaVuSans-56"/>
       <use transform="translate(178.484375 0.765625)" xlink:href="#DejaVuSans-215"/>
       <use transform="translate(281.755859 0.765625)" xlink:href="#DejaVuSans-49"/>
       <use transform="translate(345.378906 0.765625)" xlink:href="#DejaVuSans-48"/>
       <use transform="translate(409.958984 39.046875)scale(0.7)" xlink:href="#DejaVuSans-48"/>
      </g>
     </g>
    </g>
    <g id="ytick_3">
     <g id="line2d_9">
      <g>
       <use style="stroke:#000000;stroke-width:0.6;" x="57.6" xlink:href="#m1a1c94bea1" y="192.294213"/>
      </g>
     </g>
     <g id="text_10">
      <!-- $\mathdefault{1.9\times10^{0}}$ -->
      <defs>
       <path d="M 10.984375 1.515625 
L 10.984375 10.5 
Q 14.703125 8.734375 18.5 7.8125 
Q 22.3125 6.890625 25.984375 6.890625 
Q 35.75 6.890625 40.890625 13.453125 
Q 46.046875 20.015625 46.78125 33.40625 
Q 43.953125 29.203125 39.59375 26.953125 
Q 35.25 24.703125 29.984375 24.703125 
Q 19.046875 24.703125 12.671875 31.3125 
Q 6.296875 37.9375 6.296875 49.421875 
Q 6.296875 60.640625 12.9375 67.421875 
Q 19.578125 74.21875 30.609375 74.21875 
Q 43.265625 74.21875 49.921875 64.515625 
Q 56.59375 54.828125 56.59375 36.375 
Q 56.59375 19.140625 48.40625 8.859375 
Q 40.234375 -1.421875 26.421875 -1.421875 
Q 22.703125 -1.421875 18.890625 -0.6875 
Q 15.09375 0.046875 10.984375 1.515625 
z
M 30.609375 32.421875 
Q 37.25 32.421875 41.125 36.953125 
Q 45.015625 41.5 45.015625 49.421875 
Q 45.015625 57.28125 41.125 61.84375 
Q 37.25 66.40625 30.609375 66.40625 
Q 23.96875 66.40625 20.09375 61.84375 
Q 16.21875 57.28125 16.21875 49.421875 
Q 16.21875 41.5 20.09375 36.953125 
Q 23.96875 32.421875 30.609375 32.421875 
z
" id="DejaVuSans-57"/>
      </defs>
      <g transform="translate(6.4 196.093431)scale(0.1 -0.1)">
       <use transform="translate(0 0.765625)" xlink:href="#DejaVuSans-49"/>
       <use transform="translate(63.623047 0.765625)" xlink:href="#DejaVuSans-46"/>
       <use transform="translate(95.410156 0.765625)" xlink:href="#DejaVuSans-57"/>
       <use transform="translate(178.515625 0.765625)" xlink:href="#DejaVuSans-215"/>
       <use transform="translate(281.787109 0.765625)" xlink:href="#DejaVuSans-49"/>
       <use transform="translate(345.410156 0.765625)" xlink:href="#DejaVuSans-48"/>
       <use transform="translate(409.990234 39.046875)scale(0.7)" xlink:href="#DejaVuSans-48"/>
      </g>
     </g>
    </g>
    <g id="ytick_4">
     <g id="line2d_10">
      <g>
       <use style="stroke:#000000;stroke-width:0.6;" x="57.6" xlink:href="#m1a1c94bea1" y="155.276729"/>
      </g>
     </g>
     <g id="text_11">
      <!-- $\mathdefault{2\times10^{0}}$ -->
      <g transform="translate(16 159.075948)scale(0.1 -0.1)">
       <use transform="translate(0 0.765625)" xlink:href="#DejaVuSans-50"/>
       <use transform="translate(83.105469 0.765625)" xlink:href="#DejaVuSans-215"/>
       <use transform="translate(186.376953 0.765625)" xlink:href="#DejaVuSans-49"/>
       <use transform="translate(250 0.765625)" xlink:href="#DejaVuSans-48"/>
       <use transform="translate(314.580078 39.046875)scale(0.7)" xlink:href="#DejaVuSans-48"/>
      </g>
     </g>
    </g>
    <g id="ytick_5">
     <g id="line2d_11">
      <g>
       <use style="stroke:#000000;stroke-width:0.6;" x="57.6" xlink:href="#m1a1c94bea1" y="120.065711"/>
      </g>
     </g>
     <g id="text_12">
      <!-- $\mathdefault{2.1\times10^{0}}$ -->
      <g transform="translate(6.4 123.86493)scale(0.1 -0.1)">
       <use transform="translate(0 0.765625)" xlink:href="#DejaVuSans-50"/>
       <use transform="translate(63.623047 0.765625)" xlink:href="#DejaVuSans-46"/>
       <use transform="translate(95.410156 0.765625)" xlink:href="#DejaVuSans-49"/>
       <use transform="translate(178.515625 0.765625)" xlink:href="#DejaVuSans-215"/>
       <use transform="translate(281.787109 0.765625)" xlink:href="#DejaVuSans-49"/>
       <use transform="translate(345.410156 0.765625)" xlink:href="#DejaVuSans-48"/>
       <use transform="translate(409.990234 39.046875)scale(0.7)" xlink:href="#DejaVuSans-48"/>
      </g>
     </g>
    </g>
    <g id="ytick_6">
     <g id="line2d_12">
      <g>
       <use style="stroke:#000000;stroke-width:0.6;" x="57.6" xlink:href="#m1a1c94bea1" y="86.49302"/>
      </g>
     </g>
     <g id="text_13">
      <!-- $\mathdefault{2.2\times10^{0}}$ -->
      <g transform="translate(6.4 90.292239)scale(0.1 -0.1)">
       <use transform="translate(0 0.765625)" xlink:href="#DejaVuSans-50"/>
       <use transform="translate(63.623047 0.765625)" xlink:href="#DejaVuSans-46"/>
       <use transform="translate(95.332031 0.765625)" xlink:href="#DejaVuSans-50"/>
       <use transform="translate(178.4375 0.765625)" xlink:href="#DejaVuSans-215"/>
       <use transform="translate(281.708984 0.765625)" xlink:href="#DejaVuSans-49"/>
       <use transform="translate(345.332031 0.765625)" xlink:href="#DejaVuSans-48"/>
       <use transform="translate(409.912109 39.046875)scale(0.7)" xlink:href="#DejaVuSans-48"/>
      </g>
     </g>
    </g>
    <g id="ytick_7">
     <g id="line2d_13">
      <g>
       <use style="stroke:#000000;stroke-width:0.6;" x="57.6" xlink:href="#m1a1c94bea1" y="54.412952"/>
      </g>
     </g>
     <g id="text_14">
      <!-- $\mathdefault{2.3\times10^{0}}$ -->
      <defs>
       <path d="M 40.578125 39.3125 
Q 47.65625 37.796875 51.625 33 
Q 55.609375 28.21875 55.609375 21.1875 
Q 55.609375 10.40625 48.1875 4.484375 
Q 40.765625 -1.421875 27.09375 -1.421875 
Q 22.515625 -1.421875 17.65625 -0.515625 
Q 12.796875 0.390625 7.625 2.203125 
L 7.625 11.71875 
Q 11.71875 9.328125 16.59375 8.109375 
Q 21.484375 6.890625 26.8125 6.890625 
Q 36.078125 6.890625 40.9375 10.546875 
Q 45.796875 14.203125 45.796875 21.1875 
Q 45.796875 27.640625 41.28125 31.265625 
Q 36.765625 34.90625 28.71875 34.90625 
L 20.21875 34.90625 
L 20.21875 43.015625 
L 29.109375 43.015625 
Q 36.375 43.015625 40.234375 45.921875 
Q 44.09375 48.828125 44.09375 54.296875 
Q 44.09375 59.90625 40.109375 62.90625 
Q 36.140625 65.921875 28.71875 65.921875 
Q 24.65625 65.921875 20.015625 65.03125 
Q 15.375 64.15625 9.8125 62.3125 
L 9.8125 71.09375 
Q 15.4375 72.65625 20.34375 73.4375 
Q 25.25 74.21875 29.59375 74.21875 
Q 40.828125 74.21875 47.359375 69.109375 
Q 53.90625 64.015625 53.90625 55.328125 
Q 53.90625 49.265625 50.4375 45.09375 
Q 46.96875 40.921875 40.578125 39.3125 
z
" id="DejaVuSans-51"/>
      </defs>
      <g transform="translate(6.4 58.212171)scale(0.1 -0.1)">
       <use transform="translate(0 0.765625)" xlink:href="#DejaVuSans-50"/>
       <use transform="translate(63.623047 0.765625)" xlink:href="#DejaVuSans-46"/>
       <use transform="translate(95.410156 0.765625)" xlink:href="#DejaVuSans-51"/>
       <use transform="translate(178.515625 0.765625)" xlink:href="#DejaVuSans-215"/>
       <use transform="translate(281.787109 0.765625)" xlink:href="#DejaVuSans-49"/>
       <use transform="translate(345.410156 0.765625)" xlink:href="#DejaVuSans-48"/>
       <use transform="translate(409.990234 39.046875)scale(0.7)" xlink:href="#DejaVuSans-48"/>
      </g>
     </g>
    </g>
    <g id="text_15">
     <!-- loss -->
     <defs>
      <path d="M 9.421875 75.984375 
L 18.40625 75.984375 
L 18.40625 0 
L 9.421875 0 
z
" id="DejaVuSans-108"/>
      <path d="M 44.28125 53.078125 
L 44.28125 44.578125 
Q 40.484375 46.53125 36.375 47.5 
Q 32.28125 48.484375 27.875 48.484375 
Q 21.1875 48.484375 17.84375 46.4375 
Q 14.5 44.390625 14.5 40.28125 
Q 14.5 37.15625 16.890625 35.375 
Q 19.28125 33.59375 26.515625 31.984375 
L 29.59375 31.296875 
Q 39.15625 29.25 43.1875 25.515625 
Q 47.21875 21.78125 47.21875 15.09375 
Q 47.21875 7.46875 41.1875 3.015625 
Q 35.15625 -1.421875 24.609375 -1.421875 
Q 20.21875 -1.421875 15.453125 -0.5625 
Q 10.6875 0.296875 5.421875 2 
L 5.421875 11.28125 
Q 10.40625 8.6875 15.234375 7.390625 
Q 20.0625 6.109375 24.8125 6.109375 
Q 31.15625 6.109375 34.5625 8.28125 
Q 37.984375 10.453125 37.984375 14.40625 
Q 37.984375 18.0625 35.515625 20.015625 
Q 33.0625 21.96875 24.703125 23.78125 
L 21.578125 24.515625 
Q 13.234375 26.265625 9.515625 29.90625 
Q 5.8125 33.546875 5.8125 39.890625 
Q 5.8125 47.609375 11.28125 51.796875 
Q 16.75 56 26.8125 56 
Q 31.78125 56 36.171875 55.265625 
Q 40.578125 54.546875 44.28125 53.078125 
z
" id="DejaVuSans-115"/>
     </defs>
     <g transform="translate(0.320312 184.185812)rotate(-90)scale(0.1 -0.1)">
      <use xlink:href="#DejaVuSans-108"/>
      <use x="27.783203" xlink:href="#DejaVuSans-111"/>
      <use x="88.964844" xlink:href="#DejaVuSans-115"/>
      <use x="141.064453" xlink:href="#DejaVuSans-115"/>
     </g>
    </g>
   </g>
   <g id="line2d_14">
    <path clip-path="url(#p225ff6ce08)" d="M 73.832727 53.568 
L 75.782604 53.831825 
L 76.757543 54.229265 
L 79.357379 55.289817 
L 81.307256 56.355941 
L 83.257133 57.798337 
L 85.85697 60.301509 
L 88.131826 63.011696 
L 90.406683 66.367552 
L 93.006519 70.878553 
L 94.631417 74.082954 
L 96.906274 78.980488 
L 99.831089 85.668662 
L 107.305618 104.224832 
L 110.880393 113.902117 
L 112.505291 118.913872 
L 112.83027 119.676433 
L 116.730025 133.057338 
L 123.554595 158.738714 
L 127.129369 170.483621 
L 127.454349 171.211669 
L 128.754267 175.11125 
L 129.404226 176.918002 
L 131.354103 181.71564 
L 132.329042 184.199548 
L 133.953939 187.659363 
L 134.603898 189.47043 
L 134.928878 189.836099 
L 135.578837 191.188185 
L 135.903817 191.551016 
L 136.878755 193.995317 
L 137.203735 194.739578 
L 137.528714 195.185575 
L 137.853694 195.216987 
L 138.828632 197.537862 
L 139.153612 197.886833 
L 142.078428 203.279161 
L 142.728387 204.021786 
L 143.053366 204.426479 
L 143.378346 205.182056 
L 144.028305 205.938152 
L 144.353284 206.208209 
L 144.678264 207.523844 
L 145.003243 207.612284 
L 146.628141 209.896178 
L 146.95312 209.846492 
L 147.928059 211.902057 
L 148.253038 212.179073 
L 148.578018 212.72399 
L 148.902998 212.90628 
L 149.227977 213.525749 
L 149.877936 214.109059 
L 150.527895 215.209722 
L 150.852875 215.422071 
L 151.502834 216.141245 
L 151.827813 216.555405 
L 152.152793 216.624773 
L 152.477772 216.946493 
L 152.802752 217.46422 
L 153.127731 217.736742 
L 153.452711 218.51764 
L 154.427649 219.054011 
L 155.077609 220.06814 
L 155.402588 220.04201 
L 156.052547 220.948601 
L 156.377527 221.442007 
L 156.702506 221.58054 
L 157.027486 221.89194 
L 157.352465 221.808006 
L 158.002424 222.590153 
L 158.327404 223.192344 
L 158.977363 223.722114 
L 159.302342 223.768504 
L 159.627322 224.284477 
L 159.952301 223.872209 
L 160.277281 224.53992 
L 160.60226 224.742196 
L 160.92724 225.179857 
L 161.252219 225.17985 
L 161.577199 225.006567 
L 161.902179 226.321979 
L 162.227158 226.479462 
L 162.552138 226.911561 
L 162.877117 226.849586 
L 163.202097 227.157101 
L 163.527076 227.915403 
L 163.852056 227.901483 
L 164.177035 228.394446 
L 164.502015 228.137016 
L 164.826994 228.614074 
L 165.151974 228.552918 
L 165.801933 229.218432 
L 166.126912 229.392706 
L 166.776871 230.005207 
L 167.101851 229.836369 
L 167.42683 230.931004 
L 167.75181 230.866496 
L 168.07679 231.008146 
L 168.401769 231.597533 
L 168.726749 231.841467 
L 169.051728 231.844978 
L 169.376708 232.162313 
L 169.701687 232.174389 
L 170.026667 232.001191 
L 171.001605 233.491556 
L 171.326585 233.275889 
L 171.651564 233.674953 
L 171.976544 233.481203 
L 172.301523 233.726394 
L 172.626503 234.286837 
L 172.951482 234.034888 
L 173.276462 234.831327 
L 173.926421 235.060533 
L 174.2514 235.216583 
L 174.57638 235.694383 
L 174.90136 235.684908 
L 175.226339 235.527079 
L 175.551319 236.353874 
L 175.876298 236.27928 
L 176.526257 237.205218 
L 176.851237 237.065881 
L 177.501196 237.350095 
L 177.826175 237.765921 
L 178.151155 237.955846 
L 178.476134 238.314066 
L 179.451073 238.772627 
L 179.776052 238.204733 
L 180.101032 238.320794 
L 180.426011 238.986448 
L 180.750991 239.036249 
L 181.075971 239.818698 
L 181.40095 239.519476 
L 181.72593 240.056304 
L 182.050909 240.246883 
L 182.375889 239.718913 
L 182.700868 240.467373 
L 183.025848 240.626726 
L 183.350827 240.25153 
L 183.675807 240.91386 
L 184.325766 241.306341 
L 184.650745 241.814914 
L 184.975725 241.616416 
L 185.300704 241.725815 
L 185.625684 242.276999 
L 185.950663 241.573362 
L 186.275643 242.237415 
L 186.600622 242.05516 
L 186.925602 242.318206 
L 187.575561 243.037075 
L 187.900541 243.36979 
L 188.22552 243.42896 
L 188.5505 243.694922 
L 188.875479 243.384174 
L 189.200459 243.371545 
L 189.850418 244.230782 
L 190.500377 244.231997 
L 191.150336 244.876423 
L 191.475315 244.814295 
L 192.125274 245.352227 
L 192.450254 245.526991 
L 192.775233 245.527331 
L 193.100213 245.36318 
L 193.750172 246.209568 
L 194.075152 245.980791 
L 194.400131 246.163221 
L 194.725111 246.055308 
L 195.05009 246.367696 
L 195.37507 246.312208 
L 195.700049 247.155611 
L 196.025029 247.113179 
L 196.350008 246.886526 
L 196.674988 247.106549 
L 196.999967 246.936676 
L 197.324947 247.691434 
L 197.974906 248.16536 
L 198.299885 247.950462 
L 198.624865 248.209429 
L 198.949844 248.110032 
L 199.274824 248.62725 
L 199.599803 248.598602 
L 199.924783 248.892803 
L 200.249762 248.764802 
L 200.899722 249.309012 
L 201.549681 249.422658 
L 201.87466 249.843534 
L 202.19964 249.895659 
L 202.524619 249.737778 
L 203.174578 250.287075 
L 203.824537 250.294565 
L 204.474496 251.035293 
L 204.799476 250.840008 
L 205.449435 251.438069 
L 205.774414 251.279345 
L 206.099394 251.625671 
L 206.424373 251.758614 
L 206.749353 251.651502 
L 207.074333 251.845551 
L 207.399312 252.301711 
L 208.049271 252.677181 
L 208.374251 252.233545 
L 208.69923 252.382113 
L 209.02421 252.793837 
L 209.349189 252.592555 
L 209.674169 253.189577 
L 209.999148 252.703836 
L 210.324128 252.547446 
L 210.649107 253.085329 
L 210.974087 253.131072 
L 211.624046 253.852709 
L 211.949025 253.80568 
L 212.274005 253.960837 
L 212.598984 253.711138 
L 212.923964 253.864881 
L 213.248943 254.359264 
L 213.573923 254.576078 
L 213.898903 254.436159 
L 214.548862 254.800237 
L 215.198821 254.867152 
L 215.5238 255.266079 
L 215.84878 255.411833 
L 216.498739 255.477649 
L 216.823718 255.146653 
L 217.148698 256.062545 
L 217.473677 256.104984 
L 217.798657 256.343816 
L 218.448616 255.683658 
L 218.773595 255.852958 
L 219.423554 256.829054 
L 219.748534 256.827555 
L 220.723473 257.400311 
L 221.048452 257.343033 
L 222.023391 257.713072 
L 222.34837 257.559399 
L 222.67335 257.61579 
L 223.323309 258.259764 
L 223.648288 257.53816 
L 224.623227 258.397706 
L 224.948206 259.092508 
L 225.598165 258.678038 
L 226.248124 259.363676 
L 226.573104 259.433282 
L 226.898084 259.631828 
L 227.223063 259.50308 
L 227.548043 259.962822 
L 227.873022 259.827837 
L 229.17294 260.194464 
L 229.49792 260.199744 
L 230.472858 260.78366 
L 230.797838 260.564274 
L 231.122817 261.231365 
L 231.447797 261.202644 
L 231.772776 260.900577 
L 232.097756 261.297978 
L 232.747715 261.367296 
L 233.722654 261.778603 
L 234.372613 261.577903 
L 235.022572 262.377735 
L 235.347551 262.349113 
L 236.32249 262.81049 
L 236.972449 262.60226 
L 237.297428 263.002863 
L 237.622408 263.087335 
L 237.947387 263.320864 
L 238.272367 263.390128 
L 238.597346 263.132357 
L 238.922326 263.258596 
L 239.247305 263.796245 
L 239.897265 263.982415 
L 240.222244 263.753411 
L 241.522162 264.467853 
L 241.847142 264.332259 
L 242.172121 264.466351 
L 242.82208 264.499755 
L 243.14706 264.607187 
L 243.472039 264.87179 
L 243.797019 264.635535 
L 244.121998 264.713115 
L 244.771957 265.719205 
L 245.096937 265.307398 
L 245.421916 265.341756 
L 245.746896 265.864233 
L 246.721835 265.825012 
L 247.046814 266.123116 
L 247.696773 266.280954 
L 248.346732 265.741368 
L 248.671712 266.764227 
L 248.996691 266.351857 
L 249.64665 266.81801 
L 249.97163 267.163163 
L 250.296609 267.137305 
L 250.621589 266.989535 
L 250.946568 267.14334 
L 251.271548 267.066716 
L 252.246486 267.609019 
L 252.571466 267.591666 
L 253.221425 267.923176 
L 253.546405 267.894244 
L 253.871384 268.364396 
L 254.196364 268.163116 
L 254.521343 268.42323 
L 255.171302 268.459456 
L 255.496282 268.713859 
L 255.821261 268.691419 
L 256.146241 267.942449 
L 256.47122 268.621202 
L 256.7962 268.837026 
L 257.121179 268.712459 
L 257.771138 268.929899 
L 258.096118 269.474677 
L 258.421097 269.510329 
L 258.746077 269.420716 
L 259.071057 269.696992 
L 259.396036 268.811709 
L 260.045995 269.765178 
L 260.370975 269.853494 
L 261.020934 269.538802 
L 261.345913 270.259399 
L 261.670893 270.070737 
L 261.995872 270.072261 
L 262.320852 270.442011 
L 262.645831 269.980065 
L 262.970811 270.721946 
L 263.62077 270.729726 
L 263.945749 270.932212 
L 264.270729 270.161568 
L 264.595708 270.580219 
L 265.895627 271.416687 
L 266.220606 271.056146 
L 266.545586 270.967539 
L 266.870565 271.401999 
L 267.195545 271.318281 
L 267.845504 271.784941 
L 268.495463 271.67374 
L 268.820442 271.514962 
L 269.145422 271.746271 
L 269.470401 271.729482 
L 270.44534 272.461271 
L 270.770319 272.501743 
L 271.095299 271.888782 
L 271.420278 272.2583 
L 272.720197 272.849175 
L 273.045176 273.194531 
L 273.370156 272.822237 
L 273.695135 273.200867 
L 274.020115 272.688526 
L 274.995053 273.277326 
L 275.320033 273.763591 
L 275.645012 273.474871 
L 275.969992 273.717968 
L 276.294971 273.523252 
L 276.619951 273.859162 
L 277.26991 273.988468 
L 277.919869 273.68457 
L 278.244848 274.26175 
L 278.569828 273.922188 
L 278.894808 274.079537 
L 279.219787 274.02911 
L 279.544767 274.457824 
L 279.869746 274.198381 
L 280.194726 274.728222 
L 280.519705 274.534118 
L 280.844685 274.658556 
L 281.169664 274.904265 
L 281.494644 274.671416 
L 281.819623 274.968962 
L 282.144603 274.768241 
L 282.794562 275.333755 
L 283.119541 274.828377 
L 283.444521 275.50648 
L 283.7695 275.617022 
L 284.419459 276.012894 
L 284.744439 275.288725 
L 285.069419 275.576114 
L 285.394398 275.530016 
L 285.719378 275.871489 
L 286.044357 275.800754 
L 286.369337 275.901929 
L 286.694316 276.302031 
L 287.019296 276.201737 
L 287.344275 276.244007 
L 287.669255 276.441442 
L 287.994234 276.059419 
L 288.319214 276.37902 
L 288.644193 276.321899 
L 288.969173 276.671065 
L 289.294152 276.700007 
L 289.619132 276.430198 
L 289.944111 277.034534 
L 290.269091 276.386931 
L 290.91905 277.209725 
L 291.244029 277.402076 
L 291.569009 277.104431 
L 291.893989 277.305849 
L 292.218968 277.113262 
L 292.543948 277.164716 
L 293.193907 277.793026 
L 293.843866 277.558189 
L 294.168845 277.455003 
L 294.818804 277.629491 
L 295.143784 277.406377 
L 295.468763 278.20792 
L 295.793743 278.119245 
L 296.118722 278.19209 
L 296.443702 278.139463 
L 297.093661 278.448737 
L 297.41864 278.046481 
L 297.74362 278.758602 
L 298.0686 278.104762 
L 298.393579 278.795892 
L 298.718559 278.173484 
L 299.043538 278.420218 
L 299.693497 279.05342 
L 300.018477 279.401441 
L 300.343456 279.440614 
L 300.668436 279.262348 
L 300.993415 278.904434 
L 301.318395 279.593678 
L 301.643374 279.262336 
L 301.968354 279.147408 
L 302.293333 279.366893 
L 302.618313 279.722389 
L 302.943292 279.905356 
L 303.268272 279.904107 
L 303.593251 279.57717 
L 303.918231 279.480665 
L 304.24321 279.842222 
L 304.89317 279.747706 
L 305.543129 280.629579 
L 305.868108 280.681778 
L 306.518067 280.329618 
L 306.843047 280.433858 
L 307.168026 280.414912 
L 307.493006 280.788833 
L 307.817985 280.982231 
L 308.142965 280.537222 
L 308.467944 280.490761 
L 308.792924 280.979846 
L 309.117903 281.184103 
L 309.442883 280.768714 
L 309.767862 280.816394 
L 310.092842 281.370447 
L 310.417821 281.421256 
L 310.742801 281.589616 
L 311.067781 280.629495 
L 311.71774 281.511154 
L 312.042719 281.716385 
L 312.367699 281.546468 
L 312.692678 282.06633 
L 313.667617 282.164778 
L 313.992596 282.331243 
L 314.317576 281.640985 
L 314.642555 281.987489 
L 315.942473 282.195319 
L 316.267453 282.048465 
L 316.592432 282.620821 
L 316.917412 282.653013 
L 317.242391 282.987502 
L 317.567371 282.520534 
L 318.54231 282.782034 
L 318.867289 283.23462 
L 320.167207 282.393023 
L 320.492187 283.587008 
L 320.817166 283.078147 
L 321.142146 283.487644 
L 321.467125 283.019938 
L 321.792105 283.047842 
L 322.117084 283.561382 
L 322.442064 283.063685 
L 322.767043 283.694185 
L 323.092023 283.802939 
L 323.417002 283.407582 
L 323.741982 283.21981 
L 324.066962 284.198521 
L 324.391941 284.031047 
L 324.716921 284.13909 
L 325.0419 283.946402 
L 325.36688 284.359505 
L 325.691859 283.77685 
L 326.341818 284.230396 
L 326.666798 284.876918 
L 326.991777 285.009248 
L 327.316757 284.318378 
L 327.641736 284.821046 
L 328.291695 284.81688 
L 328.616675 284.995115 
L 329.266634 284.995253 
L 329.591613 285.53965 
L 329.916593 285.088952 
L 330.241572 285.341534 
L 330.566552 285.347709 
L 330.891532 285.518292 
L 331.216511 284.88368 
L 331.541491 284.960896 
L 331.86647 284.407923 
L 332.19145 285.321325 
L 332.841409 285.761543 
L 333.166388 285.550541 
L 333.491368 285.700011 
L 334.141327 285.45306 
L 334.466306 286.083045 
L 334.791286 286.318055 
L 335.441245 286.087723 
L 335.766224 286.605462 
L 336.091204 286.340174 
L 336.416183 285.862955 
L 336.741163 285.741818 
L 337.066143 286.190833 
L 337.391122 286.311406 
L 337.716102 285.990756 
L 338.041081 286.416422 
L 338.366061 286.638537 
L 338.69104 287.044668 
L 339.01602 286.662022 
L 339.340999 286.85645 
L 339.665979 287.256274 
L 339.990958 287.46899 
L 340.315938 286.66789 
L 340.965897 286.998596 
L 341.615856 286.833257 
L 342.915774 287.634613 
L 343.565733 287.589937 
L 343.890713 287.831618 
L 344.215692 287.7603 
L 344.540672 287.841911 
L 344.865651 287.497665 
L 345.190631 287.781636 
L 345.51561 288.27195 
L 345.84059 287.554351 
L 346.490549 287.914521 
L 346.815528 288.440183 
L 347.140508 288.366186 
L 347.465487 288.549326 
L 347.790467 288.391273 
L 348.115446 287.799783 
L 348.765405 287.776923 
L 349.090385 288.663736 
L 349.415364 288.492395 
L 349.740344 288.760981 
L 350.065324 288.59231 
L 351.690221 289.091804 
L 352.015201 288.868725 
L 352.34018 289.240744 
L 352.66516 289.24775 
L 352.990139 289.099613 
L 353.315119 288.738354 
L 353.640098 288.846959 
L 354.290057 289.611075 
L 354.940016 289.61604 
L 355.589975 289.751394 
L 355.914955 289.966978 
L 356.564914 289.949453 
L 356.889894 290.065937 
L 357.214873 289.924157 
L 357.539853 289.00151 
L 357.864832 289.344789 
L 358.189812 289.013996 
L 358.514791 289.309602 
L 358.839771 289.978842 
L 359.48973 290.324677 
L 359.814709 290.189323 
L 360.139689 290.671932 
L 360.464668 289.923772 
L 360.789648 290.381673 
L 361.114627 290.476116 
L 361.764586 290.915673 
L 362.089566 290.764543 
L 362.414545 291.10192 
L 362.739525 289.830237 
L 363.064505 290.469022 
L 363.389484 290.118387 
L 363.714464 290.423011 
L 364.039443 291.24447 
L 364.364423 291.282785 
L 364.689402 290.980817 
L 365.664341 290.578557 
L 365.98932 291.18729 
L 366.3143 291.340811 
L 366.639279 291.095924 
L 366.964259 291.244326 
L 367.289238 291.116825 
L 367.614218 291.42935 
L 367.939197 291.498609 
L 368.264177 291.00166 
L 368.589156 291.654729 
L 368.914136 291.410278 
L 369.239115 291.602365 
L 369.564095 291.642379 
L 369.889075 291.879105 
L 370.214054 291.633419 
L 370.539034 292.161707 
L 370.864013 291.954699 
L 371.188993 292.076871 
L 371.513972 292.062669 
L 371.838952 292.320247 
L 372.163931 291.94716 
L 372.488911 291.958912 
L 372.81389 292.17284 
L 373.13887 291.698727 
L 373.463849 292.170059 
L 373.788829 291.947672 
L 374.113808 292.544555 
L 374.438788 292.696055 
L 374.763767 292.523245 
L 375.088747 292.924689 
L 375.413726 292.177135 
L 376.063686 292.385485 
L 376.388665 292.681178 
L 376.713645 291.895731 
L 377.038624 292.733681 
L 377.363604 292.454899 
L 377.688583 291.934295 
L 378.013563 292.668501 
L 378.338542 292.692007 
L 378.663522 293.255233 
L 378.988501 293.376875 
L 379.313481 293.105726 
L 379.63846 293.312792 
L 379.96344 292.022261 
L 380.288419 293.318605 
L 380.613399 293.405014 
L 380.938378 293.052397 
L 381.263358 293.159254 
L 381.588337 292.791436 
L 381.913317 293.162051 
L 382.238296 293.147232 
L 382.563276 293.952237 
L 382.888256 293.704892 
L 383.213235 293.995489 
L 383.538215 293.377922 
L 383.863194 293.854338 
L 384.188174 292.939037 
L 384.513153 294.202513 
L 384.838133 293.760013 
L 385.163112 293.60412 
L 386.138051 294.227158 
L 386.46303 293.456596 
L 386.78801 293.951409 
L 387.112989 293.155531 
L 387.437969 294.21108 
L 387.762948 294.307897 
L 388.087928 294.241599 
L 389.062867 294.544917 
L 389.387846 294.052922 
L 389.712826 294.140357 
L 390.037805 293.301448 
L 390.362785 293.578405 
L 390.687764 294.325518 
L 391.012744 294.346233 
L 391.337723 294.713757 
L 391.662703 294.078648 
L 392.637641 295.001272 
L 393.2876 294.386013 
L 393.61258 295.080209 
L 393.937559 294.644462 
L 394.262539 294.575977 
L 394.587518 294.936658 
L 394.912498 294.19515 
L 395.237477 295.062156 
L 395.562457 295.437119 
L 395.887437 295.488 
L 396.212416 294.919312 
L 396.537396 295.404449 
L 396.862375 294.766416 
L 397.187355 294.763012 
L 397.512334 294.579245 
L 397.837314 294.948286 
L 398.162293 294.96427 
L 398.487273 294.513554 
L 398.487273 294.513554 
" style="fill:none;stroke:#1f77b4;stroke-linecap:square;stroke-width:1.5;"/>
   </g>
   <g id="patch_3">
    <path d="M 57.6 307.584 
L 57.6 41.472 
" style="fill:none;stroke:#000000;stroke-linecap:square;stroke-linejoin:miter;stroke-width:0.8;"/>
   </g>
   <g id="patch_4">
    <path d="M 414.72 307.584 
L 414.72 41.472 
" style="fill:none;stroke:#000000;stroke-linecap:square;stroke-linejoin:miter;stroke-width:0.8;"/>
   </g>
   <g id="patch_5">
    <path d="M 57.6 307.584 
L 414.72 307.584 
" style="fill:none;stroke:#000000;stroke-linecap:square;stroke-linejoin:miter;stroke-width:0.8;"/>
   </g>
   <g id="patch_6">
    <path d="M 57.6 41.472 
L 414.72 41.472 
" style="fill:none;stroke:#000000;stroke-linecap:square;stroke-linejoin:miter;stroke-width:0.8;"/>
   </g>
   <g id="text_16">
    <!-- Train loss -->
    <defs>
     <path d="M -0.296875 72.90625 
L 61.375 72.90625 
L 61.375 64.59375 
L 35.5 64.59375 
L 35.5 0 
L 25.59375 0 
L 25.59375 64.59375 
L -0.296875 64.59375 
z
" id="DejaVuSans-84"/>
     <path d="M 41.109375 46.296875 
Q 39.59375 47.171875 37.8125 47.578125 
Q 36.03125 48 33.890625 48 
Q 26.265625 48 22.1875 43.046875 
Q 18.109375 38.09375 18.109375 28.8125 
L 18.109375 0 
L 9.078125 0 
L 9.078125 54.6875 
L 18.109375 54.6875 
L 18.109375 46.1875 
Q 20.953125 51.171875 25.484375 53.578125 
Q 30.03125 56 36.53125 56 
Q 37.453125 56 38.578125 55.875 
Q 39.703125 55.765625 41.0625 55.515625 
z
" id="DejaVuSans-114"/>
     <path d="M 34.28125 27.484375 
Q 23.390625 27.484375 19.1875 25 
Q 14.984375 22.515625 14.984375 16.5 
Q 14.984375 11.71875 18.140625 8.90625 
Q 21.296875 6.109375 26.703125 6.109375 
Q 34.1875 6.109375 38.703125 11.40625 
Q 43.21875 16.703125 43.21875 25.484375 
L 43.21875 27.484375 
z
M 52.203125 31.203125 
L 52.203125 0 
L 43.21875 0 
L 43.21875 8.296875 
Q 40.140625 3.328125 35.546875 0.953125 
Q 30.953125 -1.421875 24.3125 -1.421875 
Q 15.921875 -1.421875 10.953125 3.296875 
Q 6 8.015625 6 15.921875 
Q 6 25.140625 12.171875 29.828125 
Q 18.359375 34.515625 30.609375 34.515625 
L 43.21875 34.515625 
L 43.21875 35.40625 
Q 43.21875 41.609375 39.140625 45 
Q 35.0625 48.390625 27.6875 48.390625 
Q 23 48.390625 18.546875 47.265625 
Q 14.109375 46.140625 10.015625 43.890625 
L 10.015625 52.203125 
Q 14.9375 54.109375 19.578125 55.046875 
Q 24.21875 56 28.609375 56 
Q 40.484375 56 46.34375 49.84375 
Q 52.203125 43.703125 52.203125 31.203125 
z
" id="DejaVuSans-97"/>
     <path d="M 9.421875 54.6875 
L 18.40625 54.6875 
L 18.40625 0 
L 9.421875 0 
z
M 9.421875 75.984375 
L 18.40625 75.984375 
L 18.40625 64.59375 
L 9.421875 64.59375 
z
" id="DejaVuSans-105"/>
     <path d="M 54.890625 33.015625 
L 54.890625 0 
L 45.90625 0 
L 45.90625 32.71875 
Q 45.90625 40.484375 42.875 44.328125 
Q 39.84375 48.1875 33.796875 48.1875 
Q 26.515625 48.1875 22.3125 43.546875 
Q 18.109375 38.921875 18.109375 30.90625 
L 18.109375 0 
L 9.078125 0 
L 9.078125 54.6875 
L 18.109375 54.6875 
L 18.109375 46.1875 
Q 21.34375 51.125 25.703125 53.5625 
Q 30.078125 56 35.796875 56 
Q 45.21875 56 50.046875 50.171875 
Q 54.890625 44.34375 54.890625 33.015625 
z
" id="DejaVuSans-110"/>
     <path id="DejaVuSans-32"/>
    </defs>
    <g transform="translate(207.399375 35.472)scale(0.12 -0.12)">
     <use xlink:href="#DejaVuSans-84"/>
     <use x="60.865234" xlink:href="#DejaVuSans-114"/>
     <use x="101.978516" xlink:href="#DejaVuSans-97"/>
     <use x="163.257812" xlink:href="#DejaVuSans-105"/>
     <use x="191.041016" xlink:href="#DejaVuSans-110"/>
     <use x="254.419922" xlink:href="#DejaVuSans-32"/>
     <use x="286.207031" xlink:href="#DejaVuSans-108"/>
     <use x="313.990234" xlink:href="#DejaVuSans-111"/>
     <use x="375.171875" xlink:href="#DejaVuSans-115"/>
     <use x="427.271484" xlink:href="#DejaVuSans-115"/>
    </g>
   </g>
  </g>
 </g>
 <defs>
  <clipPath id="p225ff6ce08">
   <rect height="266.112" width="357.12" x="57.6" y="41.472"/>
  </clipPath>
 </defs>
</svg>
