<?xml version="1.0" encoding="utf-8" standalone="no"?>
<!DOCTYPE svg PUBLIC "-//W3C//DTD SVG 1.1//EN"
  "http://www.w3.org/Graphics/SVG/1.1/DTD/svg11.dtd">
<!-- Created with matplotlib (https://matplotlib.org/) -->
<svg height="345.6pt" version="1.1" viewBox="0 0 460.8 345.6" width="460.8pt" xmlns="http://www.w3.org/2000/svg" xmlns:xlink="http://www.w3.org/1999/xlink">
 <defs>
  <style type="text/css">
*{stroke-linecap:butt;stroke-linejoin:round;}
  </style>
 </defs>
 <g id="figure_1">
  <g id="patch_1">
   <path d="M 0 345.6 
L 460.8 345.6 
L 460.8 0 
L 0 0 
z
" style="fill:#ffffff;"/>
  </g>
  <g id="axes_1">
   <g id="patch_2">
    <path d="M 57.6 307.584 
L 414.72 307.584 
L 414.72 41.472 
L 57.6 41.472 
z
" style="fill:#ffffff;"/>
   </g>
   <g id="matplotlib.axis_1">
    <g id="xtick_1">
     <g id="line2d_1">
      <defs>
       <path d="M 0 0 
L 0 3.5 
" id="md4278af04b" style="stroke:#000000;stroke-width:0.8;"/>
      </defs>
      <g>
       <use style="stroke:#000000;stroke-width:0.8;" x="73.832727" xlink:href="#md4278af04b" y="307.584"/>
      </g>
     </g>
     <g id="text_1">
      <!-- 0 -->
      <defs>
       <path d="M 31.78125 66.40625 
Q 24.171875 66.40625 20.328125 58.90625 
Q 16.5 51.421875 16.5 36.375 
Q 16.5 21.390625 20.328125 13.890625 
Q 24.171875 6.390625 31.78125 6.390625 
Q 39.453125 6.390625 43.28125 13.890625 
Q 47.125 21.390625 47.125 36.375 
Q 47.125 51.421875 43.28125 58.90625 
Q 39.453125 66.40625 31.78125 66.40625 
z
M 31.78125 74.21875 
Q 44.046875 74.21875 50.515625 64.515625 
Q 56.984375 54.828125 56.984375 36.375 
Q 56.984375 17.96875 50.515625 8.265625 
Q 44.046875 -1.421875 31.78125 -1.421875 
Q 19.53125 -1.421875 13.0625 8.265625 
Q 6.59375 17.96875 6.59375 36.375 
Q 6.59375 54.828125 13.0625 64.515625 
Q 19.53125 74.21875 31.78125 74.21875 
z
" id="DejaVuSans-48"/>
      </defs>
      <g transform="translate(70.651477 322.182437)scale(0.1 -0.1)">
       <use xlink:href="#DejaVuSans-48"/>
      </g>
     </g>
    </g>
    <g id="xtick_2">
     <g id="line2d_2">
      <g>
       <use style="stroke:#000000;stroke-width:0.8;" x="138.828632" xlink:href="#md4278af04b" y="307.584"/>
      </g>
     </g>
     <g id="text_2">
      <!-- 200 -->
      <defs>
       <path d="M 19.1875 8.296875 
L 53.609375 8.296875 
L 53.609375 0 
L 7.328125 0 
L 7.328125 8.296875 
Q 12.9375 14.109375 22.625 23.890625 
Q 32.328125 33.6875 34.8125 36.53125 
Q 39.546875 41.84375 41.421875 45.53125 
Q 43.3125 49.21875 43.3125 52.78125 
Q 43.3125 58.59375 39.234375 62.25 
Q 35.15625 65.921875 28.609375 65.921875 
Q 23.96875 65.921875 18.8125 64.3125 
Q 13.671875 62.703125 7.8125 59.421875 
L 7.8125 69.390625 
Q 13.765625 71.78125 18.9375 73 
Q 24.125 74.21875 28.421875 74.21875 
Q 39.75 74.21875 46.484375 68.546875 
Q 53.21875 62.890625 53.21875 53.421875 
Q 53.21875 48.921875 51.53125 44.890625 
Q 49.859375 40.875 45.40625 35.40625 
Q 44.1875 33.984375 37.640625 27.21875 
Q 31.109375 20.453125 19.1875 8.296875 
z
" id="DejaVuSans-50"/>
      </defs>
      <g transform="translate(129.284882 322.182437)scale(0.1 -0.1)">
       <use xlink:href="#DejaVuSans-50"/>
       <use x="63.623047" xlink:href="#DejaVuSans-48"/>
       <use x="127.246094" xlink:href="#DejaVuSans-48"/>
      </g>
     </g>
    </g>
    <g id="xtick_3">
     <g id="line2d_3">
      <g>
       <use style="stroke:#000000;stroke-width:0.8;" x="203.824537" xlink:href="#md4278af04b" y="307.584"/>
      </g>
     </g>
     <g id="text_3">
      <!-- 400 -->
      <defs>
       <path d="M 37.796875 64.3125 
L 12.890625 25.390625 
L 37.796875 25.390625 
z
M 35.203125 72.90625 
L 47.609375 72.90625 
L 47.609375 25.390625 
L 58.015625 25.390625 
L 58.015625 17.1875 
L 47.609375 17.1875 
L 47.609375 0 
L 37.796875 0 
L 37.796875 17.1875 
L 4.890625 17.1875 
L 4.890625 26.703125 
z
" id="DejaVuSans-52"/>
      </defs>
      <g transform="translate(194.280787 322.182437)scale(0.1 -0.1)">
       <use xlink:href="#DejaVuSans-52"/>
       <use x="63.623047" xlink:href="#DejaVuSans-48"/>
       <use x="127.246094" xlink:href="#DejaVuSans-48"/>
      </g>
     </g>
    </g>
    <g id="xtick_4">
     <g id="line2d_4">
      <g>
       <use style="stroke:#000000;stroke-width:0.8;" x="268.820442" xlink:href="#md4278af04b" y="307.584"/>
      </g>
     </g>
     <g id="text_4">
      <!-- 600 -->
      <defs>
       <path d="M 33.015625 40.375 
Q 26.375 40.375 22.484375 35.828125 
Q 18.609375 31.296875 18.609375 23.390625 
Q 18.609375 15.53125 22.484375 10.953125 
Q 26.375 6.390625 33.015625 6.390625 
Q 39.65625 6.390625 43.53125 10.953125 
Q 47.40625 15.53125 47.40625 23.390625 
Q 47.40625 31.296875 43.53125 35.828125 
Q 39.65625 40.375 33.015625 40.375 
z
M 52.59375 71.296875 
L 52.59375 62.3125 
Q 48.875 64.0625 45.09375 64.984375 
Q 41.3125 65.921875 37.59375 65.921875 
Q 27.828125 65.921875 22.671875 59.328125 
Q 17.53125 52.734375 16.796875 39.40625 
Q 19.671875 43.65625 24.015625 45.921875 
Q 28.375 48.1875 33.59375 48.1875 
Q 44.578125 48.1875 50.953125 41.515625 
Q 57.328125 34.859375 57.328125 23.390625 
Q 57.328125 12.15625 50.6875 5.359375 
Q 44.046875 -1.421875 33.015625 -1.421875 
Q 20.359375 -1.421875 13.671875 8.265625 
Q 6.984375 17.96875 6.984375 36.375 
Q 6.984375 53.65625 15.1875 63.9375 
Q 23.390625 74.21875 37.203125 74.21875 
Q 40.921875 74.21875 44.703125 73.484375 
Q 48.484375 72.75 52.59375 71.296875 
z
" id="DejaVuSans-54"/>
      </defs>
      <g transform="translate(259.276692 322.182437)scale(0.1 -0.1)">
       <use xlink:href="#DejaVuSans-54"/>
       <use x="63.623047" xlink:href="#DejaVuSans-48"/>
       <use x="127.246094" xlink:href="#DejaVuSans-48"/>
      </g>
     </g>
    </g>
    <g id="xtick_5">
     <g id="line2d_5">
      <g>
       <use style="stroke:#000000;stroke-width:0.8;" x="333.816347" xlink:href="#md4278af04b" y="307.584"/>
      </g>
     </g>
     <g id="text_5">
      <!-- 800 -->
      <defs>
       <path d="M 31.78125 34.625 
Q 24.75 34.625 20.71875 30.859375 
Q 16.703125 27.09375 16.703125 20.515625 
Q 16.703125 13.921875 20.71875 10.15625 
Q 24.75 6.390625 31.78125 6.390625 
Q 38.8125 6.390625 42.859375 10.171875 
Q 46.921875 13.96875 46.921875 20.515625 
Q 46.921875 27.09375 42.890625 30.859375 
Q 38.875 34.625 31.78125 34.625 
z
M 21.921875 38.8125 
Q 15.578125 40.375 12.03125 44.71875 
Q 8.5 49.078125 8.5 55.328125 
Q 8.5 64.0625 14.71875 69.140625 
Q 20.953125 74.21875 31.78125 74.21875 
Q 42.671875 74.21875 48.875 69.140625 
Q 55.078125 64.0625 55.078125 55.328125 
Q 55.078125 49.078125 51.53125 44.71875 
Q 48 40.375 41.703125 38.8125 
Q 48.828125 37.15625 52.796875 32.3125 
Q 56.78125 27.484375 56.78125 20.515625 
Q 56.78125 9.90625 50.3125 4.234375 
Q 43.84375 -1.421875 31.78125 -1.421875 
Q 19.734375 -1.421875 13.25 4.234375 
Q 6.78125 9.90625 6.78125 20.515625 
Q 6.78125 27.484375 10.78125 32.3125 
Q 14.796875 37.15625 21.921875 38.8125 
z
M 18.3125 54.390625 
Q 18.3125 48.734375 21.84375 45.5625 
Q 25.390625 42.390625 31.78125 42.390625 
Q 38.140625 42.390625 41.71875 45.5625 
Q 45.3125 48.734375 45.3125 54.390625 
Q 45.3125 60.0625 41.71875 63.234375 
Q 38.140625 66.40625 31.78125 66.40625 
Q 25.390625 66.40625 21.84375 63.234375 
Q 18.3125 60.0625 18.3125 54.390625 
z
" id="DejaVuSans-56"/>
      </defs>
      <g transform="translate(324.272597 322.182437)scale(0.1 -0.1)">
       <use xlink:href="#DejaVuSans-56"/>
       <use x="63.623047" xlink:href="#DejaVuSans-48"/>
       <use x="127.246094" xlink:href="#DejaVuSans-48"/>
      </g>
     </g>
    </g>
    <g id="xtick_6">
     <g id="line2d_6">
      <g>
       <use style="stroke:#000000;stroke-width:0.8;" x="398.812252" xlink:href="#md4278af04b" y="307.584"/>
      </g>
     </g>
     <g id="text_6">
      <!-- 1000 -->
      <defs>
       <path d="M 12.40625 8.296875 
L 28.515625 8.296875 
L 28.515625 63.921875 
L 10.984375 60.40625 
L 10.984375 69.390625 
L 28.421875 72.90625 
L 38.28125 72.90625 
L 38.28125 8.296875 
L 54.390625 8.296875 
L 54.390625 0 
L 12.40625 0 
z
" id="DejaVuSans-49"/>
      </defs>
      <g transform="translate(386.087252 322.182437)scale(0.1 -0.1)">
       <use xlink:href="#DejaVuSans-49"/>
       <use x="63.623047" xlink:href="#DejaVuSans-48"/>
       <use x="127.246094" xlink:href="#DejaVuSans-48"/>
       <use x="190.869141" xlink:href="#DejaVuSans-48"/>
      </g>
     </g>
    </g>
    <g id="text_7">
     <!-- epoch -->
     <defs>
      <path d="M 56.203125 29.59375 
L 56.203125 25.203125 
L 14.890625 25.203125 
Q 15.484375 15.921875 20.484375 11.0625 
Q 25.484375 6.203125 34.421875 6.203125 
Q 39.59375 6.203125 44.453125 7.46875 
Q 49.3125 8.734375 54.109375 11.28125 
L 54.109375 2.78125 
Q 49.265625 0.734375 44.1875 -0.34375 
Q 39.109375 -1.421875 33.890625 -1.421875 
Q 20.796875 -1.421875 13.15625 6.1875 
Q 5.515625 13.8125 5.515625 26.8125 
Q 5.515625 40.234375 12.765625 48.109375 
Q 20.015625 56 32.328125 56 
Q 43.359375 56 49.78125 48.890625 
Q 56.203125 41.796875 56.203125 29.59375 
z
M 47.21875 32.234375 
Q 47.125 39.59375 43.09375 43.984375 
Q 39.0625 48.390625 32.421875 48.390625 
Q 24.90625 48.390625 20.390625 44.140625 
Q 15.875 39.890625 15.1875 32.171875 
z
" id="DejaVuSans-101"/>
      <path d="M 18.109375 8.203125 
L 18.109375 -20.796875 
L 9.078125 -20.796875 
L 9.078125 54.6875 
L 18.109375 54.6875 
L 18.109375 46.390625 
Q 20.953125 51.265625 25.265625 53.625 
Q 29.59375 56 35.59375 56 
Q 45.5625 56 51.78125 48.09375 
Q 58.015625 40.1875 58.015625 27.296875 
Q 58.015625 14.40625 51.78125 6.484375 
Q 45.5625 -1.421875 35.59375 -1.421875 
Q 29.59375 -1.421875 25.265625 0.953125 
Q 20.953125 3.328125 18.109375 8.203125 
z
M 48.6875 27.296875 
Q 48.6875 37.203125 44.609375 42.84375 
Q 40.53125 48.484375 33.40625 48.484375 
Q 26.265625 48.484375 22.1875 42.84375 
Q 18.109375 37.203125 18.109375 27.296875 
Q 18.109375 17.390625 22.1875 11.75 
Q 26.265625 6.109375 33.40625 6.109375 
Q 40.53125 6.109375 44.609375 11.75 
Q 48.6875 17.390625 48.6875 27.296875 
z
" id="DejaVuSans-112"/>
      <path d="M 30.609375 48.390625 
Q 23.390625 48.390625 19.1875 42.75 
Q 14.984375 37.109375 14.984375 27.296875 
Q 14.984375 17.484375 19.15625 11.84375 
Q 23.34375 6.203125 30.609375 6.203125 
Q 37.796875 6.203125 41.984375 11.859375 
Q 46.1875 17.53125 46.1875 27.296875 
Q 46.1875 37.015625 41.984375 42.703125 
Q 37.796875 48.390625 30.609375 48.390625 
z
M 30.609375 56 
Q 42.328125 56 49.015625 48.375 
Q 55.71875 40.765625 55.71875 27.296875 
Q 55.71875 13.875 49.015625 6.21875 
Q 42.328125 -1.421875 30.609375 -1.421875 
Q 18.84375 -1.421875 12.171875 6.21875 
Q 5.515625 13.875 5.515625 27.296875 
Q 5.515625 40.765625 12.171875 48.375 
Q 18.84375 56 30.609375 56 
z
" id="DejaVuSans-111"/>
      <path d="M 48.78125 52.59375 
L 48.78125 44.1875 
Q 44.96875 46.296875 41.140625 47.34375 
Q 37.3125 48.390625 33.40625 48.390625 
Q 24.65625 48.390625 19.8125 42.84375 
Q 14.984375 37.3125 14.984375 27.296875 
Q 14.984375 17.28125 19.8125 11.734375 
Q 24.65625 6.203125 33.40625 6.203125 
Q 37.3125 6.203125 41.140625 7.25 
Q 44.96875 8.296875 48.78125 10.40625 
L 48.78125 2.09375 
Q 45.015625 0.34375 40.984375 -0.53125 
Q 36.96875 -1.421875 32.421875 -1.421875 
Q 20.0625 -1.421875 12.78125 6.34375 
Q 5.515625 14.109375 5.515625 27.296875 
Q 5.515625 40.671875 12.859375 48.328125 
Q 20.21875 56 33.015625 56 
Q 37.15625 56 41.109375 55.140625 
Q 45.0625 54.296875 48.78125 52.59375 
z
" id="DejaVuSans-99"/>
      <path d="M 54.890625 33.015625 
L 54.890625 0 
L 45.90625 0 
L 45.90625 32.71875 
Q 45.90625 40.484375 42.875 44.328125 
Q 39.84375 48.1875 33.796875 48.1875 
Q 26.515625 48.1875 22.3125 43.546875 
Q 18.109375 38.921875 18.109375 30.90625 
L 18.109375 0 
L 9.078125 0 
L 9.078125 75.984375 
L 18.109375 75.984375 
L 18.109375 46.1875 
Q 21.34375 51.125 25.703125 53.5625 
Q 30.078125 56 35.796875 56 
Q 45.21875 56 50.046875 50.171875 
Q 54.890625 44.34375 54.890625 33.015625 
z
" id="DejaVuSans-104"/>
     </defs>
     <g transform="translate(220.931875 335.860562)scale(0.1 -0.1)">
      <use xlink:href="#DejaVuSans-101"/>
      <use x="61.523438" xlink:href="#DejaVuSans-112"/>
      <use x="125" xlink:href="#DejaVuSans-111"/>
      <use x="186.181641" xlink:href="#DejaVuSans-99"/>
      <use x="241.162109" xlink:href="#DejaVuSans-104"/>
     </g>
    </g>
   </g>
   <g id="matplotlib.axis_2">
    <g id="ytick_1">
     <g id="line2d_7">
      <defs>
       <path d="M 0 0 
L -3.5 0 
" id="me7e692d621" style="stroke:#000000;stroke-width:0.8;"/>
      </defs>
      <g>
       <use style="stroke:#000000;stroke-width:0.8;" x="57.6" xlink:href="#me7e692d621" y="199.283296"/>
      </g>
     </g>
     <g id="text_8">
      <!-- $\mathdefault{10^{1}}$ -->
      <g transform="translate(33 203.082515)scale(0.1 -0.1)">
       <use transform="translate(0 0.684375)" xlink:href="#DejaVuSans-49"/>
       <use transform="translate(63.623047 0.684375)" xlink:href="#DejaVuSans-48"/>
       <use transform="translate(128.203125 38.965625)scale(0.7)" xlink:href="#DejaVuSans-49"/>
      </g>
     </g>
    </g>
    <g id="ytick_2">
     <g id="line2d_8">
      <g>
       <use style="stroke:#000000;stroke-width:0.8;" x="57.6" xlink:href="#me7e692d621" y="72.982976"/>
      </g>
     </g>
     <g id="text_9">
      <!-- $\mathdefault{10^{2}}$ -->
      <g transform="translate(33 76.782195)scale(0.1 -0.1)">
       <use transform="translate(0 0.765625)" xlink:href="#DejaVuSans-49"/>
       <use transform="translate(63.623047 0.765625)" xlink:href="#DejaVuSans-48"/>
       <use transform="translate(128.203125 39.046875)scale(0.7)" xlink:href="#DejaVuSans-50"/>
      </g>
     </g>
    </g>
    <g id="ytick_3">
     <g id="line2d_9">
      <defs>
       <path d="M 0 0 
L -2 0 
" id="mfb6126b326" style="stroke:#000000;stroke-width:0.6;"/>
      </defs>
      <g>
       <use style="stroke:#000000;stroke-width:0.6;" x="57.6" xlink:href="#mfb6126b326" y="287.563432"/>
      </g>
     </g>
    </g>
    <g id="ytick_4">
     <g id="line2d_10">
      <g>
       <use style="stroke:#000000;stroke-width:0.6;" x="57.6" xlink:href="#mfb6126b326" y="265.323049"/>
      </g>
     </g>
    </g>
    <g id="ytick_5">
     <g id="line2d_11">
      <g>
       <use style="stroke:#000000;stroke-width:0.6;" x="57.6" xlink:href="#mfb6126b326" y="249.543247"/>
      </g>
     </g>
    </g>
    <g id="ytick_6">
     <g id="line2d_12">
      <g>
       <use style="stroke:#000000;stroke-width:0.6;" x="57.6" xlink:href="#mfb6126b326" y="237.303481"/>
      </g>
     </g>
    </g>
    <g id="ytick_7">
     <g id="line2d_13">
      <g>
       <use style="stroke:#000000;stroke-width:0.6;" x="57.6" xlink:href="#mfb6126b326" y="227.302864"/>
      </g>
     </g>
    </g>
    <g id="ytick_8">
     <g id="line2d_14">
      <g>
       <use style="stroke:#000000;stroke-width:0.6;" x="57.6" xlink:href="#mfb6126b326" y="218.847463"/>
      </g>
     </g>
    </g>
    <g id="ytick_9">
     <g id="line2d_15">
      <g>
       <use style="stroke:#000000;stroke-width:0.6;" x="57.6" xlink:href="#mfb6126b326" y="211.523062"/>
      </g>
     </g>
    </g>
    <g id="ytick_10">
     <g id="line2d_16">
      <g>
       <use style="stroke:#000000;stroke-width:0.6;" x="57.6" xlink:href="#mfb6126b326" y="205.062482"/>
      </g>
     </g>
    </g>
    <g id="ytick_11">
     <g id="line2d_17">
      <g>
       <use style="stroke:#000000;stroke-width:0.6;" x="57.6" xlink:href="#mfb6126b326" y="161.263111"/>
      </g>
     </g>
    </g>
    <g id="ytick_12">
     <g id="line2d_18">
      <g>
       <use style="stroke:#000000;stroke-width:0.6;" x="57.6" xlink:href="#mfb6126b326" y="139.022729"/>
      </g>
     </g>
    </g>
    <g id="ytick_13">
     <g id="line2d_19">
      <g>
       <use style="stroke:#000000;stroke-width:0.6;" x="57.6" xlink:href="#mfb6126b326" y="123.242927"/>
      </g>
     </g>
    </g>
    <g id="ytick_14">
     <g id="line2d_20">
      <g>
       <use style="stroke:#000000;stroke-width:0.6;" x="57.6" xlink:href="#mfb6126b326" y="111.003161"/>
      </g>
     </g>
    </g>
    <g id="ytick_15">
     <g id="line2d_21">
      <g>
       <use style="stroke:#000000;stroke-width:0.6;" x="57.6" xlink:href="#mfb6126b326" y="101.002544"/>
      </g>
     </g>
    </g>
    <g id="ytick_16">
     <g id="line2d_22">
      <g>
       <use style="stroke:#000000;stroke-width:0.6;" x="57.6" xlink:href="#mfb6126b326" y="92.547143"/>
      </g>
     </g>
    </g>
    <g id="ytick_17">
     <g id="line2d_23">
      <g>
       <use style="stroke:#000000;stroke-width:0.6;" x="57.6" xlink:href="#mfb6126b326" y="85.222742"/>
      </g>
     </g>
    </g>
    <g id="ytick_18">
     <g id="line2d_24">
      <g>
       <use style="stroke:#000000;stroke-width:0.6;" x="57.6" xlink:href="#mfb6126b326" y="78.762162"/>
      </g>
     </g>
    </g>
    <g id="text_10">
     <!-- loss -->
     <defs>
      <path d="M 9.421875 75.984375 
L 18.40625 75.984375 
L 18.40625 0 
L 9.421875 0 
z
" id="DejaVuSans-108"/>
      <path d="M 44.28125 53.078125 
L 44.28125 44.578125 
Q 40.484375 46.53125 36.375 47.5 
Q 32.28125 48.484375 27.875 48.484375 
Q 21.1875 48.484375 17.84375 46.4375 
Q 14.5 44.390625 14.5 40.28125 
Q 14.5 37.15625 16.890625 35.375 
Q 19.28125 33.59375 26.515625 31.984375 
L 29.59375 31.296875 
Q 39.15625 29.25 43.1875 25.515625 
Q 47.21875 21.78125 47.21875 15.09375 
Q 47.21875 7.46875 41.1875 3.015625 
Q 35.15625 -1.421875 24.609375 -1.421875 
Q 20.21875 -1.421875 15.453125 -0.5625 
Q 10.6875 0.296875 5.421875 2 
L 5.421875 11.28125 
Q 10.40625 8.6875 15.234375 7.390625 
Q 20.0625 6.109375 24.8125 6.109375 
Q 31.15625 6.109375 34.5625 8.28125 
Q 37.984375 10.453125 37.984375 14.40625 
Q 37.984375 18.0625 35.515625 20.015625 
Q 33.0625 21.96875 24.703125 23.78125 
L 21.578125 24.515625 
Q 13.234375 26.265625 9.515625 29.90625 
Q 5.8125 33.546875 5.8125 39.890625 
Q 5.8125 47.609375 11.28125 51.796875 
Q 16.75 56 26.8125 56 
Q 31.78125 56 36.171875 55.265625 
Q 40.578125 54.546875 44.28125 53.078125 
z
" id="DejaVuSans-115"/>
     </defs>
     <g transform="translate(26.920313 184.185812)rotate(-90)scale(0.1 -0.1)">
      <use xlink:href="#DejaVuSans-108"/>
      <use x="27.783203" xlink:href="#DejaVuSans-111"/>
      <use x="88.964844" xlink:href="#DejaVuSans-115"/>
      <use x="141.064453" xlink:href="#DejaVuSans-115"/>
     </g>
    </g>
   </g>
   <g id="line2d_25">
    <path clip-path="url(#pcf593750a0)" d="M 73.832727 279.837018 
L 78.70742 280.013969 
L 82.282195 280.350827 
L 85.207011 280.827173 
L 88.456806 281.582697 
L 95.281376 283.327258 
L 104.705782 285.457867 
L 107.305618 286.168258 
L 119.004881 288.896701 
L 119.97982 289.152531 
L 126.47941 290.736455 
L 126.80439 290.761868 
L 127.454349 290.93996 
L 129.729206 291.4031 
L 131.679083 291.65736 
L 132.979001 291.908458 
L 134.928878 292.13326 
L 135.903817 292.320802 
L 137.203735 292.469883 
L 138.828632 292.618721 
L 139.803571 292.703998 
L 141.103489 292.886305 
L 146.303161 293.280848 
L 146.628141 293.268482 
L 147.2781 293.452483 
L 154.10267 293.975368 
L 154.427649 294.056164 
L 154.752629 293.909451 
L 155.402588 294.04587 
L 155.727568 294.109893 
L 156.052547 294.051939 
L 156.377527 294.154842 
L 157.027486 294.022845 
L 157.352465 294.291534 
L 158.652383 294.206567 
L 158.977363 294.311022 
L 159.952301 294.35291 
L 160.277281 294.471521 
L 161.577199 294.37893 
L 161.902179 294.537152 
L 162.877117 294.607496 
L 163.202097 294.471253 
L 163.527076 294.670357 
L 163.852056 294.723815 
L 164.177035 294.623401 
L 164.502015 294.726293 
L 165.151974 294.554692 
L 165.476953 294.754091 
L 166.451892 294.865133 
L 166.776871 294.811488 
L 167.101851 294.910099 
L 167.75181 294.881587 
L 168.07679 294.871599 
L 168.401769 294.995142 
L 168.726749 294.924681 
L 169.051728 295.010753 
L 169.701687 294.984509 
L 170.026667 295.055175 
L 170.351646 294.913504 
L 171.001605 294.9932 
L 171.651564 294.951087 
L 171.976544 295.13511 
L 172.301523 294.952386 
L 172.626503 295.133177 
L 172.951482 295.184711 
L 173.276462 295.072986 
L 173.926421 295.16044 
L 174.90136 295.148086 
L 175.226339 295.244022 
L 175.876298 295.068205 
L 176.201278 295.465321 
L 176.851237 295.190715 
L 177.826175 295.062417 
L 178.476134 295.427208 
L 179.126093 295.314978 
L 179.451073 295.241965 
L 179.776052 295.403332 
L 180.101032 295.269627 
L 180.426011 295.42236 
L 180.750991 295.414872 
L 181.075971 295.232024 
L 181.40095 295.270091 
L 181.72593 295.488 
L 182.050909 295.179092 
L 182.700868 295.11793 
L 183.025848 295.081717 
L 183.350827 295.292993 
L 183.675807 295.058153 
L 184.000786 295.310104 
L 184.325766 295.00475 
L 184.975725 294.993685 
L 185.300704 294.718014 
L 185.625684 294.750162 
L 185.950663 294.423218 
L 186.275643 291.27287 
L 186.925602 275.008442 
L 187.575561 155.860069 
L 187.900541 130.765802 
L 188.5505 105.420438 
L 189.200459 93.697645 
L 189.850418 86.618561 
L 190.175397 84.778175 
L 190.500377 83.92571 
L 190.825356 82.595892 
L 191.475315 77.941079 
L 192.125274 74.598028 
L 192.450254 74.187737 
L 193.100213 71.575951 
L 193.425192 70.767706 
L 193.750172 69.130416 
L 194.075152 68.728193 
L 194.400131 68.915449 
L 194.725111 68.514844 
L 195.05009 67.833237 
L 195.37507 66.697209 
L 195.700049 66.662622 
L 196.674988 65.221407 
L 196.999967 64.920645 
L 197.324947 65.276642 
L 197.649926 64.886127 
L 197.974906 63.878611 
L 198.299885 63.874063 
L 198.624865 63.299369 
L 198.949844 63.101718 
L 199.274824 62.147633 
L 199.924783 61.639149 
L 200.249762 61.846374 
L 200.574742 62.394234 
L 200.899722 62.00995 
L 201.224701 61.953417 
L 201.549681 61.708555 
L 201.87466 62.067266 
L 202.19964 62.239059 
L 202.524619 62.28289 
L 202.849599 62.470679 
L 203.499558 62.48104 
L 204.149517 62.189207 
L 204.474496 62.382298 
L 205.124455 61.779382 
L 205.774414 61.366682 
L 206.099394 61.196039 
L 207.074333 61.874816 
L 207.399312 62.115188 
L 207.724292 61.939894 
L 208.049271 62.00148 
L 208.374251 62.592266 
L 209.349189 62.22777 
L 210.324128 61.632681 
L 210.649107 61.322018 
L 210.974087 61.185075 
L 211.299066 61.453422 
L 211.624046 61.021615 
L 212.274005 60.85393 
L 213.248943 61.230968 
L 213.573923 61.106206 
L 213.898903 61.134581 
L 214.223882 61.285242 
L 214.548862 61.215476 
L 215.198821 60.841684 
L 215.5238 61.077192 
L 215.84878 61.005787 
L 216.498739 60.595539 
L 217.148698 60.778292 
L 217.473677 61.213235 
L 219.748534 61.778601 
L 220.723473 60.93093 
L 221.048452 61.563947 
L 221.698411 61.927048 
L 222.34837 61.611837 
L 222.67335 61.546665 
L 222.998329 61.973102 
L 223.323309 61.782371 
L 223.648288 61.739403 
L 224.298247 61.167485 
L 224.623227 61.163768 
L 225.273186 62.199042 
L 225.923145 62.366469 
L 226.248124 62.098438 
L 226.573104 62.374323 
L 226.898084 62.457175 
L 227.223063 62.77009 
L 227.548043 62.61876 
L 228.198002 62.817792 
L 228.522981 63.049732 
L 229.49792 62.548725 
L 229.822899 62.705111 
L 230.147879 62.288392 
L 230.472858 62.268072 
L 231.122817 62.769399 
L 231.772776 62.803233 
L 232.422735 63.215785 
L 232.747715 62.95789 
L 233.722654 61.743412 
L 234.047633 61.804074 
L 234.372613 62.227752 
L 234.697592 62.461165 
L 235.022572 61.858969 
L 235.347551 62.547248 
L 235.672531 62.600854 
L 235.99751 63.241823 
L 236.32249 63.40397 
L 236.647469 63.325648 
L 236.972449 63.124091 
L 237.297428 63.474845 
L 238.272367 63.745711 
L 238.922326 63.567334 
L 240.547224 64.238884 
L 241.197183 64.696479 
L 241.522162 65.084197 
L 241.847142 64.191502 
L 242.172121 64.534501 
L 242.497101 65.134269 
L 243.14706 65.066197 
L 243.472039 65.073317 
L 244.121998 65.490816 
L 244.446978 65.339219 
L 244.771957 65.453438 
L 245.746896 65.214883 
L 246.071876 64.940728 
L 246.396855 64.856281 
L 246.721835 64.975496 
L 247.046814 64.966523 
L 247.696773 65.56251 
L 248.346732 65.177301 
L 248.671712 65.408845 
L 248.996691 65.427465 
L 249.64665 66.187124 
L 250.621589 65.839509 
L 251.271548 66.336964 
L 251.596527 66.394488 
L 251.921507 66.336679 
L 252.246486 66.637016 
L 252.571466 66.14634 
L 252.896446 66.11099 
L 253.871384 66.884989 
L 254.521343 66.734732 
L 255.171302 66.235126 
L 255.496282 66.145832 
L 256.146241 66.316579 
L 257.446159 66.135064 
L 258.096118 66.010466 
L 258.421097 66.087234 
L 258.746077 66.294315 
L 259.721016 65.816458 
L 260.045995 65.588188 
L 260.695954 65.547453 
L 261.020934 65.727668 
L 261.670893 65.397894 
L 261.995872 65.4748 
L 262.320852 65.355683 
L 262.970811 65.879328 
L 263.945749 65.80265 
L 264.270729 65.33629 
L 264.595708 65.346354 
L 265.245667 65.633542 
L 265.570647 65.619963 
L 265.895627 65.376192 
L 266.545586 65.247412 
L 266.870565 65.347108 
L 267.845504 65.175742 
L 268.170483 64.897706 
L 268.820442 65.262357 
L 269.470401 64.93569 
L 270.770319 65.029717 
L 271.095299 64.713009 
L 272.070238 65.042591 
L 273.045176 64.782558 
L 273.695135 64.99862 
L 274.670074 64.495424 
L 275.320033 64.383903 
L 275.969992 64.240486 
L 276.619951 64.59724 
L 277.26991 64.536273 
L 277.919869 64.597821 
L 278.569828 64.212385 
L 278.894808 64.153547 
L 279.544767 63.758194 
L 279.869746 63.830377 
L 280.194726 64.030287 
L 280.844685 64.104246 
L 281.169664 64.181707 
L 281.494644 64.404307 
L 281.819623 64.028607 
L 283.444521 63.227927 
L 284.09448 63.40623 
L 284.744439 63.519114 
L 285.069419 63.291183 
L 285.394398 62.724989 
L 285.719378 62.728285 
L 287.344275 63.568139 
L 288.319214 63.569836 
L 289.294152 63.189293 
L 289.944111 63.265484 
L 290.59407 63.07026 
L 291.569009 63.041596 
L 291.893989 63.183237 
L 292.218968 62.930986 
L 293.193907 62.904771 
L 293.518886 62.738029 
L 293.843866 62.735478 
L 294.168845 62.355946 
L 295.143784 62.536044 
L 295.793743 62.415353 
L 296.118722 62.454027 
L 296.768681 62.160223 
L 297.74362 62.380072 
L 298.0686 62.392973 
L 300.993415 61.410411 
L 301.643374 61.542993 
L 302.293333 61.260043 
L 303.268272 61.675708 
L 303.593251 61.990025 
L 304.24321 62.134363 
L 304.56819 61.972523 
L 304.89317 61.991407 
L 305.218149 62.321777 
L 305.543129 62.482777 
L 306.518067 62.013032 
L 306.843047 62.180586 
L 307.168026 62.092752 
L 307.493006 61.829611 
L 307.817985 61.727347 
L 308.142965 61.874879 
L 308.467944 62.171319 
L 309.117903 61.922448 
L 309.442883 61.878626 
L 309.767862 61.699041 
L 310.092842 61.748795 
L 310.417821 61.680602 
L 310.742801 61.324423 
L 311.39276 61.129371 
L 311.71774 60.997159 
L 312.042719 61.142855 
L 312.367699 60.958932 
L 313.017658 61.022856 
L 315.942473 60.47123 
L 316.267453 60.642112 
L 317.242391 60.533837 
L 318.21733 60.068722 
L 318.867289 59.700177 
L 319.517248 59.596748 
L 319.842228 59.467747 
L 320.167207 59.586317 
L 320.817166 59.352028 
L 321.792105 59.506257 
L 323.092023 59.69203 
L 323.417002 59.619956 
L 324.391941 59.765246 
L 326.666798 59.814462 
L 326.991777 59.972499 
L 327.316757 59.999849 
L 327.966716 59.898607 
L 328.291695 59.994237 
L 328.616675 60.215365 
L 328.941654 60.007374 
L 329.266634 59.499151 
L 329.591613 59.528862 
L 329.916593 59.44304 
L 330.241572 59.482026 
L 330.566552 59.40715 
L 331.86647 59.87747 
L 332.19145 59.617577 
L 333.166388 59.711003 
L 333.816347 59.511014 
L 334.141327 59.583272 
L 334.791286 59.348126 
L 335.766224 59.450575 
L 336.416183 59.096404 
L 336.741163 59.203501 
L 337.066143 59.507386 
L 337.391122 59.602562 
L 338.041081 59.574045 
L 339.665979 59.997589 
L 340.315938 59.815797 
L 340.965897 59.305772 
L 341.290876 59.444932 
L 342.915774 59.383061 
L 343.240753 59.15042 
L 343.565733 59.09843 
L 343.890713 59.334865 
L 344.215692 59.318493 
L 344.540672 59.580425 
L 345.84059 59.354179 
L 346.165569 58.963231 
L 346.490549 58.780236 
L 347.465487 59.157042 
L 348.115446 58.874547 
L 348.440426 58.951052 
L 348.765405 58.876887 
L 349.740344 58.319727 
L 350.065324 58.336483 
L 351.040262 58.882862 
L 352.015201 59.430255 
L 352.66516 59.545501 
L 353.315119 59.685166 
L 353.640098 59.434116 
L 353.965078 59.345599 
L 354.615037 58.862285 
L 354.940016 58.984564 
L 355.264996 58.458706 
L 355.589975 58.181818 
L 355.914955 58.430474 
L 356.239934 58.436255 
L 356.889894 58.217692 
L 357.214873 58.174327 
L 357.539853 58.274712 
L 358.189812 59.00477 
L 358.514791 58.750772 
L 359.16475 58.710647 
L 359.48973 58.561667 
L 360.139689 58.713643 
L 360.464668 58.161773 
L 361.439607 57.882375 
L 362.089566 57.959924 
L 363.064505 57.905138 
L 363.389484 58.060172 
L 365.339361 58.099489 
L 365.98932 58.078874 
L 367.939197 57.732979 
L 368.914136 57.987787 
L 369.564095 58.142687 
L 370.539034 57.763969 
L 371.188993 57.664057 
L 371.838952 57.453782 
L 372.163931 57.341019 
L 372.488911 57.422408 
L 372.81389 57.340572 
L 373.13887 57.584989 
L 373.463849 57.495292 
L 373.788829 57.553379 
L 374.438788 57.916626 
L 375.413726 57.26868 
L 375.738706 57.3521 
L 376.388665 57.050295 
L 377.038624 56.998458 
L 377.688583 57.208082 
L 378.013563 57.134477 
L 378.338542 57.193818 
L 378.988501 56.864357 
L 379.313481 56.868825 
L 379.96344 56.698599 
L 380.288419 56.347953 
L 383.213235 56.019424 
L 383.538215 56.206151 
L 383.863194 56.260415 
L 384.188174 56.031845 
L 384.838133 55.918673 
L 385.488092 56.048812 
L 385.813071 56.136711 
L 386.138051 55.764041 
L 386.46303 55.672768 
L 386.78801 55.802274 
L 388.737887 55.682144 
L 390.687764 54.91337 
L 391.337723 54.610748 
L 391.662703 54.460376 
L 391.987682 54.444003 
L 392.312662 54.232581 
L 393.61258 54.281485 
L 394.262539 54.180767 
L 394.587518 53.925708 
L 394.912498 53.8253 
L 395.237477 54.039448 
L 395.562457 53.870214 
L 395.887437 53.568 
L 396.537396 54.004605 
L 397.187355 54.03273 
L 397.512334 53.736627 
L 397.837314 53.670027 
L 398.162293 53.765523 
L 398.487273 53.985522 
L 398.487273 53.985522 
" style="fill:none;stroke:#1f77b4;stroke-linecap:square;stroke-width:1.5;"/>
   </g>
   <g id="patch_3">
    <path d="M 57.6 307.584 
L 57.6 41.472 
" style="fill:none;stroke:#000000;stroke-linecap:square;stroke-linejoin:miter;stroke-width:0.8;"/>
   </g>
   <g id="patch_4">
    <path d="M 414.72 307.584 
L 414.72 41.472 
" style="fill:none;stroke:#000000;stroke-linecap:square;stroke-linejoin:miter;stroke-width:0.8;"/>
   </g>
   <g id="patch_5">
    <path d="M 57.6 307.584 
L 414.72 307.584 
" style="fill:none;stroke:#000000;stroke-linecap:square;stroke-linejoin:miter;stroke-width:0.8;"/>
   </g>
   <g id="patch_6">
    <path d="M 57.6 41.472 
L 414.72 41.472 
" style="fill:none;stroke:#000000;stroke-linecap:square;stroke-linejoin:miter;stroke-width:0.8;"/>
   </g>
   <g id="text_11">
    <!-- Train loss -->
    <defs>
     <path d="M -0.296875 72.90625 
L 61.375 72.90625 
L 61.375 64.59375 
L 35.5 64.59375 
L 35.5 0 
L 25.59375 0 
L 25.59375 64.59375 
L -0.296875 64.59375 
z
" id="DejaVuSans-84"/>
     <path d="M 41.109375 46.296875 
Q 39.59375 47.171875 37.8125 47.578125 
Q 36.03125 48 33.890625 48 
Q 26.265625 48 22.1875 43.046875 
Q 18.109375 38.09375 18.109375 28.8125 
L 18.109375 0 
L 9.078125 0 
L 9.078125 54.6875 
L 18.109375 54.6875 
L 18.109375 46.1875 
Q 20.953125 51.171875 25.484375 53.578125 
Q 30.03125 56 36.53125 56 
Q 37.453125 56 38.578125 55.875 
Q 39.703125 55.765625 41.0625 55.515625 
z
" id="DejaVuSans-114"/>
     <path d="M 34.28125 27.484375 
Q 23.390625 27.484375 19.1875 25 
Q 14.984375 22.515625 14.984375 16.5 
Q 14.984375 11.71875 18.140625 8.90625 
Q 21.296875 6.109375 26.703125 6.109375 
Q 34.1875 6.109375 38.703125 11.40625 
Q 43.21875 16.703125 43.21875 25.484375 
L 43.21875 27.484375 
z
M 52.203125 31.203125 
L 52.203125 0 
L 43.21875 0 
L 43.21875 8.296875 
Q 40.140625 3.328125 35.546875 0.953125 
Q 30.953125 -1.421875 24.3125 -1.421875 
Q 15.921875 -1.421875 10.953125 3.296875 
Q 6 8.015625 6 15.921875 
Q 6 25.140625 12.171875 29.828125 
Q 18.359375 34.515625 30.609375 34.515625 
L 43.21875 34.515625 
L 43.21875 35.40625 
Q 43.21875 41.609375 39.140625 45 
Q 35.0625 48.390625 27.6875 48.390625 
Q 23 48.390625 18.546875 47.265625 
Q 14.109375 46.140625 10.015625 43.890625 
L 10.015625 52.203125 
Q 14.9375 54.109375 19.578125 55.046875 
Q 24.21875 56 28.609375 56 
Q 40.484375 56 46.34375 49.84375 
Q 52.203125 43.703125 52.203125 31.203125 
z
" id="DejaVuSans-97"/>
     <path d="M 9.421875 54.6875 
L 18.40625 54.6875 
L 18.40625 0 
L 9.421875 0 
z
M 9.421875 75.984375 
L 18.40625 75.984375 
L 18.40625 64.59375 
L 9.421875 64.59375 
z
" id="DejaVuSans-105"/>
     <path d="M 54.890625 33.015625 
L 54.890625 0 
L 45.90625 0 
L 45.90625 32.71875 
Q 45.90625 40.484375 42.875 44.328125 
Q 39.84375 48.1875 33.796875 48.1875 
Q 26.515625 48.1875 22.3125 43.546875 
Q 18.109375 38.921875 18.109375 30.90625 
L 18.109375 0 
L 9.078125 0 
L 9.078125 54.6875 
L 18.109375 54.6875 
L 18.109375 46.1875 
Q 21.34375 51.125 25.703125 53.5625 
Q 30.078125 56 35.796875 56 
Q 45.21875 56 50.046875 50.171875 
Q 54.890625 44.34375 54.890625 33.015625 
z
" id="DejaVuSans-110"/>
     <path id="DejaVuSans-32"/>
    </defs>
    <g transform="translate(207.399375 35.472)scale(0.12 -0.12)">
     <use xlink:href="#DejaVuSans-84"/>
     <use x="60.865234" xlink:href="#DejaVuSans-114"/>
     <use x="101.978516" xlink:href="#DejaVuSans-97"/>
     <use x="163.257812" xlink:href="#DejaVuSans-105"/>
     <use x="191.041016" xlink:href="#DejaVuSans-110"/>
     <use x="254.419922" xlink:href="#DejaVuSans-32"/>
     <use x="286.207031" xlink:href="#DejaVuSans-108"/>
     <use x="313.990234" xlink:href="#DejaVuSans-111"/>
     <use x="375.171875" xlink:href="#DejaVuSans-115"/>
     <use x="427.271484" xlink:href="#DejaVuSans-115"/>
    </g>
   </g>
  </g>
 </g>
 <defs>
  <clipPath id="pcf593750a0">
   <rect height="266.112" width="357.12" x="57.6" y="41.472"/>
  </clipPath>
 </defs>
</svg>
