<?xml version="1.0" encoding="utf-8" standalone="no"?>
<!DOCTYPE svg PUBLIC "-//W3C//DTD SVG 1.1//EN"
  "http://www.w3.org/Graphics/SVG/1.1/DTD/svg11.dtd">
<!-- Created with matplotlib (https://matplotlib.org/) -->
<svg height="345.6pt" version="1.1" viewBox="0 0 460.8 345.6" width="460.8pt" xmlns="http://www.w3.org/2000/svg" xmlns:xlink="http://www.w3.org/1999/xlink">
 <defs>
  <style type="text/css">
*{stroke-linecap:butt;stroke-linejoin:round;}
  </style>
 </defs>
 <g id="figure_1">
  <g id="patch_1">
   <path d="M 0 345.6 
L 460.8 345.6 
L 460.8 0 
L 0 0 
z
" style="fill:#ffffff;"/>
  </g>
  <g id="axes_1">
   <g id="patch_2">
    <path d="M 57.6 307.584 
L 414.72 307.584 
L 414.72 41.472 
L 57.6 41.472 
z
" style="fill:#ffffff;"/>
   </g>
   <g id="matplotlib.axis_1">
    <g id="xtick_1">
     <g id="line2d_1">
      <defs>
       <path d="M 0 0 
L 0 3.5 
" id="m58e4451505" style="stroke:#000000;stroke-width:0.8;"/>
      </defs>
      <g>
       <use style="stroke:#000000;stroke-width:0.8;" x="73.832727" xlink:href="#m58e4451505" y="307.584"/>
      </g>
     </g>
     <g id="text_1">
      <!-- 0 -->
      <defs>
       <path d="M 31.78125 66.40625 
Q 24.171875 66.40625 20.328125 58.90625 
Q 16.5 51.421875 16.5 36.375 
Q 16.5 21.390625 20.328125 13.890625 
Q 24.171875 6.390625 31.78125 6.390625 
Q 39.453125 6.390625 43.28125 13.890625 
Q 47.125 21.390625 47.125 36.375 
Q 47.125 51.421875 43.28125 58.90625 
Q 39.453125 66.40625 31.78125 66.40625 
z
M 31.78125 74.21875 
Q 44.046875 74.21875 50.515625 64.515625 
Q 56.984375 54.828125 56.984375 36.375 
Q 56.984375 17.96875 50.515625 8.265625 
Q 44.046875 -1.421875 31.78125 -1.421875 
Q 19.53125 -1.421875 13.0625 8.265625 
Q 6.59375 17.96875 6.59375 36.375 
Q 6.59375 54.828125 13.0625 64.515625 
Q 19.53125 74.21875 31.78125 74.21875 
z
" id="DejaVuSans-48"/>
      </defs>
      <g transform="translate(70.651477 322.182437)scale(0.1 -0.1)">
       <use xlink:href="#DejaVuSans-48"/>
      </g>
     </g>
    </g>
    <g id="xtick_2">
     <g id="line2d_2">
      <g>
       <use style="stroke:#000000;stroke-width:0.8;" x="138.828632" xlink:href="#m58e4451505" y="307.584"/>
      </g>
     </g>
     <g id="text_2">
      <!-- 200 -->
      <defs>
       <path d="M 19.1875 8.296875 
L 53.609375 8.296875 
L 53.609375 0 
L 7.328125 0 
L 7.328125 8.296875 
Q 12.9375 14.109375 22.625 23.890625 
Q 32.328125 33.6875 34.8125 36.53125 
Q 39.546875 41.84375 41.421875 45.53125 
Q 43.3125 49.21875 43.3125 52.78125 
Q 43.3125 58.59375 39.234375 62.25 
Q 35.15625 65.921875 28.609375 65.921875 
Q 23.96875 65.921875 18.8125 64.3125 
Q 13.671875 62.703125 7.8125 59.421875 
L 7.8125 69.390625 
Q 13.765625 71.78125 18.9375 73 
Q 24.125 74.21875 28.421875 74.21875 
Q 39.75 74.21875 46.484375 68.546875 
Q 53.21875 62.890625 53.21875 53.421875 
Q 53.21875 48.921875 51.53125 44.890625 
Q 49.859375 40.875 45.40625 35.40625 
Q 44.1875 33.984375 37.640625 27.21875 
Q 31.109375 20.453125 19.1875 8.296875 
z
" id="DejaVuSans-50"/>
      </defs>
      <g transform="translate(129.284882 322.182437)scale(0.1 -0.1)">
       <use xlink:href="#DejaVuSans-50"/>
       <use x="63.623047" xlink:href="#DejaVuSans-48"/>
       <use x="127.246094" xlink:href="#DejaVuSans-48"/>
      </g>
     </g>
    </g>
    <g id="xtick_3">
     <g id="line2d_3">
      <g>
       <use style="stroke:#000000;stroke-width:0.8;" x="203.824537" xlink:href="#m58e4451505" y="307.584"/>
      </g>
     </g>
     <g id="text_3">
      <!-- 400 -->
      <defs>
       <path d="M 37.796875 64.3125 
L 12.890625 25.390625 
L 37.796875 25.390625 
z
M 35.203125 72.90625 
L 47.609375 72.90625 
L 47.609375 25.390625 
L 58.015625 25.390625 
L 58.015625 17.1875 
L 47.609375 17.1875 
L 47.609375 0 
L 37.796875 0 
L 37.796875 17.1875 
L 4.890625 17.1875 
L 4.890625 26.703125 
z
" id="DejaVuSans-52"/>
      </defs>
      <g transform="translate(194.280787 322.182437)scale(0.1 -0.1)">
       <use xlink:href="#DejaVuSans-52"/>
       <use x="63.623047" xlink:href="#DejaVuSans-48"/>
       <use x="127.246094" xlink:href="#DejaVuSans-48"/>
      </g>
     </g>
    </g>
    <g id="xtick_4">
     <g id="line2d_4">
      <g>
       <use style="stroke:#000000;stroke-width:0.8;" x="268.820442" xlink:href="#m58e4451505" y="307.584"/>
      </g>
     </g>
     <g id="text_4">
      <!-- 600 -->
      <defs>
       <path d="M 33.015625 40.375 
Q 26.375 40.375 22.484375 35.828125 
Q 18.609375 31.296875 18.609375 23.390625 
Q 18.609375 15.53125 22.484375 10.953125 
Q 26.375 6.390625 33.015625 6.390625 
Q 39.65625 6.390625 43.53125 10.953125 
Q 47.40625 15.53125 47.40625 23.390625 
Q 47.40625 31.296875 43.53125 35.828125 
Q 39.65625 40.375 33.015625 40.375 
z
M 52.59375 71.296875 
L 52.59375 62.3125 
Q 48.875 64.0625 45.09375 64.984375 
Q 41.3125 65.921875 37.59375 65.921875 
Q 27.828125 65.921875 22.671875 59.328125 
Q 17.53125 52.734375 16.796875 39.40625 
Q 19.671875 43.65625 24.015625 45.921875 
Q 28.375 48.1875 33.59375 48.1875 
Q 44.578125 48.1875 50.953125 41.515625 
Q 57.328125 34.859375 57.328125 23.390625 
Q 57.328125 12.15625 50.6875 5.359375 
Q 44.046875 -1.421875 33.015625 -1.421875 
Q 20.359375 -1.421875 13.671875 8.265625 
Q 6.984375 17.96875 6.984375 36.375 
Q 6.984375 53.65625 15.1875 63.9375 
Q 23.390625 74.21875 37.203125 74.21875 
Q 40.921875 74.21875 44.703125 73.484375 
Q 48.484375 72.75 52.59375 71.296875 
z
" id="DejaVuSans-54"/>
      </defs>
      <g transform="translate(259.276692 322.182437)scale(0.1 -0.1)">
       <use xlink:href="#DejaVuSans-54"/>
       <use x="63.623047" xlink:href="#DejaVuSans-48"/>
       <use x="127.246094" xlink:href="#DejaVuSans-48"/>
      </g>
     </g>
    </g>
    <g id="xtick_5">
     <g id="line2d_5">
      <g>
       <use style="stroke:#000000;stroke-width:0.8;" x="333.816347" xlink:href="#m58e4451505" y="307.584"/>
      </g>
     </g>
     <g id="text_5">
      <!-- 800 -->
      <defs>
       <path d="M 31.78125 34.625 
Q 24.75 34.625 20.71875 30.859375 
Q 16.703125 27.09375 16.703125 20.515625 
Q 16.703125 13.921875 20.71875 10.15625 
Q 24.75 6.390625 31.78125 6.390625 
Q 38.8125 6.390625 42.859375 10.171875 
Q 46.921875 13.96875 46.921875 20.515625 
Q 46.921875 27.09375 42.890625 30.859375 
Q 38.875 34.625 31.78125 34.625 
z
M 21.921875 38.8125 
Q 15.578125 40.375 12.03125 44.71875 
Q 8.5 49.078125 8.5 55.328125 
Q 8.5 64.0625 14.71875 69.140625 
Q 20.953125 74.21875 31.78125 74.21875 
Q 42.671875 74.21875 48.875 69.140625 
Q 55.078125 64.0625 55.078125 55.328125 
Q 55.078125 49.078125 51.53125 44.71875 
Q 48 40.375 41.703125 38.8125 
Q 48.828125 37.15625 52.796875 32.3125 
Q 56.78125 27.484375 56.78125 20.515625 
Q 56.78125 9.90625 50.3125 4.234375 
Q 43.84375 -1.421875 31.78125 -1.421875 
Q 19.734375 -1.421875 13.25 4.234375 
Q 6.78125 9.90625 6.78125 20.515625 
Q 6.78125 27.484375 10.78125 32.3125 
Q 14.796875 37.15625 21.921875 38.8125 
z
M 18.3125 54.390625 
Q 18.3125 48.734375 21.84375 45.5625 
Q 25.390625 42.390625 31.78125 42.390625 
Q 38.140625 42.390625 41.71875 45.5625 
Q 45.3125 48.734375 45.3125 54.390625 
Q 45.3125 60.0625 41.71875 63.234375 
Q 38.140625 66.40625 31.78125 66.40625 
Q 25.390625 66.40625 21.84375 63.234375 
Q 18.3125 60.0625 18.3125 54.390625 
z
" id="DejaVuSans-56"/>
      </defs>
      <g transform="translate(324.272597 322.182437)scale(0.1 -0.1)">
       <use xlink:href="#DejaVuSans-56"/>
       <use x="63.623047" xlink:href="#DejaVuSans-48"/>
       <use x="127.246094" xlink:href="#DejaVuSans-48"/>
      </g>
     </g>
    </g>
    <g id="xtick_6">
     <g id="line2d_6">
      <g>
       <use style="stroke:#000000;stroke-width:0.8;" x="398.812252" xlink:href="#m58e4451505" y="307.584"/>
      </g>
     </g>
     <g id="text_6">
      <!-- 1000 -->
      <defs>
       <path d="M 12.40625 8.296875 
L 28.515625 8.296875 
L 28.515625 63.921875 
L 10.984375 60.40625 
L 10.984375 69.390625 
L 28.421875 72.90625 
L 38.28125 72.90625 
L 38.28125 8.296875 
L 54.390625 8.296875 
L 54.390625 0 
L 12.40625 0 
z
" id="DejaVuSans-49"/>
      </defs>
      <g transform="translate(386.087252 322.182437)scale(0.1 -0.1)">
       <use xlink:href="#DejaVuSans-49"/>
       <use x="63.623047" xlink:href="#DejaVuSans-48"/>
       <use x="127.246094" xlink:href="#DejaVuSans-48"/>
       <use x="190.869141" xlink:href="#DejaVuSans-48"/>
      </g>
     </g>
    </g>
    <g id="text_7">
     <!-- epoch -->
     <defs>
      <path d="M 56.203125 29.59375 
L 56.203125 25.203125 
L 14.890625 25.203125 
Q 15.484375 15.921875 20.484375 11.0625 
Q 25.484375 6.203125 34.421875 6.203125 
Q 39.59375 6.203125 44.453125 7.46875 
Q 49.3125 8.734375 54.109375 11.28125 
L 54.109375 2.78125 
Q 49.265625 0.734375 44.1875 -0.34375 
Q 39.109375 -1.421875 33.890625 -1.421875 
Q 20.796875 -1.421875 13.15625 6.1875 
Q 5.515625 13.8125 5.515625 26.8125 
Q 5.515625 40.234375 12.765625 48.109375 
Q 20.015625 56 32.328125 56 
Q 43.359375 56 49.78125 48.890625 
Q 56.203125 41.796875 56.203125 29.59375 
z
M 47.21875 32.234375 
Q 47.125 39.59375 43.09375 43.984375 
Q 39.0625 48.390625 32.421875 48.390625 
Q 24.90625 48.390625 20.390625 44.140625 
Q 15.875 39.890625 15.1875 32.171875 
z
" id="DejaVuSans-101"/>
      <path d="M 18.109375 8.203125 
L 18.109375 -20.796875 
L 9.078125 -20.796875 
L 9.078125 54.6875 
L 18.109375 54.6875 
L 18.109375 46.390625 
Q 20.953125 51.265625 25.265625 53.625 
Q 29.59375 56 35.59375 56 
Q 45.5625 56 51.78125 48.09375 
Q 58.015625 40.1875 58.015625 27.296875 
Q 58.015625 14.40625 51.78125 6.484375 
Q 45.5625 -1.421875 35.59375 -1.421875 
Q 29.59375 -1.421875 25.265625 0.953125 
Q 20.953125 3.328125 18.109375 8.203125 
z
M 48.6875 27.296875 
Q 48.6875 37.203125 44.609375 42.84375 
Q 40.53125 48.484375 33.40625 48.484375 
Q 26.265625 48.484375 22.1875 42.84375 
Q 18.109375 37.203125 18.109375 27.296875 
Q 18.109375 17.390625 22.1875 11.75 
Q 26.265625 6.109375 33.40625 6.109375 
Q 40.53125 6.109375 44.609375 11.75 
Q 48.6875 17.390625 48.6875 27.296875 
z
" id="DejaVuSans-112"/>
      <path d="M 30.609375 48.390625 
Q 23.390625 48.390625 19.1875 42.75 
Q 14.984375 37.109375 14.984375 27.296875 
Q 14.984375 17.484375 19.15625 11.84375 
Q 23.34375 6.203125 30.609375 6.203125 
Q 37.796875 6.203125 41.984375 11.859375 
Q 46.1875 17.53125 46.1875 27.296875 
Q 46.1875 37.015625 41.984375 42.703125 
Q 37.796875 48.390625 30.609375 48.390625 
z
M 30.609375 56 
Q 42.328125 56 49.015625 48.375 
Q 55.71875 40.765625 55.71875 27.296875 
Q 55.71875 13.875 49.015625 6.21875 
Q 42.328125 -1.421875 30.609375 -1.421875 
Q 18.84375 -1.421875 12.171875 6.21875 
Q 5.515625 13.875 5.515625 27.296875 
Q 5.515625 40.765625 12.171875 48.375 
Q 18.84375 56 30.609375 56 
z
" id="DejaVuSans-111"/>
      <path d="M 48.78125 52.59375 
L 48.78125 44.1875 
Q 44.96875 46.296875 41.140625 47.34375 
Q 37.3125 48.390625 33.40625 48.390625 
Q 24.65625 48.390625 19.8125 42.84375 
Q 14.984375 37.3125 14.984375 27.296875 
Q 14.984375 17.28125 19.8125 11.734375 
Q 24.65625 6.203125 33.40625 6.203125 
Q 37.3125 6.203125 41.140625 7.25 
Q 44.96875 8.296875 48.78125 10.40625 
L 48.78125 2.09375 
Q 45.015625 0.34375 40.984375 -0.53125 
Q 36.96875 -1.421875 32.421875 -1.421875 
Q 20.0625 -1.421875 12.78125 6.34375 
Q 5.515625 14.109375 5.515625 27.296875 
Q 5.515625 40.671875 12.859375 48.328125 
Q 20.21875 56 33.015625 56 
Q 37.15625 56 41.109375 55.140625 
Q 45.0625 54.296875 48.78125 52.59375 
z
" id="DejaVuSans-99"/>
      <path d="M 54.890625 33.015625 
L 54.890625 0 
L 45.90625 0 
L 45.90625 32.71875 
Q 45.90625 40.484375 42.875 44.328125 
Q 39.84375 48.1875 33.796875 48.1875 
Q 26.515625 48.1875 22.3125 43.546875 
Q 18.109375 38.921875 18.109375 30.90625 
L 18.109375 0 
L 9.078125 0 
L 9.078125 75.984375 
L 18.109375 75.984375 
L 18.109375 46.1875 
Q 21.34375 51.125 25.703125 53.5625 
Q 30.078125 56 35.796875 56 
Q 45.21875 56 50.046875 50.171875 
Q 54.890625 44.34375 54.890625 33.015625 
z
" id="DejaVuSans-104"/>
     </defs>
     <g transform="translate(220.931875 335.860562)scale(0.1 -0.1)">
      <use xlink:href="#DejaVuSans-101"/>
      <use x="61.523438" xlink:href="#DejaVuSans-112"/>
      <use x="125" xlink:href="#DejaVuSans-111"/>
      <use x="186.181641" xlink:href="#DejaVuSans-99"/>
      <use x="241.162109" xlink:href="#DejaVuSans-104"/>
     </g>
    </g>
   </g>
   <g id="matplotlib.axis_2">
    <g id="ytick_1">
     <g id="line2d_7">
      <defs>
       <path d="M 0 0 
L -2 0 
" id="mb1289e34ef" style="stroke:#000000;stroke-width:0.6;"/>
      </defs>
      <g>
       <use style="stroke:#000000;stroke-width:0.6;" x="57.6" xlink:href="#mb1289e34ef" y="301.718296"/>
      </g>
     </g>
     <g id="text_8">
      <!-- $\mathdefault{1.7\times10^{0}}$ -->
      <defs>
       <path d="M 10.6875 12.40625 
L 21 12.40625 
L 21 0 
L 10.6875 0 
z
" id="DejaVuSans-46"/>
       <path d="M 8.203125 72.90625 
L 55.078125 72.90625 
L 55.078125 68.703125 
L 28.609375 0 
L 18.3125 0 
L 43.21875 64.59375 
L 8.203125 64.59375 
z
" id="DejaVuSans-55"/>
       <path d="M 70.125 53.71875 
L 47.796875 31.296875 
L 70.125 8.984375 
L 64.3125 3.078125 
L 41.890625 25.484375 
L 19.484375 3.078125 
L 13.71875 8.984375 
L 35.984375 31.296875 
L 13.71875 53.71875 
L 19.484375 59.625 
L 41.890625 37.203125 
L 64.3125 59.625 
z
" id="DejaVuSans-215"/>
      </defs>
      <g transform="translate(6.4 305.517515)scale(0.1 -0.1)">
       <use transform="translate(0 0.765625)" xlink:href="#DejaVuSans-49"/>
       <use transform="translate(63.623047 0.765625)" xlink:href="#DejaVuSans-46"/>
       <use transform="translate(95.300781 0.765625)" xlink:href="#DejaVuSans-55"/>
       <use transform="translate(178.40625 0.765625)" xlink:href="#DejaVuSans-215"/>
       <use transform="translate(281.677734 0.765625)" xlink:href="#DejaVuSans-49"/>
       <use transform="translate(345.300781 0.765625)" xlink:href="#DejaVuSans-48"/>
       <use transform="translate(409.880859 39.046875)scale(0.7)" xlink:href="#DejaVuSans-48"/>
      </g>
     </g>
    </g>
    <g id="ytick_2">
     <g id="line2d_8">
      <g>
       <use style="stroke:#000000;stroke-width:0.6;" x="57.6" xlink:href="#mb1289e34ef" y="254.964302"/>
      </g>
     </g>
     <g id="text_9">
      <!-- $\mathdefault{1.8\times10^{0}}$ -->
      <g transform="translate(6.4 258.763521)scale(0.1 -0.1)">
       <use transform="translate(0 0.765625)" xlink:href="#DejaVuSans-49"/>
       <use transform="translate(63.623047 0.765625)" xlink:href="#DejaVuSans-46"/>
       <use transform="translate(95.378906 0.765625)" xlink:href="#DejaVuSans-56"/>
       <use transform="translate(178.484375 0.765625)" xlink:href="#DejaVuSans-215"/>
       <use transform="translate(281.755859 0.765625)" xlink:href="#DejaVuSans-49"/>
       <use transform="translate(345.378906 0.765625)" xlink:href="#DejaVuSans-48"/>
       <use transform="translate(409.958984 39.046875)scale(0.7)" xlink:href="#DejaVuSans-48"/>
      </g>
     </g>
    </g>
    <g id="ytick_3">
     <g id="line2d_9">
      <g>
       <use style="stroke:#000000;stroke-width:0.6;" x="57.6" xlink:href="#mb1289e34ef" y="210.738818"/>
      </g>
     </g>
     <g id="text_10">
      <!-- $\mathdefault{1.9\times10^{0}}$ -->
      <defs>
       <path d="M 10.984375 1.515625 
L 10.984375 10.5 
Q 14.703125 8.734375 18.5 7.8125 
Q 22.3125 6.890625 25.984375 6.890625 
Q 35.75 6.890625 40.890625 13.453125 
Q 46.046875 20.015625 46.78125 33.40625 
Q 43.953125 29.203125 39.59375 26.953125 
Q 35.25 24.703125 29.984375 24.703125 
Q 19.046875 24.703125 12.671875 31.3125 
Q 6.296875 37.9375 6.296875 49.421875 
Q 6.296875 60.640625 12.9375 67.421875 
Q 19.578125 74.21875 30.609375 74.21875 
Q 43.265625 74.21875 49.921875 64.515625 
Q 56.59375 54.828125 56.59375 36.375 
Q 56.59375 19.140625 48.40625 8.859375 
Q 40.234375 -1.421875 26.421875 -1.421875 
Q 22.703125 -1.421875 18.890625 -0.6875 
Q 15.09375 0.046875 10.984375 1.515625 
z
M 30.609375 32.421875 
Q 37.25 32.421875 41.125 36.953125 
Q 45.015625 41.5 45.015625 49.421875 
Q 45.015625 57.28125 41.125 61.84375 
Q 37.25 66.40625 30.609375 66.40625 
Q 23.96875 66.40625 20.09375 61.84375 
Q 16.21875 57.28125 16.21875 49.421875 
Q 16.21875 41.5 20.09375 36.953125 
Q 23.96875 32.421875 30.609375 32.421875 
z
" id="DejaVuSans-57"/>
      </defs>
      <g transform="translate(6.4 214.538037)scale(0.1 -0.1)">
       <use transform="translate(0 0.765625)" xlink:href="#DejaVuSans-49"/>
       <use transform="translate(63.623047 0.765625)" xlink:href="#DejaVuSans-46"/>
       <use transform="translate(95.410156 0.765625)" xlink:href="#DejaVuSans-57"/>
       <use transform="translate(178.515625 0.765625)" xlink:href="#DejaVuSans-215"/>
       <use transform="translate(281.787109 0.765625)" xlink:href="#DejaVuSans-49"/>
       <use transform="translate(345.410156 0.765625)" xlink:href="#DejaVuSans-48"/>
       <use transform="translate(409.990234 39.046875)scale(0.7)" xlink:href="#DejaVuSans-48"/>
      </g>
     </g>
    </g>
    <g id="ytick_4">
     <g id="line2d_10">
      <g>
       <use style="stroke:#000000;stroke-width:0.6;" x="57.6" xlink:href="#mb1289e34ef" y="168.782329"/>
      </g>
     </g>
     <g id="text_11">
      <!-- $\mathdefault{2\times10^{0}}$ -->
      <g transform="translate(16 172.581548)scale(0.1 -0.1)">
       <use transform="translate(0 0.765625)" xlink:href="#DejaVuSans-50"/>
       <use transform="translate(83.105469 0.765625)" xlink:href="#DejaVuSans-215"/>
       <use transform="translate(186.376953 0.765625)" xlink:href="#DejaVuSans-49"/>
       <use transform="translate(250 0.765625)" xlink:href="#DejaVuSans-48"/>
       <use transform="translate(314.580078 39.046875)scale(0.7)" xlink:href="#DejaVuSans-48"/>
      </g>
     </g>
    </g>
    <g id="ytick_5">
     <g id="line2d_11">
      <g>
       <use style="stroke:#000000;stroke-width:0.6;" x="57.6" xlink:href="#mb1289e34ef" y="128.873331"/>
      </g>
     </g>
     <g id="text_12">
      <!-- $\mathdefault{2.1\times10^{0}}$ -->
      <g transform="translate(6.4 132.67255)scale(0.1 -0.1)">
       <use transform="translate(0 0.765625)" xlink:href="#DejaVuSans-50"/>
       <use transform="translate(63.623047 0.765625)" xlink:href="#DejaVuSans-46"/>
       <use transform="translate(95.410156 0.765625)" xlink:href="#DejaVuSans-49"/>
       <use transform="translate(178.515625 0.765625)" xlink:href="#DejaVuSans-215"/>
       <use transform="translate(281.787109 0.765625)" xlink:href="#DejaVuSans-49"/>
       <use transform="translate(345.410156 0.765625)" xlink:href="#DejaVuSans-48"/>
       <use transform="translate(409.990234 39.046875)scale(0.7)" xlink:href="#DejaVuSans-48"/>
      </g>
     </g>
    </g>
    <g id="ytick_6">
     <g id="line2d_12">
      <g>
       <use style="stroke:#000000;stroke-width:0.6;" x="57.6" xlink:href="#mb1289e34ef" y="90.821252"/>
      </g>
     </g>
     <g id="text_13">
      <!-- $\mathdefault{2.2\times10^{0}}$ -->
      <g transform="translate(6.4 94.62047)scale(0.1 -0.1)">
       <use transform="translate(0 0.765625)" xlink:href="#DejaVuSans-50"/>
       <use transform="translate(63.623047 0.765625)" xlink:href="#DejaVuSans-46"/>
       <use transform="translate(95.332031 0.765625)" xlink:href="#DejaVuSans-50"/>
       <use transform="translate(178.4375 0.765625)" xlink:href="#DejaVuSans-215"/>
       <use transform="translate(281.708984 0.765625)" xlink:href="#DejaVuSans-49"/>
       <use transform="translate(345.332031 0.765625)" xlink:href="#DejaVuSans-48"/>
       <use transform="translate(409.912109 39.046875)scale(0.7)" xlink:href="#DejaVuSans-48"/>
      </g>
     </g>
    </g>
    <g id="ytick_7">
     <g id="line2d_13">
      <g>
       <use style="stroke:#000000;stroke-width:0.6;" x="57.6" xlink:href="#mb1289e34ef" y="54.460945"/>
      </g>
     </g>
     <g id="text_14">
      <!-- $\mathdefault{2.3\times10^{0}}$ -->
      <defs>
       <path d="M 40.578125 39.3125 
Q 47.65625 37.796875 51.625 33 
Q 55.609375 28.21875 55.609375 21.1875 
Q 55.609375 10.40625 48.1875 4.484375 
Q 40.765625 -1.421875 27.09375 -1.421875 
Q 22.515625 -1.421875 17.65625 -0.515625 
Q 12.796875 0.390625 7.625 2.203125 
L 7.625 11.71875 
Q 11.71875 9.328125 16.59375 8.109375 
Q 21.484375 6.890625 26.8125 6.890625 
Q 36.078125 6.890625 40.9375 10.546875 
Q 45.796875 14.203125 45.796875 21.1875 
Q 45.796875 27.640625 41.28125 31.265625 
Q 36.765625 34.90625 28.71875 34.90625 
L 20.21875 34.90625 
L 20.21875 43.015625 
L 29.109375 43.015625 
Q 36.375 43.015625 40.234375 45.921875 
Q 44.09375 48.828125 44.09375 54.296875 
Q 44.09375 59.90625 40.109375 62.90625 
Q 36.140625 65.921875 28.71875 65.921875 
Q 24.65625 65.921875 20.015625 65.03125 
Q 15.375 64.15625 9.8125 62.3125 
L 9.8125 71.09375 
Q 15.4375 72.65625 20.34375 73.4375 
Q 25.25 74.21875 29.59375 74.21875 
Q 40.828125 74.21875 47.359375 69.109375 
Q 53.90625 64.015625 53.90625 55.328125 
Q 53.90625 49.265625 50.4375 45.09375 
Q 46.96875 40.921875 40.578125 39.3125 
z
" id="DejaVuSans-51"/>
      </defs>
      <g transform="translate(6.4 58.260164)scale(0.1 -0.1)">
       <use transform="translate(0 0.765625)" xlink:href="#DejaVuSans-50"/>
       <use transform="translate(63.623047 0.765625)" xlink:href="#DejaVuSans-46"/>
       <use transform="translate(95.410156 0.765625)" xlink:href="#DejaVuSans-51"/>
       <use transform="translate(178.515625 0.765625)" xlink:href="#DejaVuSans-215"/>
       <use transform="translate(281.787109 0.765625)" xlink:href="#DejaVuSans-49"/>
       <use transform="translate(345.410156 0.765625)" xlink:href="#DejaVuSans-48"/>
       <use transform="translate(409.990234 39.046875)scale(0.7)" xlink:href="#DejaVuSans-48"/>
      </g>
     </g>
    </g>
    <g id="text_15">
     <!-- loss -->
     <defs>
      <path d="M 9.421875 75.984375 
L 18.40625 75.984375 
L 18.40625 0 
L 9.421875 0 
z
" id="DejaVuSans-108"/>
      <path d="M 44.28125 53.078125 
L 44.28125 44.578125 
Q 40.484375 46.53125 36.375 47.5 
Q 32.28125 48.484375 27.875 48.484375 
Q 21.1875 48.484375 17.84375 46.4375 
Q 14.5 44.390625 14.5 40.28125 
Q 14.5 37.15625 16.890625 35.375 
Q 19.28125 33.59375 26.515625 31.984375 
L 29.59375 31.296875 
Q 39.15625 29.25 43.1875 25.515625 
Q 47.21875 21.78125 47.21875 15.09375 
Q 47.21875 7.46875 41.1875 3.015625 
Q 35.15625 -1.421875 24.609375 -1.421875 
Q 20.21875 -1.421875 15.453125 -0.5625 
Q 10.6875 0.296875 5.421875 2 
L 5.421875 11.28125 
Q 10.40625 8.6875 15.234375 7.390625 
Q 20.0625 6.109375 24.8125 6.109375 
Q 31.15625 6.109375 34.5625 8.28125 
Q 37.984375 10.453125 37.984375 14.40625 
Q 37.984375 18.0625 35.515625 20.015625 
Q 33.0625 21.96875 24.703125 23.78125 
L 21.578125 24.515625 
Q 13.234375 26.265625 9.515625 29.90625 
Q 5.8125 33.546875 5.8125 39.890625 
Q 5.8125 47.609375 11.28125 51.796875 
Q 16.75 56 26.8125 56 
Q 31.78125 56 36.171875 55.265625 
Q 40.578125 54.546875 44.28125 53.078125 
z
" id="DejaVuSans-115"/>
     </defs>
     <g transform="translate(0.320312 184.185812)rotate(-90)scale(0.1 -0.1)">
      <use xlink:href="#DejaVuSans-108"/>
      <use x="27.783203" xlink:href="#DejaVuSans-111"/>
      <use x="88.964844" xlink:href="#DejaVuSans-115"/>
      <use x="141.064453" xlink:href="#DejaVuSans-115"/>
     </g>
    </g>
   </g>
   <g id="line2d_14">
    <path clip-path="url(#pc1ae70b593)" d="M 73.832727 53.568 
L 75.782604 53.750629 
L 80.657297 54.277473 
L 86.181949 55.09302 
L 88.781785 55.702183 
L 91.381622 56.436954 
L 94.306437 57.519029 
L 97.881212 59.267653 
L 101.455987 61.542416 
L 105.030762 64.414494 
L 107.305618 66.554576 
L 108.930516 68.266543 
L 111.855332 71.73559 
L 114.455168 75.247469 
L 117.055004 79.368398 
L 120.629779 86.009917 
L 122.904636 90.733327 
L 126.47941 98.371416 
L 129.729206 104.648867 
L 131.029124 106.847202 
L 132.654021 109.45327 
L 133.62896 110.824986 
L 135.253857 113.185339 
L 135.903817 114.074191 
L 140.12855 120.303693 
L 146.95312 132.215617 
L 148.578018 135.252305 
L 149.227977 136.471776 
L 157.027486 150.82773 
L 166.451892 166.716271 
L 167.101851 167.809719 
L 168.07679 169.462604 
L 185.300704 196.936049 
L 186.925602 199.316196 
L 188.5505 201.768141 
L 189.200459 202.639956 
L 190.175397 203.985373 
L 190.825356 204.884117 
L 191.800295 206.171087 
L 192.450254 207.072887 
L 197.324947 212.839609 
L 200.249762 215.995929 
L 200.574742 216.177796 
L 201.87466 217.493214 
L 202.19964 217.777464 
L 202.524619 218.243185 
L 202.849599 218.311028 
L 203.499558 219.23297 
L 203.824537 219.401911 
L 204.474496 220.24247 
L 204.799476 220.438658 
L 205.449435 221.033803 
L 205.774414 221.251813 
L 206.099394 221.70899 
L 206.749353 222.256472 
L 207.399312 222.976252 
L 210.974087 226.058294 
L 211.299066 226.12715 
L 211.949025 226.81877 
L 212.598984 227.363085 
L 213.573923 228.171723 
L 214.223882 228.571484 
L 214.873841 229.254949 
L 215.198821 229.387049 
L 215.84878 230.005519 
L 216.498739 230.369248 
L 216.823718 230.529444 
L 217.148698 231.062905 
L 217.798657 231.628723 
L 218.123636 231.519323 
L 218.448616 232.018519 
L 220.073514 233.310746 
L 220.398493 233.343815 
L 220.723473 233.662426 
L 221.048452 233.732753 
L 221.373432 234.236375 
L 222.023391 234.483646 
L 223.323309 235.689984 
L 223.648288 235.613005 
L 224.948206 236.642511 
L 225.598165 236.956613 
L 225.923145 237.388601 
L 229.49792 239.470971 
L 229.822899 239.834868 
L 230.147879 239.919515 
L 230.472858 240.415594 
L 230.797838 240.594986 
L 231.122817 240.613577 
L 231.447797 240.981195 
L 233.397674 241.84296 
L 233.722654 242.366961 
L 234.697592 242.997213 
L 235.022572 243.061826 
L 235.347551 243.439977 
L 236.647469 244.008812 
L 236.972449 244.223847 
L 237.297428 244.109851 
L 237.622408 244.585789 
L 237.947387 244.734986 
L 238.272367 245.097102 
L 238.597346 244.91802 
L 238.922326 245.053015 
L 239.897265 245.948143 
L 240.222244 246.188409 
L 240.547224 246.063161 
L 240.872203 246.576124 
L 241.197183 246.608762 
L 241.522162 246.872257 
L 241.847142 246.795796 
L 242.172121 247.16554 
L 242.497101 247.27335 
L 242.82208 247.227847 
L 243.14706 247.411775 
L 243.472039 247.975054 
L 243.797019 247.719335 
L 244.446978 248.564447 
L 244.771957 248.736895 
L 245.096937 248.736366 
L 245.421916 248.913637 
L 245.746896 248.93598 
L 246.071876 249.246395 
L 246.396855 249.271768 
L 247.046814 249.929225 
L 247.371794 249.942469 
L 247.696773 250.145114 
L 248.346732 250.340583 
L 248.671712 250.871444 
L 248.996691 250.6598 
L 249.97163 251.450046 
L 250.296609 251.497447 
L 250.621589 251.834338 
L 251.271548 251.964439 
L 251.596527 252.087985 
L 251.921507 252.428762 
L 252.246486 252.494199 
L 252.571466 252.716982 
L 252.896446 252.774567 
L 253.221425 252.979433 
L 253.546405 252.981608 
L 253.871384 253.364379 
L 254.196364 253.2773 
L 254.521343 253.794465 
L 254.846323 253.695384 
L 255.171302 254.110572 
L 255.821261 254.308656 
L 256.146241 254.441552 
L 256.47122 254.342561 
L 257.121179 254.909017 
L 257.446159 255.061132 
L 257.771138 255.450799 
L 258.096118 255.357676 
L 258.421097 255.599543 
L 258.746077 255.619945 
L 259.721016 256.361762 
L 260.045995 256.283887 
L 261.020934 256.624325 
L 261.345913 256.995496 
L 261.670893 256.888675 
L 261.995872 257.054512 
L 262.320852 257.38459 
L 262.645831 257.463688 
L 262.970811 257.796955 
L 263.29579 257.838007 
L 263.62077 258.213964 
L 263.945749 258.268478 
L 264.270729 257.995667 
L 264.595708 258.48129 
L 264.920688 258.42302 
L 265.895627 259.145032 
L 266.545586 259.002872 
L 266.870565 259.451392 
L 267.195545 259.444118 
L 267.520524 259.891286 
L 267.845504 260.10541 
L 268.170483 260.163594 
L 268.820442 259.95403 
L 269.145422 260.119451 
L 269.470401 260.520567 
L 270.12036 260.688139 
L 270.770319 261.291746 
L 271.745258 261.669874 
L 272.070238 261.593849 
L 272.395217 261.926604 
L 272.720197 261.898299 
L 273.045176 262.237594 
L 274.020115 262.42358 
L 274.345094 262.394712 
L 274.670074 262.703576 
L 274.995053 262.764873 
L 275.320033 263.225198 
L 276.619951 263.57851 
L 276.94493 263.933014 
L 277.594889 264.022987 
L 278.569828 264.327004 
L 278.894808 264.688561 
L 280.194726 265.129826 
L 280.519705 264.73953 
L 280.844685 265.249321 
L 281.169664 265.495553 
L 281.819623 265.62395 
L 282.144603 265.994284 
L 282.469582 265.752755 
L 282.794562 265.911138 
L 283.119541 265.833175 
L 283.444521 266.610842 
L 283.7695 266.325212 
L 284.09448 266.724671 
L 284.419459 266.861835 
L 284.744439 266.464621 
L 285.069419 266.96552 
L 286.044357 267.616149 
L 286.369337 267.477669 
L 286.694316 267.891242 
L 287.019296 268.089001 
L 287.344275 267.957154 
L 287.669255 268.198914 
L 287.994234 268.027626 
L 288.319214 268.348352 
L 288.644193 268.424398 
L 288.969173 268.688935 
L 289.294152 268.809091 
L 289.619132 268.590894 
L 289.944111 269.015155 
L 290.269091 268.71661 
L 291.244029 269.631266 
L 291.569009 269.713595 
L 291.893989 269.398117 
L 292.218968 269.722097 
L 292.543948 269.495787 
L 292.868927 269.767807 
L 293.193907 270.380741 
L 293.518886 270.337771 
L 293.843866 270.410205 
L 294.493825 270.314369 
L 294.818804 270.84225 
L 295.793743 271.343526 
L 296.118722 271.160114 
L 296.443702 271.250844 
L 296.768681 271.64565 
L 297.093661 271.793032 
L 297.41864 271.187053 
L 297.74362 271.949334 
L 298.0686 271.586464 
L 298.393579 272.295091 
L 298.718559 272.011515 
L 299.043538 272.470343 
L 300.343456 272.956031 
L 300.668436 272.7098 
L 301.318395 273.271499 
L 301.643374 273.256344 
L 302.293333 273.523387 
L 302.618313 273.577734 
L 303.268272 273.941706 
L 303.593251 273.609558 
L 303.918231 273.699205 
L 304.24321 273.960569 
L 304.56819 274.017293 
L 304.89317 273.774841 
L 305.543129 274.941353 
L 306.193088 275.004274 
L 306.518067 274.847818 
L 306.843047 275.238604 
L 307.168026 275.051038 
L 307.493006 275.460411 
L 307.817985 275.597012 
L 308.142965 275.581488 
L 309.117903 276.034875 
L 309.442883 275.403431 
L 309.767862 275.95066 
L 310.092842 276.133122 
L 310.417821 275.868899 
L 310.742801 276.491484 
L 311.067781 276.326993 
L 311.39276 275.680834 
L 311.71774 276.369732 
L 312.367699 276.778734 
L 312.692678 277.337197 
L 313.017658 277.205672 
L 313.667617 277.327602 
L 313.992596 277.57007 
L 314.317576 277.065954 
L 314.642555 277.832261 
L 314.967535 277.629836 
L 315.292514 277.95028 
L 315.617494 277.682547 
L 315.942473 278.033271 
L 316.267453 277.721611 
L 316.592432 278.17439 
L 316.917412 278.140015 
L 317.242391 278.539743 
L 317.567371 278.447255 
L 317.892351 278.691211 
L 318.54231 278.513029 
L 318.867289 279.161995 
L 319.192269 279.376654 
L 319.517248 279.329542 
L 319.842228 278.817632 
L 320.167207 279.186394 
L 320.492187 279.765065 
L 321.142146 279.605948 
L 321.792105 280.069842 
L 322.117084 279.474227 
L 322.442064 279.529223 
L 322.767043 280.237847 
L 323.092023 280.566414 
L 323.417002 280.391947 
L 323.741982 280.557323 
L 324.066962 280.93896 
L 324.391941 280.597543 
L 324.716921 281.068117 
L 325.36688 281.376729 
L 325.691859 280.632137 
L 326.016839 280.7251 
L 326.341818 281.370029 
L 326.991777 281.793736 
L 327.316757 281.640022 
L 327.641736 282.175763 
L 327.966716 281.999978 
L 329.591613 282.586254 
L 329.916593 282.419093 
L 330.241572 282.885155 
L 330.566552 282.940514 
L 330.891532 283.110784 
L 331.216511 282.816526 
L 331.541491 282.983404 
L 331.86647 282.729304 
L 332.19145 282.893085 
L 332.841409 283.52224 
L 334.466306 283.802235 
L 334.791286 284.297968 
L 335.116265 284.411291 
L 335.441245 284.037034 
L 335.766224 284.209904 
L 336.091204 283.902894 
L 336.416183 284.204937 
L 336.741163 284.337139 
L 337.066143 284.817404 
L 337.716102 284.650717 
L 338.041081 285.118017 
L 338.69104 285.36837 
L 339.01602 285.298795 
L 339.665979 285.82535 
L 339.990958 285.880575 
L 340.315938 285.585659 
L 340.640917 285.713697 
L 341.615856 285.608331 
L 341.940835 286.229041 
L 342.265815 286.361798 
L 342.590794 286.189479 
L 342.915774 286.622305 
L 343.240753 285.974733 
L 343.890713 286.883277 
L 344.540672 286.914761 
L 344.865651 286.503425 
L 345.190631 286.595201 
L 345.51561 286.8787 
L 345.84059 287.3838 
L 346.165569 287.491611 
L 346.490549 287.213522 
L 347.140508 287.447304 
L 347.465487 287.890396 
L 347.790467 287.67914 
L 348.115446 287.303414 
L 348.440426 287.10151 
L 348.765405 287.581756 
L 349.090385 288.524289 
L 349.415364 288.266343 
L 349.740344 288.475277 
L 350.065324 288.125791 
L 350.390303 288.577741 
L 350.715283 288.64301 
L 351.690221 288.440877 
L 352.015201 288.683103 
L 352.34018 289.244133 
L 352.66516 289.173039 
L 352.990139 288.843346 
L 353.315119 289.184613 
L 353.640098 288.758266 
L 354.290057 289.757457 
L 354.615037 289.49237 
L 354.940016 289.890178 
L 355.264996 289.636143 
L 355.589975 289.623714 
L 355.914955 289.786295 
L 356.239934 290.225659 
L 356.564914 290.019192 
L 356.889894 290.374389 
L 357.214873 290.460526 
L 357.539853 289.679133 
L 357.864832 289.829405 
L 358.189812 289.723638 
L 358.839771 290.674324 
L 359.16475 290.501068 
L 359.48973 290.534863 
L 360.139689 291.195298 
L 360.464668 290.356952 
L 360.789648 291.124594 
L 361.439607 290.801823 
L 361.764586 291.422902 
L 362.089566 291.335189 
L 362.414545 291.558606 
L 362.739525 290.733913 
L 363.064505 291.362586 
L 363.389484 290.978821 
L 364.039443 291.843722 
L 365.014382 291.806837 
L 365.339361 291.371382 
L 365.98932 292.200079 
L 366.639279 291.945751 
L 366.964259 292.407306 
L 367.289238 291.75633 
L 367.614218 292.226767 
L 367.939197 292.284406 
L 368.264177 291.880988 
L 368.589156 292.862525 
L 369.239115 292.62908 
L 369.564095 292.590611 
L 369.889075 292.781214 
L 370.214054 292.251828 
L 370.539034 292.919658 
L 370.864013 292.829834 
L 371.188993 292.867923 
L 371.513972 292.529327 
L 371.838952 293.670325 
L 372.163931 292.906454 
L 372.488911 292.912856 
L 372.81389 293.09716 
L 373.13887 292.226534 
L 373.463849 292.89042 
L 373.788829 292.573033 
L 374.113808 293.403367 
L 374.438788 293.12458 
L 375.088747 293.593553 
L 375.413726 293.472958 
L 375.738706 292.740301 
L 376.063686 292.808486 
L 376.388665 293.394774 
L 376.713645 293.089397 
L 377.038624 293.510221 
L 377.363604 292.937946 
L 377.688583 292.882076 
L 378.013563 293.39325 
L 378.663522 293.329989 
L 378.988501 294.040852 
L 379.313481 293.771671 
L 379.63846 294.224411 
L 379.96344 293.353635 
L 380.288419 294.130864 
L 380.938378 292.809409 
L 381.263358 293.691406 
L 381.588337 293.352339 
L 381.913317 293.677556 
L 382.238296 293.505837 
L 382.563276 294.679445 
L 382.888256 294.573165 
L 383.213235 294.091858 
L 383.538215 294.553137 
L 383.863194 294.47849 
L 384.188174 293.733159 
L 384.513153 295.28164 
L 384.838133 294.003181 
L 385.163112 294.154635 
L 385.488092 293.704928 
L 385.813071 295.014332 
L 386.138051 295.314726 
L 386.46303 294.901359 
L 386.78801 294.990966 
L 387.112989 294.346136 
L 387.437969 294.445549 
L 387.762948 295.488 
L 388.412907 294.570453 
L 388.737887 294.681852 
L 389.062867 295.164375 
L 389.387846 294.924581 
L 389.712826 294.156247 
L 390.037805 293.87636 
L 390.687764 293.845568 
L 391.012744 294.388772 
L 391.337723 294.510915 
L 391.662703 293.227925 
L 391.987682 293.864828 
L 392.312662 294.019179 
L 392.637641 293.830552 
L 392.962621 293.280259 
L 393.2876 293.394342 
L 393.61258 293.944771 
L 393.937559 293.470143 
L 394.262539 293.907659 
L 394.587518 293.868992 
L 394.912498 292.992132 
L 395.237477 292.683886 
L 395.562457 293.779297 
L 395.887437 292.81296 
L 396.212416 292.493129 
L 396.537396 291.542899 
L 396.862375 288.929374 
L 397.187355 283.29415 
L 397.512334 273.824324 
L 397.837314 256.443772 
L 398.487273 196.017682 
L 398.487273 196.017682 
" style="fill:none;stroke:#1f77b4;stroke-linecap:square;stroke-width:1.5;"/>
   </g>
   <g id="patch_3">
    <path d="M 57.6 307.584 
L 57.6 41.472 
" style="fill:none;stroke:#000000;stroke-linecap:square;stroke-linejoin:miter;stroke-width:0.8;"/>
   </g>
   <g id="patch_4">
    <path d="M 414.72 307.584 
L 414.72 41.472 
" style="fill:none;stroke:#000000;stroke-linecap:square;stroke-linejoin:miter;stroke-width:0.8;"/>
   </g>
   <g id="patch_5">
    <path d="M 57.6 307.584 
L 414.72 307.584 
" style="fill:none;stroke:#000000;stroke-linecap:square;stroke-linejoin:miter;stroke-width:0.8;"/>
   </g>
   <g id="patch_6">
    <path d="M 57.6 41.472 
L 414.72 41.472 
" style="fill:none;stroke:#000000;stroke-linecap:square;stroke-linejoin:miter;stroke-width:0.8;"/>
   </g>
   <g id="text_16">
    <!-- Train loss -->
    <defs>
     <path d="M -0.296875 72.90625 
L 61.375 72.90625 
L 61.375 64.59375 
L 35.5 64.59375 
L 35.5 0 
L 25.59375 0 
L 25.59375 64.59375 
L -0.296875 64.59375 
z
" id="DejaVuSans-84"/>
     <path d="M 41.109375 46.296875 
Q 39.59375 47.171875 37.8125 47.578125 
Q 36.03125 48 33.890625 48 
Q 26.265625 48 22.1875 43.046875 
Q 18.109375 38.09375 18.109375 28.8125 
L 18.109375 0 
L 9.078125 0 
L 9.078125 54.6875 
L 18.109375 54.6875 
L 18.109375 46.1875 
Q 20.953125 51.171875 25.484375 53.578125 
Q 30.03125 56 36.53125 56 
Q 37.453125 56 38.578125 55.875 
Q 39.703125 55.765625 41.0625 55.515625 
z
" id="DejaVuSans-114"/>
     <path d="M 34.28125 27.484375 
Q 23.390625 27.484375 19.1875 25 
Q 14.984375 22.515625 14.984375 16.5 
Q 14.984375 11.71875 18.140625 8.90625 
Q 21.296875 6.109375 26.703125 6.109375 
Q 34.1875 6.109375 38.703125 11.40625 
Q 43.21875 16.703125 43.21875 25.484375 
L 43.21875 27.484375 
z
M 52.203125 31.203125 
L 52.203125 0 
L 43.21875 0 
L 43.21875 8.296875 
Q 40.140625 3.328125 35.546875 0.953125 
Q 30.953125 -1.421875 24.3125 -1.421875 
Q 15.921875 -1.421875 10.953125 3.296875 
Q 6 8.015625 6 15.921875 
Q 6 25.140625 12.171875 29.828125 
Q 18.359375 34.515625 30.609375 34.515625 
L 43.21875 34.515625 
L 43.21875 35.40625 
Q 43.21875 41.609375 39.140625 45 
Q 35.0625 48.390625 27.6875 48.390625 
Q 23 48.390625 18.546875 47.265625 
Q 14.109375 46.140625 10.015625 43.890625 
L 10.015625 52.203125 
Q 14.9375 54.109375 19.578125 55.046875 
Q 24.21875 56 28.609375 56 
Q 40.484375 56 46.34375 49.84375 
Q 52.203125 43.703125 52.203125 31.203125 
z
" id="DejaVuSans-97"/>
     <path d="M 9.421875 54.6875 
L 18.40625 54.6875 
L 18.40625 0 
L 9.421875 0 
z
M 9.421875 75.984375 
L 18.40625 75.984375 
L 18.40625 64.59375 
L 9.421875 64.59375 
z
" id="DejaVuSans-105"/>
     <path d="M 54.890625 33.015625 
L 54.890625 0 
L 45.90625 0 
L 45.90625 32.71875 
Q 45.90625 40.484375 42.875 44.328125 
Q 39.84375 48.1875 33.796875 48.1875 
Q 26.515625 48.1875 22.3125 43.546875 
Q 18.109375 38.921875 18.109375 30.90625 
L 18.109375 0 
L 9.078125 0 
L 9.078125 54.6875 
L 18.109375 54.6875 
L 18.109375 46.1875 
Q 21.34375 51.125 25.703125 53.5625 
Q 30.078125 56 35.796875 56 
Q 45.21875 56 50.046875 50.171875 
Q 54.890625 44.34375 54.890625 33.015625 
z
" id="DejaVuSans-110"/>
     <path id="DejaVuSans-32"/>
    </defs>
    <g transform="translate(207.399375 35.472)scale(0.12 -0.12)">
     <use xlink:href="#DejaVuSans-84"/>
     <use x="60.865234" xlink:href="#DejaVuSans-114"/>
     <use x="101.978516" xlink:href="#DejaVuSans-97"/>
     <use x="163.257812" xlink:href="#DejaVuSans-105"/>
     <use x="191.041016" xlink:href="#DejaVuSans-110"/>
     <use x="254.419922" xlink:href="#DejaVuSans-32"/>
     <use x="286.207031" xlink:href="#DejaVuSans-108"/>
     <use x="313.990234" xlink:href="#DejaVuSans-111"/>
     <use x="375.171875" xlink:href="#DejaVuSans-115"/>
     <use x="427.271484" xlink:href="#DejaVuSans-115"/>
    </g>
   </g>
  </g>
 </g>
 <defs>
  <clipPath id="pc1ae70b593">
   <rect height="266.112" width="357.12" x="57.6" y="41.472"/>
  </clipPath>
 </defs>
</svg>
